SplineFontDB: 3.2
FontName: Unageo-Variable
FullName: Unageo Variable
FamilyName: Unageo
Weight: Variable
Copyright: Copyright 2023 The Unageo Project Authors (https://github.com/RichardSepsi/Unageo)
UComments: "2023-12-24: Created with FontForge (http://fontforge.org)"
Version: 2.0
ItalicAngle: 0
UnderlinePosition: -100
UnderlineWidth: 50
Ascent: 800
Descent: 200
InvalidEm: 0
LayerCount: 2
Layer: 0 0 "Back" 1
Layer: 1 0 "Fore" 0
XUID: [1021 442 -170519175 30473]
FSType: 0
OS2Version: 0
OS2_WeightWidthSlopeOnly: 0
OS2_UseTypoMetrics: 1
CreationTime: 1703449507
ModificationTime: 1705142923
PfmFamily: 33
TTFWeight: 900
TTFWidth: 5
LineGap: 90
VLineGap: 0
OS2TypoAscent: 950
OS2TypoAOffset: 0
OS2TypoDescent: -250
OS2TypoDOffset: 0
OS2TypoLinegap: 90
OS2WinAscent: 1010
OS2WinAOffset: 0
OS2WinDescent: 220
OS2WinDOffset: 0
HheadAscent: 950
HheadAOffset: 0
HheadDescent: -250
HheadDOffset: 0
OS2CapHeight: 700
OS2XHeight: 500
OS2Vendor: 'PfEd'
MarkAttachClasses: 1
DEI: 91125
LangName: 1033 "" "" "" "" "" "" "" "" "Richard Sepsi" "Richard Sepsi" "" "" "" "This Font Software is licensed under the SIL Open Font License, Version 1.1. This license is available with a FAQ at: https://scripts.sil.org/OFL" "http://scripts.sil.org/OFL" "" "Unageo" "Variable"
GaspTable: 1 65535 15 1
Encoding: UnicodeBmp
UnicodeInterp: none
NameList: AGL For New Fonts
DisplaySize: -48
AntiAlias: 1
FitToEm: 0
WinInfo: 0 19 14
BeginPrivate: 7
BlueValues 23 [-12 0 500 512 700 712]
OtherBlues 11 [-200 -200]
BlueShift 1 7
StdHW 5 [170]
StdVW 5 [170]
StemSnapH 5 [170]
StemSnapV 5 [170]
EndPrivate
TeXData: 1 0 0 346030 173015 115343 524288 1048576 115343 783286 444596 497025 792723 393216 433062 380633 303038 157286 324010 404750 52429 2506097 1059062 262144
BeginChars: 65536 736

StartChar: A
Encoding: 65 65 0
GlifName: A_
Width: 695
Flags: W
HStem: 0 21G<10 196.829 497.714 685> 93 170<279.796 409.192> 680 20G<243.143 436.314>
LayerCount: 2
Fore
SplineSet
279.795898438 263 m 1
 409.192382812 263 l 1
 342.3984375 446.356445312 l 1
 279.795898438 263 l 1
221.752929688 93 m 1
 190 0 l 1
 10 0 l 1
 250 700 l 1
 429 700 l 1
 685 0 l 1
 505 0 l 1
 471.12109375 93 l 1
 221.752929688 93 l 1
EndSplineSet
EndChar

StartChar: B
Encoding: 66 66 1
GlifName: B_
Width: 618
Flags: W
HStem: 0 170.108<233 401.909> 278 170<233 357.529> 530 170<233 357.529>
VStem: 63 170<170.108 278 448 530> 373 170<457.371 519.803> 420.267 169.733<183.959 264.111>
LayerCount: 2
Fore
SplineSet
233 278 m 1xf4
 233 170.108398438 l 1
 357.321289062 170.108398438 l 2
 375.552734375 170.108398438 390.6015625 175.052734375 402.467773438 184.94140625 c 0
 414.333984375 194.830078125 420.266601562 207.8671875 420.266601562 224.053710938 c 0
 420.266601562 240.240234375 414.333984375 253.278320312 402.467773438 263.166992188 c 0
 390.6015625 273.055664062 375.552734375 278 357.321289062 278 c 2
 233 278 l 1xf4
233 530 m 1
 233 448 l 1
 318 448 l 2
 334.666992188 448 348 451.666992188 358 459 c 0
 368 466.333007812 373 476.333007812 373 489 c 0xf8
 373 501.666992188 368 511.666992188 358 519 c 0
 348 526.333007812 334.666992188 530 318 530 c 2
 233 530 l 1
63 700 m 1
 338 700 l 2
 394.666992188 700 443 680 483 640 c 0
 523 600 543 551.666992188 543 495 c 0xf8
 542.8671875 455.541015625 532.228515625 419.15234375 511.08203125 385.8359375 c 1
 536.071289062 365.131835938 555.470703125 340.095703125 569.279296875 310.728515625 c 0
 583.087890625 281.361328125 589.995117188 250.451171875 590 218 c 0xf4
 590 158 568.666992188 106.666992188 526 64 c 0
 483.333007812 21.3330078125 432 0 372 0 c 2
 63 0 l 1
 63 700 l 1
EndSplineSet
EndChar

StartChar: C
Encoding: 67 67 2
GlifName: C_
Width: 664
Flags: W
HStem: -12.5 170<300.969 479.24> 541.5 170<301.059 478.597>
VStem: 27.7832 170<260.449 438.644>
LayerCount: 2
Fore
SplineSet
389.783203125 711.5 m 0
 438.921875 711.5 485.556640625 702.155273438 529.6875 683.465820312 c 0
 573.818359375 664.77734375 612.588867188 638.694335938 646 605.216796875 c 1
 525.71875 484.935546875 l 1
 488.235351562 522.600585938 442.923828125 541.456054688 389.783203125 541.5 c 0
 336.799804688 541.5 291.553710938 522.74609375 254.044921875 485.23828125 c 0
 216.537109375 447.729492188 197.783203125 402.483398438 197.783203125 349.5 c 0
 197.783203125 296.516601562 216.537109375 251.270507812 254.044921875 213.76171875 c 0
 291.553710938 176.25390625 336.799804688 157.5 389.783203125 157.5 c 0
 442.659179688 157.514648438 487.821289062 176.185546875 525.271484375 213.51171875 c 1
 644.853515625 93.9296875 l 1
 611.590820312 60.5615234375 572.99609375 34.525390625 529.068359375 15.8212890625 c 0
 485.139648438 -2.8828125 438.711914062 -12.3232421875 389.783203125 -12.5 c 0
 286.956054688 -12.5 200.122070312 24.13671875 129.283203125 97.4111328125 c 0
 61.6162109375 167.404296875 27.783203125 251.43359375 27.783203125 349.5 c 0
 27.783203125 447.793945312 61.7490234375 531.9609375 129.681640625 602 c 0
 200.485351562 675 287.186523438 711.5 389.783203125 711.5 c 0
EndSplineSet
EndChar

StartChar: D
Encoding: 68 68 3
GlifName: D_
Width: 713
Flags: W
HStem: 0 170<233 421.475> 530 170<233 421.475>
VStem: 63 170<170 530> 515 170<263.333 436.667>
LayerCount: 2
Fore
SplineSet
335 530 m 2
 233 530 l 1
 233 170 l 1
 335 170 l 2
 385 170 427.5 187.5 462.5 222.5 c 0
 497.5 257.5 515 300 515 350 c 0
 515 400 497.5 442.5 462.5 477.5 c 0
 427.5 512.5 385 530 335 530 c 2
335 700 m 2
 431.666992188 700 514.166992188 665.833007812 582.5 597.5 c 0
 650.833007812 529.166992188 685 446.666992188 685 350 c 0
 685 253.333007812 650.833007812 170.833007812 582.5 102.5 c 0
 514.166992188 34.1669921875 431.666992188 0 335 0 c 2
 63 0 l 1
 63 700 l 1
 335 700 l 2
EndSplineSet
EndChar

StartChar: E
Encoding: 69 69 4
GlifName: E_
Width: 592
Flags: W
HStem: 0 170<233 539> 266 169<233 468> 530 170<233 538>
VStem: 63 170<170 266 435 530>
LayerCount: 2
Fore
SplineSet
63 0 m 1
 63 700 l 1
 538 700 l 1
 538 530 l 1
 233 530 l 1
 233 435 l 1
 468 435 l 1
 468 266 l 1
 233 266 l 1
 233 170 l 1
 539 170 l 1
 539 0 l 1
 63 0 l 1
EndSplineSet
EndChar

StartChar: F
Encoding: 70 70 5
GlifName: F_
Width: 570
Flags: W
HStem: 0 21G<63 233> 258 170<233 473> 530 170<233 542>
VStem: 63 170<0 258 428 530>
LayerCount: 2
Fore
SplineSet
63 0 m 1
 63 700 l 1
 542 700 l 1
 542 530 l 1
 233 530 l 1
 233 428 l 1
 473 428 l 1
 473 258 l 1
 233 258 l 1
 233 0 l 1
 63 0 l 1
EndSplineSet
EndChar

StartChar: G
Encoding: 71 71 6
GlifName: G_
Width: 770
Flags: W
HStem: -12.5 170<299.676 479.922> 264.5 170<387 561.881> 541.5 170<300.196 479.271>
VStem: 28 170<259.696 439.824>
CounterMasks: 1 e0
LayerCount: 2
Fore
SplineSet
390 711.5 m 0
 438.065429688 711.5 484.295898438 702.291015625 528.692382812 683.873046875 c 0
 573.088867188 665.456054688 612.263671875 639.237304688 646.216796875 605.216796875 c 1
 525.935546875 484.935546875 l 1
 488.452148438 522.6015625 443.139648438 541.456054688 390 541.5 c 0
 336.981445312 541.5 291.7265625 522.754882812 254.235351562 485.264648438 c 0
 216.745117188 447.7734375 198 402.518554688 198 349.5 c 0
 198 296.481445312 216.745117188 251.2265625 254.235351562 213.735351562 c 0
 291.7265625 176.245117188 336.981445312 157.5 390 157.5 c 0
 442.875976562 157.514648438 488.038085938 176.184570312 525.48828125 213.51171875 c 0
 540.1796875 228.038085938 552.310546875 245.034179688 561.880859375 264.5 c 1
 387 264.5 l 1
 387 434.5 l 1
 752 434.5 l 1
 752 349.5 l 2
 751.9921875 250.25 716.348632812 165.059570312 645.0703125 93.9296875 c 0
 611.270507812 60.0224609375 572.27734375 33.8505859375 528.092773438 15.4140625 c 0
 483.908203125 -3.0224609375 437.876953125 -12.3271484375 390 -12.5 c 0
 288.857421875 -12.5 203.024414062 23.08203125 132.5 94.2470703125 c 0
 62.8330078125 164.545898438 28 249.629882812 28 349.5 c 0
 28 450.642578125 63.58203125 536.475585938 134.747070312 607 c 0
 205.045898438 676.666992188 290.129882812 711.5 390 711.5 c 0
EndSplineSet
EndChar

StartChar: H
Encoding: 72 72 7
GlifName: H_
Width: 734
Flags: W
HStem: 0 21G<63 233 501 671> 271 170<233 501> 681 20G<63 233 501 671>
VStem: 63 170<0 271 441 701> 501 170<0 271 441 700>
LayerCount: 2
Fore
SplineSet
63 0 m 1
 63 701 l 1
 233 701 l 1
 233 441 l 1
 501 441 l 1
 501 700 l 1
 671 700 l 1
 671 0 l 1
 501 0 l 1
 501 271 l 1
 233 271 l 1
 233 0 l 1
 63 0 l 1
EndSplineSet
EndChar

StartChar: I
Encoding: 73 73 8
GlifName: I_
Width: 296
Flags: W
HStem: 0 21G<63 233> 680 20G<63 233>
VStem: 63 170<0 700>
LayerCount: 2
Fore
SplineSet
63 0 m 1
 63 700 l 1
 233 700 l 1
 233 0 l 1
 63 0 l 1
EndSplineSet
EndChar

StartChar: J
Encoding: 74 74 9
GlifName: J_
Width: 467
Flags: W
HStem: -16 170<134.053 224.237> 680 20G<244 414>
VStem: 244 170<173.654 700>
LayerCount: 2
Fore
SplineSet
244 700 m 1
 414 700 l 1
 414 219 l 2
 414 154.106445312 391.056640625 98.716796875 345.169921875 52.830078125 c 0
 299.283203125 6.943359375 243.893554688 -16 179 -16 c 0
 114.203125 -15.7666015625 58.9541015625 7.318359375 13.25390625 53.25390625 c 1
 133.461914062 173.461914062 l 1
 146.020507812 160.587890625 161.200195312 154.100585938 179 154 c 0
 196.784179688 153.899414062 212.063476562 160.25 224.837890625 173.051757812 c 0
 237.612304688 185.853515625 244 201.169921875 244 219 c 2
 244 700 l 1
EndSplineSet
EndChar

StartChar: K
Encoding: 75 75 10
GlifName: K_
Width: 684
Flags: W
HStem: 0 21G<63 233 451.18 671> 680 20G<63 233 411.481 649>
VStem: 63 170<0 198.556 463.908 700>
LayerCount: 2
Fore
SplineSet
63 0 m 1
 63 700 l 1
 233 700 l 1
 233 463.908203125 l 1
 428 700 l 1
 649 700 l 1
 397.5546875 396.909179688 l 1
 671 0 l 1
 465 0 l 1
 284.717773438 260.896484375 l 1
 233 198.555664062 l 1
 233 0 l 1
 63 0 l 1
EndSplineSet
EndChar

StartChar: L
Encoding: 76 76 11
GlifName: L_
Width: 559
Flags: W
HStem: 0 170<233 536> 680 20G<63 233>
VStem: 63 170<170 700>
LayerCount: 2
Fore
SplineSet
63 0 m 1
 63 700 l 1
 233 700 l 1
 233 170 l 1
 536 170 l 1
 536 0 l 1
 63 0 l 1
EndSplineSet
EndChar

StartChar: M
Encoding: 77 77 12
GlifName: M_
Width: 833
Flags: W
HStem: 0 21G<13.2617 187.439 645.821 820> 38.2207 281.037<186.925 646.337> 680 20G<104.022 302.179 531.082 729.24>
VStem: 13.2617 171.508<0 171.508> 648.49 171.51<0 171.51>
LayerCount: 2
Fore
SplineSet
106.69140625 700 m 1
 295.833984375 700 l 1
 416.630859375 319.2578125 l 1
 537.427734375 700 l 1
 726.5703125 700 l 1
 820 0 l 1
 648.490234375 0 l 1
 602.65234375 343.43359375 l 1
 505.818359375 38.220703125 l 1
 327.443359375 38.220703125 l 1
 230.609375 343.435546875 l 1
 184.76953125 0 l 1
 13.26171875 0 l 1
 106.69140625 700 l 1
EndSplineSet
EndChar

StartChar: N
Encoding: 78 78 13
GlifName: N_
Width: 719
Flags: W
HStem: 0 21G<63 233 472.992 656> 680 20G<63 246.008 486 656>
VStem: 63 170<0 389> 486 170<311 700>
LayerCount: 2
Fore
SplineSet
63 700 m 1
 233 700 l 1
 486 311 l 1
 486 700 l 1
 656 700 l 1
 656 0 l 1
 486 0 l 1
 233 389 l 1
 233 0 l 1
 63 0 l 1
 63 700 l 1
EndSplineSet
EndChar

StartChar: O
Encoding: 79 79 14
GlifName: O_
Width: 780
Flags: W
HStem: -12.5 170<301.634 478.917> 541.5 170<301.713 479.519>
VStem: 28 170<259.981 439.101> 582 170<260.557 437.866>
LayerCount: 2
Fore
SplineSet
390 541.5 m 0
 337.016601562 541.5 291.770507812 522.74609375 254.26171875 485.23828125 c 0
 216.75390625 447.729492188 198 402.483398438 198 349.5 c 0
 198 296.516601562 216.75390625 251.270507812 254.26171875 213.76171875 c 0
 291.770507812 176.25390625 337.016601562 157.5 390 157.5 c 0
 442.983398438 157.5 488.229492188 176.25390625 525.73828125 213.76171875 c 0
 563.24609375 251.270507812 582 296.516601562 582 349.5 c 0
 582 402.483398438 563.24609375 447.729492188 525.73828125 485.23828125 c 0
 488.229492188 522.74609375 442.983398438 541.5 390 541.5 c 0
390 711.5 m 4
 489.208007812 711.5 573.920898438 677 644.140625 608 c 0
 716.046875 537.342773438 752 451.17578125 752 349.5 c 0
 752 246.342773438 715.166992188 159.3203125 641.5 88.4326171875 c 0
 571.575195312 21.14453125 487.741210938 -12.5 390 -12.5 c 0
 288.32421875 -12.5 202.157226562 23.453125 131.5 95.359375 c 0
 62.5 165.579101562 28 250.291992188 28 349.5 c 0
 28 448.909179688 62.6181640625 533.743164062 131.853515625 604 c 0
 202.477539062 675.666992188 288.526367188 711.5 390 711.5 c 4
EndSplineSet
EndChar

StartChar: P
Encoding: 80 80 15
GlifName: P_
Width: 604
Flags: W
HStem: 0 21G<63 233> 210 170<233 402.61> 530 170<233 402.61>
VStem: 63 170<0 210 380 530> 426 170<403.297 506.703>
LayerCount: 2
Fore
SplineSet
233 530 m 1
 233 380 l 1
 351 380 l 2
 371 380 388.5 387.5 403.5 402.5 c 0
 418.5 417.5 426 435 426 455 c 0
 426 475 418.5 492.5 403.5 507.5 c 0
 388.5 522.5 371 530 351 530 c 2
 233 530 l 1
63 700 m 1
 351 700 l 2
 418.333007812 700 476 676 524 628 c 0
 572 580 596 522.333007812 596 455 c 0
 596 387.666992188 572 330 524 282 c 0
 476 234 418.333007812 210 351 210 c 2
 233 210 l 1
 233 0 l 1
 63 0 l 1
 63 700 l 1
EndSplineSet
EndChar

StartChar: Q
Encoding: 81 81 16
GlifName: Q_
Width: 780
Flags: W
HStem: -12.5 170<301.186 450.963> 541.5 170<301.713 479.051>
VStem: 28 170<260.449 439.101> 582 170<288.381 438.314>
LayerCount: 2
Fore
SplineSet
390 541.5 m 0
 337.016601562 541.5 291.770507812 522.74609375 254.26171875 485.23828125 c 0
 216.75390625 447.729492188 198 402.483398438 198 349.5 c 0
 198 296.516601562 216.75390625 251.270507812 254.26171875 213.76171875 c 0
 291.770507812 176.25390625 337.016601562 157.5 390 157.5 c 0
 412.026367188 157.5 432.715820312 160.741210938 452.068359375 167.223632812 c 1
 398.446289062 220.845703125 l 1
 518.654296875 341.053710938 l 1
 572.276367188 287.431640625 l 1
 578.758789062 306.784179688 582 327.473632812 582 349.5 c 0
 582 402.483398438 563.24609375 447.729492188 525.73828125 485.23828125 c 0
 488.229492188 522.74609375 442.983398438 541.5 390 541.5 c 0
390 711.5 m 0
 488.06640625 711.5 572.095703125 677.666992188 642.088867188 610 c 0
 715.36328125 539.161132812 752 452.327148438 752 349.5 c 0
 752 278.663085938 734.631835938 215.434570312 699.89453125 159.813476562 c 1
 752 107.708007812 l 1
 631.791992188 -12.5 l 1
 579.477539062 39.814453125 l 1
 523.52734375 4.9384765625 460.368164062 -12.5 390 -12.5 c 0
 287.172851562 -12.5 200.338867188 24.13671875 129.5 97.4111328125 c 0
 61.8330078125 167.404296875 28 251.43359375 28 349.5 c 0
 28 448.909179688 62.6181640625 533.743164062 131.853515625 604 c 0
 202.477539062 675.666992188 288.526367188 711.5 390 711.5 c 0
EndSplineSet
EndChar

StartChar: R
Encoding: 82 82 17
GlifName: R_
Width: 614
Flags: W
HStem: 0 21G<63 233 407.677 595.914> 210 170<233 338.521> 530 170<233 402.61>
VStem: 63 170<0 210 380 530> 426 170<403.537 506.703>
LayerCount: 2
Fore
SplineSet
233 530 m 1
 233 380 l 1
 351 380 l 2
 371 380 388.5 387.5 403.5 402.5 c 0
 418.5 417.5 426 435 426 455 c 0
 426 475 418.5 492.5 403.5 507.5 c 0
 388.5 522.5 371 530 351 530 c 2
 233 530 l 1
63 700 m 1
 351 700 l 2
 418.333007812 700 476 676 524 628 c 0
 572 580 596 522.333007812 596 455 c 0
 596 416.270507812 587.516601562 380.004882812 570.548828125 346.203125 c 0
 553.58203125 312.401367188 530.344726562 284.075195312 500.8359375 261.224609375 c 1
 595.9140625 0 l 1
 414.95703125 0 l 1
 338.521484375 210 l 1
 233 210 l 1
 233 0 l 1
 63 0 l 1
 63 700 l 1
EndSplineSet
EndChar

StartChar: S
Encoding: 83 83 18
GlifName: S_
Width: 560
Flags: W
HStem: -12 169.998<212.956 335.442> 507.826 21G<336.975 412.787> 542 170<224.985 332.146>
VStem: 40.0029 170<466.044 529.534> 357.005 169.998<176.578 256.421>
LayerCount: 2
Fore
SplineSet
276.002929688 712 m 0
 329.944335938 712 378.036132812 697.102539062 420.278320312 667.306640625 c 0
 462.520507812 637.51171875 489.95703125 599.040039062 502.586914062 551.890625 c 1
 338.153320312 507.826171875 l 1
 335.796875 518.063476562 328.806640625 526.318359375 317.181640625 532.590820312 c 0
 305.556640625 538.86328125 291.830078125 542 276.002929688 542 c 0
 257.3359375 542 241.669921875 538 229.002929688 530 c 0
 216.3359375 522 210.002929688 510.666992188 210.002929688 496 c 0
 210.002929688 486.154296875 215.034179688 477.56640625 225.096679688 470.236328125 c 0
 238.200195312 460.69140625 259.8359375 453.279296875 290.002929688 448 c 0
 360.002929688 436 417.002929688 411 461.002929688 373 c 0
 505.002929688 335 527.002929688 283.666992188 527.002929688 219 c 0
 527.002929688 153.666992188 502.502929688 98.8330078125 453.502929688 54.5 c 0
 404.502929688 10.1669921875 345.3359375 -12 276.002929688 -12 c 0
 218.586914062 -12 167.127929688 3.9765625 121.625976562 35.9287109375 c 0
 76.125 67.880859375 46.646484375 109.00390625 33.1904296875 159.296875 c 1
 197.081054688 203.212890625 l 1
 200.615234375 190.01953125 209.8984375 179.185546875 224.9296875 170.709960938 c 0
 239.961914062 162.235351562 256.986328125 157.998046875 276.002929688 157.998046875 c 0
 298.7890625 157.998046875 317.986328125 163.4921875 333.59375 174.481445312 c 0
 349.201171875 185.470703125 357.004882812 200.309570312 357.004882812 219 c 0
 357.004882812 233.723632812 350.369140625 246.248046875 337.096679688 256.572265625 c 0
 321.375976562 268.801757812 296.344726562 277.944335938 262.002929688 284 c 0
 197.3359375 295.333007812 144.169921875 318.5 102.502929688 353.5 c 0
 60.8359375 388.5 40.0029296875 436 40.0029296875 496 c 0
 40.0029296875 557.333007812 63.0029296875 608.666992188 109.002929688 650 c 0
 155.002929688 691.333007812 210.669921875 712 276.002929688 712 c 0
EndSplineSet
EndChar

StartChar: T
Encoding: 84 84 19
GlifName: T_
Width: 621
Flags: W
HStem: 0 21G<225.5 395.5> 530 170<20 225.5 395.5 601>
VStem: 225.5 170<0 530>
LayerCount: 2
Fore
SplineSet
20 700 m 1
 601 700 l 1
 601 530 l 1
 395.5 530 l 1
 395.5 0 l 1
 225.5 0 l 1
 225.5 530 l 1
 20 530 l 1
 20 700 l 1
EndSplineSet
EndChar

StartChar: U
Encoding: 85 85 20
GlifName: U_
Width: 706
Flags: W
HStem: -12 170<284.759 421.241> 680 20G<53 223 483 653>
VStem: 53 170<225.026 700> 483 170<225.026 700>
LayerCount: 2
Fore
SplineSet
53 700 m 1
 223 700 l 1
 223 318 l 2
 223 269.333007812 235.5 230.5 260.5 201.5 c 0
 285.5 172.5 316.333007812 158 353 158 c 0
 389.666992188 158 420.5 172.5 445.5 201.5 c 0
 470.5 230.5 483 269.333007812 483 318 c 2
 483 700 l 1
 653 700 l 1
 653 318 l 2
 653 222 624 143 566 81 c 0
 508 19 437 -12 353 -12 c 0
 269 -12 198 19 140 81 c 0
 82 143 53 222 53 318 c 2
 53 700 l 1
EndSplineSet
EndChar

StartChar: V
Encoding: 86 86 21
GlifName: V_
Width: 695
Flags: W
HStem: 0 21G<251.886 445.057> 680 20G<10 197.086 497.971 685>
LayerCount: 2
Fore
SplineSet
10 700 m 1
 190 700 l 1
 348.137695312 253.643554688 l 1
 505 700 l 1
 685 700 l 1
 438 0 l 1
 259 0 l 1
 10 700 l 1
EndSplineSet
EndChar

StartChar: W
Encoding: 87 87 22
GlifName: W_
Width: 966
Flags: W
HStem: 0 21G<197.486 387.457 580.486 770.457> 680 20G<10 195.486 387.571 578.486 770.571 956>
VStem: 10 180<520 700> 776 180<520 700>
LayerCount: 2
Fore
SplineSet
776 700 m 1
 956 700 l 1
 765 0 l 1
 586 0 l 1
 483.46875 371.875 l 1
 382 0 l 1
 203 0 l 1
 10 700 l 1
 190 700 l 1
 292.03125 328.010742188 l 1
 393 700 l 1
 573 700 l 1
 675.03125 328.010742188 l 1
 776 700 l 1
EndSplineSet
EndChar

StartChar: X
Encoding: 88 88 23
GlifName: X_
Width: 661
Flags: W
HStem: 0 21G<12.5 224.286 436.214 648> 680 20G<18.5 230.286 430.214 642>
VStem: 230.5 199.5<255.134 454.634>
LayerCount: 2
Fore
SplineSet
442.5 700 m 1
 642 700 l 1
 430 354.883789062 l 1
 648 0 l 1
 448.5 0 l 1
 330.25 192.5 l 1
 212 0 l 1
 12.5 0 l 1
 230.5 354.883789062 l 1
 18.5 700 l 1
 218 700 l 1
 330.25 517.267578125 l 1
 442.5 700 l 1
EndSplineSet
EndChar

StartChar: Y
Encoding: 89 89 24
GlifName: Y_
Width: 641
Flags: W
HStem: 0 21G<235.5 405.492> 680 20G<9 219.465 421.535 632>
VStem: 235.5 169.992<0 308.268>
LayerCount: 2
Fore
SplineSet
9 700 m 1
 208 700 l 1
 320.5 503.758789062 l 1
 433 700 l 1
 632 700 l 1
 405.4921875 308.267578125 l 5
 405.4921875 0 l 1
 235.5 0 l 1
 235.5 308.28125 l 1
 9 700 l 1
EndSplineSet
EndChar

StartChar: Z
Encoding: 90 90 25
GlifName: Z_
Width: 611
Flags: W
HStem: 0 170<261 575> 530 170<36 350>
LayerCount: 2
Fore
SplineSet
33 0 m 1
 33 170 l 1
 350 530 l 1
 36 530 l 1
 36 700 l 1
 578 700 l 1
 578 530 l 1
 261 170 l 1
 575 170 l 1
 575 0 l 1
 33 0 l 1
EndSplineSet
EndChar

StartChar: a
Encoding: 97 97 26
GlifName: a
Width: 602
Flags: W
HStem: -12 168<230.325 349.803> 0 21G<406 554> 344 168<230.325 349.731> 480 20G<406 554>
VStem: 23 173<190.234 309.766> 384 170<189.653 310.347> 406 148<0 32.9893 462.037 500>
LayerCount: 2
Fore
SplineSet
406 500 m 1x1a
 554 500 l 1
 554 0 l 1
 406 0 l 1x5a
 406 32.9892578125 l 1
 402.436523438 29.9013671875 398.76953125 26.9716796875 395 24.201171875 c 4
 362.16015625 0.0673828125 321.494140625 -12 273 -12 c 0
 201.666992188 -12 142.166992188 13.3330078125 94.5 64 c 0
 46.8330078125 114.666992188 23 176.666992188 23 250 c 0
 23 323.333007812 46.8330078125 385.333007812 94.5 436 c 0
 142.166992188 486.666992188 201.666992188 512 273 512 c 0xaa
 320.841796875 512 361.841796875 498.225585938 396 470.676757812 c 0
 399.401367188 467.93359375 402.734375 465.053710938 406 462.037109375 c 1
 406 500 l 1x1a
290 344 m 0xac
 264 344 241.833007812 334.833007812 223.5 316.5 c 0
 205.166992188 298.166992188 196 276 196 250 c 0
 196 224 205.166992188 201.833007812 223.5 183.5 c 0
 241.833007812 165.166992188 264 156 290 156 c 0
 316 156 338.166992188 165.166992188 356.5 183.5 c 0
 374.833007812 201.833007812 384 224 384 250 c 0
 384 276 374.833007812 298.166992188 356.5 316.5 c 0
 338.166992188 334.833007812 316 344 290 344 c 0xac
EndSplineSet
EndChar

StartChar: b
Encoding: 98 98 27
GlifName: b
Width: 602
Flags: W
HStem: -12 168<251.983 371.675> 0 21G<48 196> 344 168<252.155 371.675> 680 20G<48 218>
VStem: 48 170<189.653 310.347 479.596 700> 406 173<190.234 309.766>
LayerCount: 2
Fore
SplineSet
312 344 m 0xbc
 286 344 263.833007812 334.833007812 245.5 316.5 c 0
 227.166992188 298.166992188 218 276 218 250 c 0
 218 224 227.166992188 201.833007812 245.5 183.5 c 0
 263.833007812 165.166992188 286 156 312 156 c 0
 338 156 360.166992188 165.166992188 378.5 183.5 c 0
 396.833007812 201.833007812 406 224 406 250 c 0
 406 276 396.833007812 298.166992188 378.5 316.5 c 0
 360.166992188 334.833007812 338 344 312 344 c 0xbc
329 512 m 0
 400.333007812 512 459.833007812 486.666992188 507.5 436 c 0
 555.166992188 385.333007812 579 323.333007812 579 250 c 0
 579 176.666992188 555.166992188 114.666992188 507.5 64 c 0
 459.833007812 13.3330078125 400.333007812 -12 329 -12 c 0xbc
 281.485351562 -12 241.485351562 -0.416015625 209 22.7529296875 c 4
 204.524414062 25.9453125 200.190429688 29.357421875 196 32.9892578125 c 1
 196 0 l 1
 48 0 l 1x7c
 48 700 l 1
 218 700 l 1
 218 479.595703125 l 1
 224.131835938 483.783203125 230.46484375 487.564453125 237 490.940429688 c 0
 264.1796875 504.98046875 294.846679688 512 329 512 c 0
EndSplineSet
EndChar

StartChar: c
Encoding: 99 99 28
GlifName: c
Width: 482
Flags: W
HStem: -12 170<225.886 367.419> 342 170<225.886 367.419>
VStem: 22.7383 170<191.148 308.852>
LayerCount: 2
Fore
SplineSet
284.73828125 512 m 0
 357.086914062 512 418.840820312 486.420898438 470 435.26171875 c 1
 349.79296875 315.0546875 l 1
 331.829101562 333.018554688 310.14453125 342 284.73828125 342 c 0
 259.405273438 342 237.73828125 333 219.73828125 315 c 0
 201.73828125 297 192.73828125 275.333007812 192.73828125 250 c 0
 192.73828125 224.666992188 201.73828125 203 219.73828125 185 c 0
 237.73828125 167 259.405273438 158 284.73828125 158 c 0
 310.14453125 158 331.829101562 166.981445312 349.79296875 184.9453125 c 1
 470 64.73828125 l 1
 418.840820312 13.5791015625 357.086914062 -12 284.73828125 -12 c 0
 212.071289062 -12 150.23828125 13.5 99.23828125 64.5 c 0
 48.23828125 115.5 22.73828125 177.333007812 22.73828125 250 c 0
 22.73828125 322.666992188 48.23828125 384.5 99.23828125 435.5 c 0
 150.23828125 486.5 212.071289062 512 284.73828125 512 c 0
EndSplineSet
EndChar

StartChar: d
Encoding: 100 100 29
GlifName: d
Width: 602
Flags: W
HStem: -12 168<230.325 350.199> 344 168<230.325 350.408>
VStem: 23 173<190.234 309.766> 384 170<189.653 310.347>
LayerCount: 2
Fore
SplineSet
290 344 m 0
 316 344 338.166992188 334.833007812 356.5 316.5 c 0
 374.833007812 298.166992188 384 276 384 250 c 0
 384 224 374.833007812 201.833007812 356.5 183.5 c 0
 338.166992188 165.166992188 316 156 290 156 c 0
 264 156 241.833007812 165.166992188 223.5 183.5 c 0
 205.166992188 201.833007812 196 224 196 250 c 0
 196 276 205.166992188 298.166992188 223.5 316.5 c 0
 241.833007812 334.833007812 264 344 290 344 c 0
273 512 m 0
 201.666992188 512 142.166992188 486.666992188 94.5 436 c 0
 46.8330078125 385.333007812 23 323.333007812 23 250 c 0
 23 176.666992188 46.8330078125 114.666992188 94.5 64 c 0
 142.166992188 13.3330078125 201.666992188 -12 273 -12 c 0
 316.215820312 -12 353.215820312 -2.4169921875 384 16.75 c 4
 391.724609375 21.5595703125 399.057617188 26.97265625 406 32.9892578125 c 1
 406 0 l 1
 554 0 l 1
 554 700 l 1
 384 700 l 1
 384 479.595703125 l 1
 376.008789062 485.052734375 367.67578125 489.8203125 359 493.8984375 c 0
 333.330078125 505.965820312 304.663085938 512 273 512 c 0
EndSplineSet
EndChar

StartChar: e
Encoding: 101 101 30
GlifName: e
Width: 562
Flags: W
HStem: -12 136<244.419 390.257> 180.354 119.646<216.732 366.918> 356 156<233.619 345.894>
VStem: 24.4004 514<182.463 298.688>
LayerCount: 2
Fore
SplineSet
538.400390625 180.353515625 m 5
 216.732421875 180.353515625 l 5
 223.4140625 166.025390625 233.881835938 153.05078125 248.13671875 141.430664062 c 4
 262.391601562 129.810546875 279.8125 124 300.400390625 124 c 4
 343.549804688 124 361.09375 132.180664062 394.921875 147.955078125 c 5
 480.1953125 43.728515625 l 5
 419.338867188 1.1171875 368.336914062 -12 300.400390625 -12 c 4
 225.06640625 -12 160.233398438 13.6669921875 105.900390625 65 c 4
 51.56640625 116.333007812 24.400390625 178 24.400390625 250 c 4
 24.400390625 322.666992188 49.900390625 384.5 100.900390625 435.5 c 4
 151.900390625 486.5 213.733398438 512 286.400390625 512 c 4
 355.733398438 512 415.06640625 486.333007812 464.400390625 435 c 4
 513.733398438 383.666992188 538.400390625 320 538.400390625 244 c 6
 538.400390625 180.353515625 l 5
290.400390625 356 m 4
 271.827148438 356 256.16015625 351.604492188 243.400390625 342.8125 c 4
 229.865234375 333.487304688 219.6015625 319.216796875 212.607421875 300 c 5
 366.91796875 300 l 5
 359.73828125 319.724609375 349.232421875 334.239257812 335.400390625 343.541992188 c 4
 323.051757812 351.84765625 308.051757812 356 290.400390625 356 c 4
EndSplineSet
EndChar

StartChar: f
Encoding: 102 102 31
GlifName: f
Width: 399
Flags: W
HStem: 0 21G<98 268> 330 170<23 98 268 391> 554 170<275.005 391>
VStem: 98 170<0 330 500 546.995>
LayerCount: 2
Fore
SplineSet
309.5 724 m 2
 391 724 l 1
 391 554 l 1
 309.5 554 l 2
 298.5 554 288.833007812 549.833007812 280.5 541.5 c 0
 272.166992188 533.166992188 268 523.5 268 512.5 c 2
 268 500 l 1
 391 500 l 1
 391 330 l 1
 268 330 l 1
 268 0 l 1
 98 0 l 1
 98 330 l 1
 23 330 l 1
 23 500 l 1
 98 500 l 1
 98 512.5 l 2
 98 570.833007812 118.666992188 620.666992188 160 662 c 0
 201.333007812 703.333007812 251.166992188 724 309.5 724 c 2
EndSplineSet
EndChar

StartChar: g
Encoding: 103 103 32
GlifName: g
Width: 602
Flags: W
HStem: -215.316 158<185.075 353.022> -32.9668 20G<131.157 168.416> -13.3164 168<230.27 350.192> 342.684 168<230.27 350.003>
VStem: 22.9912 173<188.993 308.374> 383.991 170<188.375 308.992>
LayerCount: 2
Fore
SplineSet
272.991210938 510.68359375 m 0xbc
 317.645507812 510.68359375 356.315429688 498.771484375 389 474.947265625 c 0
 394.85546875 470.678710938 400.51953125 466.028320312 405.991210938 460.995117188 c 1
 405.991210938 498.68359375 l 1
 553.991210938 498.68359375 l 1
 553.991210938 58.68359375 l 2
 554.514648438 -27.0078125 531.916992188 -94.1142578125 486.19921875 -142.635742188 c 0
 440.481445312 -191.157226562 378.745117188 -215.383789062 300.991210938 -215.31640625 c 0
 148.139648438 -215.18359375 97.955078125 -182.974609375 62.0908203125 -150.666015625 c 1
 142.892578125 -12.966796875 l 1xdc
 193.938476562 -46.140625 228.901367188 -57.0947265625 291.991210938 -57.31640625 c 4
 323.501953125 -57.4267578125 346.654296875 -47.5283203125 361.450195312 -27.62109375 c 0
 369.244140625 -17.1328125 375.018554688 -4.92578125 378.770507812 9 c 0
 379.104492188 10.2373046875 379.421875 11.48828125 379.72265625 12.751953125 c 1
 377.837890625 11.6572265625 375.930664062 10.595703125 374 9.5693359375 c 0
 345.310546875 -5.6875 311.640625 -13.31640625 272.991210938 -13.31640625 c 0
 201.405273438 -13.31640625 141.841796875 12.0595703125 94.3017578125 62.810546875 c 0
 46.76171875 113.5625 22.9912109375 175.520507812 22.9912109375 248.68359375 c 0
 22.9912109375 321.84765625 46.76171875 383.805664062 94.3017578125 434.556640625 c 0
 141.841796875 485.307617188 201.405273438 510.68359375 272.991210938 510.68359375 c 0xbc
289.991210938 342.68359375 m 0
 264.034179688 342.68359375 241.877929688 333.505859375 223.5234375 315.151367188 c 0
 205.168945312 296.796875 195.991210938 274.641601562 195.991210938 248.68359375 c 0
 195.991210938 222.725585938 205.168945312 200.5703125 223.5234375 182.215820312 c 0
 241.877929688 163.861328125 264.034179688 154.68359375 289.991210938 154.68359375 c 0xbc
 315.94921875 154.68359375 338.10546875 163.861328125 356.459960938 182.215820312 c 0
 374.814453125 200.5703125 383.991210938 222.725585938 383.991210938 248.68359375 c 0
 383.991210938 274.641601562 374.814453125 296.796875 356.459960938 315.151367188 c 0
 338.10546875 333.505859375 315.94921875 342.68359375 289.991210938 342.68359375 c 0
EndSplineSet
EndChar

StartChar: h
Encoding: 104 104 33
GlifName: h
Width: 586
Flags: W
HStem: 0 21G<50 220 373 543> 342 170<242.824 350.529> 680 20G<50 220>
VStem: 50 170<0 319.654 474.902 700> 373 170<0 319.436>
LayerCount: 2
Fore
SplineSet
543 0 m 1
 373 0 l 1
 373 263.7109375 l 2
 373 287.016601562 365.659179688 305.890625 350.978515625 320.333984375 c 0
 336.296875 334.778320312 318.137695312 342 296.5 342 c 0
 274.862304688 342 256.703125 334.778320312 242.021484375 320.333984375 c 0
 227.340820312 305.890625 220 287.016601562 220 263.7109375 c 2
 220 0 l 5
 50 0 l 5
 50 700 l 1
 220 700 l 1
 220 474.90234375 l 1
 224.454101562 478.7421875 229.12109375 482.284179688 234 485.528320312 c 0
 260.54296875 503.17578125 293.375976562 512 332.5 512 c 0
 398.833007812 512 450.5 488.166992188 487.5 440.5 c 0
 524.5 392.833007812 543 331.333007812 543 256 c 2
 543 0 l 1
EndSplineSet
EndChar

StartChar: i
Encoding: 105 105 34
GlifName: i
Width: 296
Flags: W
HStem: 0 21G<63 233> 480 20G<63 233> 548 200<86.0244 209.976>
VStem: 48 200<586.024 709.976> 63 170<0 500>
LayerCount: 2
Fore
SplineSet
63 0 m 1xe8
 63 500 l 1
 233 500 l 1
 233 0 l 1
 63 0 l 1xe8
248 648 m 0xf0
 248 620.666992188 238.166992188 597.166992188 218.5 577.5 c 0
 198.833007812 557.833007812 175.333007812 548 148 548 c 0
 120.666992188 548 97.1669921875 557.833007812 77.5 577.5 c 0
 57.8330078125 597.166992188 48 620.666992188 48 648 c 0
 48 675.333007812 57.8330078125 698.833007812 77.5 718.5 c 0
 97.1669921875 738.166992188 120.666992188 748 148 748 c 0
 175.333007812 748 198.833007812 738.166992188 218.5 718.5 c 0
 238.166992188 698.833007812 248 675.333007812 248 648 c 0xf0
EndSplineSet
EndChar

StartChar: j
Encoding: 106 106 35
GlifName: j
Width: 278
Flags: W
HStem: 480 20G<42 212> 542 206<63.6924 190.308>
VStem: 24 206<581.692 708.308> 42 170<-5.90619 500>
LayerCount: 2
Fore
SplineSet
42 500 m 1xd0
 212 500 l 1
 212 54 l 2
 212 -20 185.666992188 -83.3330078125 133 -136 c 0
 80.3330078125 -188.666992188 17 -215 -57 -215 c 1
 -57 -45 l 1
 -29.6669921875 -45 -6.3330078125 -35.3330078125 13 -16 c 0
 32.3330078125 3.3330078125 42 26.6669921875 42 54 c 2
 42 500 l 1xd0
230 645 m 0xe0
 230 616.333007812 220 592 200 572 c 0
 180 552 155.666992188 542 127 542 c 0
 98.3330078125 542 74 552 54 572 c 0
 34 592 24 616.333007812 24 645 c 0
 24 673.666992188 34 698 54 718 c 0
 74 738 98.3330078125 748 127 748 c 0
 155.666992188 748 180 738 200 718 c 0
 220 698 230 673.666992188 230 645 c 0xe0
EndSplineSet
EndChar

StartChar: k
Encoding: 107 107 36
GlifName: k
Width: 594
Flags: W
HStem: 0 21G<48 218 355.377 581> 480 20G<335.097 581> 680 20G<48 218>
VStem: 48 170<0 95.3447 349.185 700>
LayerCount: 2
Fore
SplineSet
48 0 m 5
 48 700 l 1
 218 700 l 1
 218 349.184570312 l 1
 353 500 l 1
 581 500 l 1
 379.10546875 274.9375 l 1
 581 0 l 1
 370 0 l 1
 263.338867188 145.885742188 l 1
 218 95.3447265625 l 1
 218 0 l 5
 48 0 l 5
EndSplineSet
EndChar

StartChar: l
Encoding: 108 108 37
GlifName: l
Width: 266
Flags: W
HStem: 0 21G<48 218> 680 20G<48 218>
VStem: 48 170<0 700>
LayerCount: 2
Fore
SplineSet
48 700 m 1
 218 700 l 1
 218 0 l 1
 48 0 l 1
 48 700 l 1
EndSplineSet
EndChar

StartChar: m
Encoding: 109 109 38
GlifName: m
Width: 907
Flags: W
HStem: 0 21G<48 218 371 541 694 864> 342 170<240.431 348.529 563.999 671.529> 480 20G<48 206>
VStem: 48 170<0 319.654> 371 170<0 319.654> 694 170<0 319.436>
CounterMasks: 1 1c
LayerCount: 2
Fore
SplineSet
864 0 m 1xdc
 694 0 l 1
 694 263.7109375 l 2
 694 287.016601562 686.659179688 305.890625 671.978515625 320.333984375 c 0
 657.296875 334.778320312 639.137695312 342 617.5 342 c 0
 595.862304688 342 577.703125 334.778320312 563.021484375 320.333984375 c 0
 548.340820312 305.890625 541 287.016601562 541 263.7109375 c 5
 541 0 l 5
 371 0 l 1
 371 263.7109375 l 2
 371 287.016601562 363.659179688 305.890625 348.978515625 320.333984375 c 0
 334.296875 334.778320312 316.137695312 342 294.5 342 c 0xdc
 272.862304688 342 254.703125 334.778320312 240.021484375 320.333984375 c 0
 225.340820312 305.890625 218 287.016601562 218 263.7109375 c 2
 218 0 l 1
 48 0 l 1
 48 500 l 1
 206 500 l 1xbc
 206 463.278320312 l 1
 208.891601562 466.416992188 211.891601562 469.405273438 215 472.240234375 c 0
 244.051757812 498.747070312 282.551757812 512 330.5 512 c 0
 396.833007812 512 448.5 488.166992188 485.5 440.5 c 0
 488.577148438 436.536132812 491.525390625 432.4765625 494.346679688 428.322265625 c 1
 497.099609375 432.65625 499.984375 436.8828125 503 441 c 0
 537.666992188 488.333007812 587.833007812 512 653.5 512 c 0
 719.833007812 512 771.5 488.166992188 808.5 440.5 c 0
 845.5 392.833007812 864 331.333007812 864 256 c 2
 864 0 l 1xdc
EndSplineSet
EndChar

StartChar: n
Encoding: 110 110 39
GlifName: n
Width: 584
Flags: W
HStem: 0 21G<48 218 371 541> 342 170<240.592 348.529> 480 20G<48 206>
VStem: 48 170<0 319.654> 371 170<0 319.436>
LayerCount: 2
Fore
SplineSet
541 0 m 1xd8
 371 0 l 1
 371 263.7109375 l 2
 371 287.016601562 363.659179688 305.890625 348.978515625 320.333984375 c 0
 334.296875 334.778320312 316.137695312 342 294.5 342 c 0xd8
 272.862304688 342 254.703125 334.778320312 240.021484375 320.333984375 c 0
 225.340820312 305.890625 218 287.016601562 218 263.7109375 c 2
 218 0 l 1
 48 0 l 1
 48 500 l 1
 206 500 l 1xb8
 206 463.278320312 l 1
 211.594726562 469.3515625 217.594726562 474.857421875 224 479.795898438 c 4
 251.84765625 501.265625 287.34765625 512 330.5 512 c 0
 396.833007812 512 448.5 488.166992188 485.5 440.5 c 0
 522.5 392.833007812 541 331.333007812 541 256 c 2
 541 0 l 1xd8
EndSplineSet
EndChar

StartChar: o
Encoding: 111 111 40
GlifName: o
Width: 570
Flags: W
HStem: -12 170<226.222 343.778> 342 170<226.222 343.778>
VStem: 23 170<191.222 308.778> 377 170<191.222 308.778>
LayerCount: 2
Fore
SplineSet
285 342 m 0
 259.594726562 342 237.91015625 333.017578125 219.946289062 315.053710938 c 0
 201.982421875 297.08984375 193 275.405273438 193 250 c 0
 193 224.594726562 201.982421875 202.91015625 219.946289062 184.946289062 c 0
 237.91015625 166.982421875 259.594726562 158 285 158 c 0
 310.405273438 158 332.08984375 166.982421875 350.053710938 184.946289062 c 0
 368.017578125 202.91015625 377 224.594726562 377 250 c 0
 377 275.405273438 368.017578125 297.08984375 350.053710938 315.053710938 c 0
 332.08984375 333.017578125 310.405273438 342 285 342 c 0
285 512 m 0
 357.348632812 512 419.102539062 486.420898438 470.26171875 435.26171875 c 0
 521.420898438 384.102539062 547 322.348632812 547 250 c 0
 547 177.651367188 521.420898438 115.897460938 470.26171875 64.73828125 c 0
 419.102539062 13.5791015625 357.348632812 -12 285 -12 c 0
 212.651367188 -12 150.897460938 13.5791015625 99.73828125 64.73828125 c 0
 48.5791015625 115.897460938 23 177.651367188 23 250 c 0
 23 322.348632812 48.5791015625 384.102539062 99.73828125 435.26171875 c 0
 150.897460938 486.420898438 212.651367188 512 285 512 c 0
EndSplineSet
EndChar

StartChar: p
Encoding: 112 112 41
GlifName: p
Width: 607
Flags: W
HStem: -12 168<256.943 376.675> 344 168<257.008 376.675>
VStem: 53 170<189.653 310.347> 411 173<190.234 309.766>
LayerCount: 2
Fore
SplineSet
201 500 m 1
 53 500 l 1
 53 -200 l 1
 223 -200 l 1
 223 20.404296875 l 1
 225.629882812 18.6083984375 228.295898438 16.8876953125 231 15.2412109375 c 4
 260.823242188 -2.919921875 295.15625 -12 334 -12 c 0
 405.333007812 -12 464.833007812 13.3330078125 512.5 64 c 0
 560.166992188 114.666992188 584 176.666992188 584 250 c 0
 584 323.333007812 560.166992188 385.333007812 512.5 436 c 0
 464.833007812 486.666992188 405.333007812 512 334 512 c 0
 288.895507812 512 250.561523438 501.560546875 219 480.681640625 c 0
 212.733398438 476.536132812 206.733398438 471.979492188 201 467.010742188 c 1
 201 500 l 1
317 156 m 0
 291 156 268.833007812 165.166992188 250.5 183.5 c 0
 232.166992188 201.833007812 223 224 223 250 c 0
 223 276 232.166992188 298.166992188 250.5 316.5 c 0
 268.833007812 334.833007812 291 344 317 344 c 0
 343 344 365.166992188 334.833007812 383.5 316.5 c 0
 401.833007812 298.166992188 411 276 411 250 c 0
 411 224 401.833007812 201.833007812 383.5 183.5 c 0
 365.166992188 165.166992188 343 156 317 156 c 0
EndSplineSet
EndChar

StartChar: q
Encoding: 113 113 42
GlifName: q
Width: 602
Flags: W
HStem: -200 21G<384 554> -12 168<230.325 349.86> 344 168<230.325 349.825> 480 20G<406 554>
VStem: 23 173<190.234 309.766> 384 170<-200 20.4043 189.653 310.347>
LayerCount: 2
Fore
SplineSet
406 500 m 1xdc
 554 500 l 1xdc
 554 -200 l 1
 384 -200 l 1
 384 20.404296875 l 1
 376.934570312 15.5791015625 369.600585938 11.29296875 362 7.5458984375 c 4
 335.569335938 -5.484375 305.90234375 -12 273 -12 c 0
 201.666992188 -12 142.166992188 13.3330078125 94.5 64 c 0
 46.8330078125 114.666992188 23 176.666992188 23 250 c 0
 23 323.333007812 46.8330078125 385.333007812 94.5 436 c 0
 142.166992188 486.666992188 201.666992188 512 273 512 c 0xec
 315.749023438 512 352.416015625 502.622070312 383 483.8671875 c 0
 391.092773438 478.905273438 398.758789062 473.286132812 406 467.010742188 c 1
 406 500 l 1xdc
290 156 m 0
 316 156 338.166992188 165.166992188 356.5 183.5 c 0
 374.833007812 201.833007812 384 224 384 250 c 0
 384 276 374.833007812 298.166992188 356.5 316.5 c 0
 338.166992188 334.833007812 316 344 290 344 c 0xec
 264 344 241.833007812 334.833007812 223.5 316.5 c 0
 205.166992188 298.166992188 196 276 196 250 c 0
 196 224 205.166992188 201.833007812 223.5 183.5 c 0
 241.833007812 165.166992188 264 156 290 156 c 0
EndSplineSet
EndChar

StartChar: r
Encoding: 114 114 43
GlifName: r
Width: 413
Flags: W
HStem: 0 21G<48 218> 342 170<301.72 395> 480 20G<48 206>
VStem: 48 170<0 261.541>
LayerCount: 2
Fore
SplineSet
48 500 m 1xb0
 206 500 l 1xb0
 206 434.62890625 l 1
 210.422851562 439.504882812 215.088867188 444.188476562 220 448.6796875 c 0
 234.529296875 461.96875 251.196289062 473.576171875 270 483.5 c 0
 306 502.5 347.666992188 512 395 512 c 1
 395 342 l 1xd0
 351 342 313.333007812 331 282 309 c 0
 250.666992188 287 229.333007812 252.333007812 218 205 c 5
 218 0 l 1
 48 0 l 1
 48 500 l 1xb0
EndSplineSet
EndChar

StartChar: s
Encoding: 115 115 44
GlifName: s
Width: 455
Flags: W
HStem: -12 151<156.21 248.868>
LayerCount: 2
Fore
SplineSet
421.999023438 397 m 1
 262.999023438 342 l 1
 259.90625 349.561523438 255.572265625 355.172851562 249.999023438 358.8359375 c 0
 244.760742188 362.278320312 238.427734375 364 230.999023438 364 c 0
 222.33203125 364 215.33203125 362 209.999023438 358 c 0
 204.666015625 354 202.33203125 349 202.999023438 343 c 0
 204.427734375 331.793945312 219.49609375 325.213867188 248.206054688 323.258789062 c 0
 262.850585938 322.26171875 271.615234375 321.508789062 274.499023438 321 c 0
 309.803710938 314.774414062 339.403320312 301.984375 363.298828125 282.627929688 c 0
 405.93359375 248.090820312 427.166992188 203.547851562 426.999023438 149 c 0
 426.0390625 93.2861328125 403.705078125 50.384765625 359.999023438 20.2958984375 c 0
 328.724609375 -1.234375 285.724609375 -12 230.999023438 -12 c 0
 184.999023438 -11.3330078125 142.999023438 -1.5 104.999023438 17.5 c 0
 66.9990234375 36.5 41.33203125 65 27.9990234375 103 c 1
 188.999023438 161 l 1
 195.666015625 146.333007812 206.999023438 139 222.999023438 139 c 0
 234.028320312 139 242.028320312 140.692382812 246.999023438 144.078125 c 0
 251.642578125 147.241210938 253.642578125 151.881835938 252.999023438 158 c 0
 251.7265625 168.096679688 231.068359375 175.049804688 191.024414062 178.857421875 c 0
 183.24609375 179.596679688 177.404296875 180.311523438 173.499023438 181 c 0
 127.119140625 189.178710938 92.15234375 208.395507812 68.599609375 238.650390625 c 0
 45.0478515625 268.905273438 32.84765625 304.35546875 31.9990234375 345 c 0
 31.9990234375 399 51.666015625 440.166992188 90.9990234375 468.5 c 0
 130.33203125 496.833007812 175.999023438 511.333007812 227.999023438 512 c 0
 277.838867188 512.34375 319.171875 502.3203125 351.999023438 481.9296875 c 0
 382.841796875 462.771484375 406.174804688 434.461914062 421.999023438 397 c 1
EndSplineSet
EndChar

StartChar: t
Encoding: 116 116 45
GlifName: t
Width: 399
Flags: W
HStem: 0 170<277.596 371> 330 170<13 88 258 371>
VStem: 88 170<189.596 330 500 656>
LayerCount: 2
Fore
SplineSet
88 656 m 1
 258 656 l 1
 258 500 l 1
 371 500 l 1
 371 330 l 1
 258 330 l 1
 258 235 l 2
 258 217 264.333007812 201.666992188 277 189 c 0
 289.666992188 176.333007812 305 170 323 170 c 2
 371 170 l 1
 371 0 l 1
 323 0 l 2
 258.333007812 0 203 23 157 69 c 0
 111 115 88 170.333007812 88 235 c 2
 88 330 l 1
 13 330 l 1
 13 500 l 1
 88 500 l 1
 88 656 l 1
EndSplineSet
EndChar

StartChar: u
Encoding: 117 117 46
GlifName: u
Width: 579
Flags: W
HStem: -12 170<236.456 342.544> 480 20G<43 213 366 536>
VStem: 43 170<180.346 500> 366 170<180.346 500>
LayerCount: 2
Fore
SplineSet
43 500 m 1
 213 500 l 1
 213 236.2890625 l 2
 213 212.983398438 220.340820312 194.109375 235.021484375 179.666015625 c 0
 249.703125 165.221679688 267.862304688 158 289.5 158 c 0
 311.137695312 158 329.296875 165.221679688 343.978515625 179.666015625 c 0
 358.659179688 194.109375 366 212.983398438 366 236.2890625 c 2
 366 500 l 1
 536 500 l 1
 536 244 l 2
 536 172 512 111.333007812 464 62 c 0
 416 12.6669921875 357.833007812 -12 289.5 -12 c 0
 221.166992188 -12 163 12.6669921875 115 62 c 0
 67 111.333007812 43 172 43 244 c 2
 43 500 l 1
EndSplineSet
EndChar

StartChar: v
Encoding: 118 118 47
GlifName: v
Width: 590
Flags: W
HStem: 0 21G<195.68 393.84> 480 20G<8 197.84 392.14 582>
LayerCount: 2
Fore
SplineSet
8 500 m 1
 190 500 l 1
 294.866210938 232.484375 l 1
 400 500 l 1
 582 500 l 1
 386 0 l 1
 203.5 0 l 1
 8 500 l 1
EndSplineSet
EndChar

StartChar: w
Encoding: 119 119 48
GlifName: w
Width: 852
Flags: W
HStem: 0 21G<168.04 359.48 492.04 683.48> 480 20G<13 197.48 330.5 521.48 654.5 839>
VStem: 13 178<322 500> 661 178<322 500>
LayerCount: 2
Fore
SplineSet
661 500 m 1
 839 500 l 1
 677 0 l 1
 498.5 0 l 1
 425.862304688 224.883789062 l 1
 353 0 l 1
 174.5 0 l 1
 13 500 l 1
 191 500 l 1
 263.887695312 275.038085938 l 1
 337 500 l 1
 515 500 l 1
 587.887695312 275.038085938 l 1
 661 500 l 1
EndSplineSet
EndChar

StartChar: x
Encoding: 120 120 49
GlifName: x
Width: 565
Flags: W
HStem: 0 21G<13 232.32 333.64 552> 480 20G<13 230.4 334.6 552>
LayerCount: 2
Fore
SplineSet
282.904296875 95.9521484375 m 1
 219 0 l 1
 13 0 l 1
 180.25 249.625976562 l 1
 13 500 l 1
 217 500 l 1
 282.5 402.239257812 l 1
 348 500 l 1
 552 500 l 1
 385.001953125 249.251953125 l 1
 552 0 l 1
 347 0 l 1
 282.904296875 95.9521484375 l 1
EndSplineSet
EndChar

StartChar: y
Encoding: 121 121 50
GlifName: y
Width: 622
Flags: W
HStem: -212 170<93 212.758> 480 20G<5 199.946 424.605 617>
LayerCount: 2
Fore
SplineSet
5 500 m 1
 191 500 l 1
 315.845703125 220.900390625 l 1
 433 500 l 1
 617 500 l 1
 375.115234375 -77.76953125 l 2
 356.690429688 -118.618164062 328.10546875 -151.182617188 289.360351562 -175.462890625 c 0
 250.615234375 -199.743164062 208.495117188 -211.921875 163 -212 c 2
 93 -212 l 1
 93 -42 l 1
 163 -42 l 2
 177.051757812 -41.9501953125 188.717773438 -39.3349609375 198 -34.15234375 c 0
 207.465820312 -28.8681640625 214.451171875 -20.9140625 218.956054688 -10.291015625 c 2
 225.751953125 5.736328125 l 1
 5 500 l 1
EndSplineSet
EndChar

StartChar: z
Encoding: 122 122 51
GlifName: z
Width: 454
Flags: W
HStem: 0 170<266.5 431> 330 170<23 187.5>
VStem: 23 408<0 170 330 500>
LayerCount: 2
Fore
SplineSet
23 0 m 1
 23 170 l 1
 187.5 330 l 1
 23 330 l 1
 23 500 l 1
 431 500 l 1
 431 330 l 1
 266.5 170 l 1
 431 170 l 1
 431 0 l 1
 23 0 l 1
EndSplineSet
EndChar

StartChar: bracketleft
Encoding: 91 91 52
GlifName: bracketleft
Width: 368
Flags: W
VStem: 63 262<-28.2006 51 648 727.201>
LayerCount: 2
Fore
SplineSet
214 799 m 6
 172 799 136.333007812 784.333007812 107 755 c 4
 77.6669921875 725.666992188 63 690 63 648 c 6
 63 51 l 6
 63 9 77.6669921875 -26.6669921875 107 -56 c 4
 136.333007812 -85.3330078125 172 -100 214 -100 c 6
 325 -100 l 5
 325 70 l 5
 234 70 l 6
 233.333007812 70 233 70.3330078125 233 71 c 6
 233 628 l 6
 233 628.666992188 233.333007812 629 234 629 c 6
 325 629 l 5
 325 799 l 5
 214 799 l 6
EndSplineSet
EndChar

StartChar: backslash
Encoding: 92 92 53
GlifName: backslash
Width: 455
Flags: W
LayerCount: 2
Fore
SplineSet
179.2578125 747 m 5
 17.80859375 693.76171875 l 5
 275.552734375 -87.861328125 l 5
 437 -34.62109375 l 5
 179.2578125 747 l 5
EndSplineSet
EndChar

StartChar: bracketright
Encoding: 93 93 54
GlifName: bracketright
Width: 368
Flags: W
HStem: -100 170<43 135> 629 170<43 135>
VStem: 43 262<-28.2006 70 629 727.201> 135 170<70 629>
LayerCount: 2
Fore
SplineSet
154 799 m 6xe0
 196 799 231.666992188 784.333007812 261 755 c 4
 290.333007812 725.666992188 305 690 305 648 c 6
 305 51 l 6
 305 9 290.333007812 -26.6669921875 261 -56 c 4
 231.666992188 -85.3330078125 196 -100 154 -100 c 6
 43 -100 l 5
 43 70 l 5xe0
 134 70 l 6
 134.666992188 70 135 70.3330078125 135 71 c 6
 135 628 l 6xd0
 135 628.666992188 134.666992188 629 134 629 c 6
 43 629 l 5
 43 799 l 5
 154 799 l 6xe0
EndSplineSet
EndChar

StartChar: asciicircum
Encoding: 94 94 55
GlifName: asciicircum
Width: 617
Flags: W
HStem: 373 327<402 403>
LayerCount: 2
Fore
SplineSet
357 373 m 1
 220 700 l 1
 403 700 l 1
 544 373 l 1
 357 373 l 1
73 373 m 1
 220 700 l 1
 402 700 l 1
 260 373 l 1
 73 373 l 1
EndSplineSet
EndChar

StartChar: underscore
Encoding: 95 95 56
GlifName: underscore
Width: 466
Flags: W
HStem: -170 170<23 443>
LayerCount: 2
Fore
SplineSet
23 -170 m 1
 23 0 l 1
 443 0 l 1
 443 -170 l 1
 23 -170 l 1
EndSplineSet
EndChar

StartChar: grave
Encoding: 96 96 57
GlifName: grave
Width: 308
Flags: W
HStem: 554 147<132 202>
VStem: 6 302
LayerCount: 2
Fore
SplineSet
132 554 m 5
 6 701 l 5
 202 701 l 5
 308 554 l 5
 132 554 l 5
EndSplineSet
EndChar

StartChar: zero
Encoding: 48 48 58
GlifName: zero
Width: 644
Flags: W
HStem: -12 169.516<253.666 390.334> 542.484 169.516<253.666 390.335>
VStem: 28 169.516<225.506 474.494> 446.484 169.516<225.506 474.494>
LayerCount: 2
Fore
SplineSet
322 542.484375 m 0
 298.5546875 542.484375 278.415039062 537.185546875 261.58203125 526.586914062 c 0
 244.748046875 515.98828125 231.84765625 501.270507812 222.880859375 482.43359375 c 0
 213.9140625 463.595703125 207.4453125 443.360351562 203.473632812 421.728515625 c 0
 199.501953125 400.096679688 197.515625 376.186523438 197.515625 350 c 0
 197.515625 323.813476562 199.501953125 299.903320312 203.473632812 278.271484375 c 0
 207.4453125 256.639648438 213.9140625 236.404296875 222.880859375 217.56640625 c 0
 231.84765625 198.729492188 244.748046875 184.01171875 261.58203125 173.413085938 c 0
 278.415039062 162.814453125 298.5546875 157.515625 322 157.515625 c 0
 345.4453125 157.515625 365.584960938 162.814453125 382.41796875 173.413085938 c 0
 399.251953125 184.01171875 412.15234375 198.729492188 421.119140625 217.56640625 c 0
 430.0859375 236.404296875 436.5546875 256.639648438 440.526367188 278.271484375 c 0
 444.498046875 299.903320312 446.484375 323.813476562 446.484375 350 c 0
 446.484375 376.186523438 444.499023438 400.096679688 440.52734375 421.728515625 c 0
 436.555664062 443.360351562 430.0859375 463.595703125 421.119140625 482.43359375 c 0
 412.153320312 501.271484375 399.252929688 515.989257812 382.418945312 526.586914062 c 0
 365.584960938 537.185546875 345.4453125 542.484375 322 542.484375 c 0
322 712 m 0
 368.04296875 712 409.944335938 702.088867188 447.703125 682.266601562 c 0
 518.752929688 644.96875 568.322265625 579.815429688 596.411132812 486.80859375 c 0
 609.470703125 443.568359375 616 397.965820312 616 350 c 0
 616 302.034179688 609.470703125 256.431640625 596.411132812 213.19140625 c 0
 568.322265625 120.184570312 518.752929688 55.03125 447.703125 17.7333984375 c 0
 409.944335938 -2.0888671875 368.04296875 -12 322 -12 c 0
 275.95703125 -12 234.055664062 -2.0888671875 196.296875 17.7333984375 c 0
 125.247070312 55.03125 75.677734375 120.184570312 47.5888671875 213.19140625 c 0
 34.529296875 256.431640625 28 302.034179688 28 350 c 0
 28 397.965820312 34.529296875 443.568359375 47.5888671875 486.80859375 c 0
 75.677734375 579.815429688 125.247070312 644.96875 196.296875 682.266601562 c 0
 234.055664062 702.088867188 275.95703125 712 322 712 c 0
EndSplineSet
EndChar

StartChar: one
Encoding: 49 49 59
GlifName: one
Width: 490
Flags: W
HStem: 0 21G<237 407> 680 20G<213.165 407>
VStem: 237 170<0 478.081>
LayerCount: 2
Fore
SplineSet
237 700 m 1
 407 700 l 1
 407 0 l 1
 237 0 l 1
 237 478.081054688 l 1
 147.102539062 402.647460938 l 1
 37.828125 532.875 l 1
 237 700 l 1
EndSplineSet
EndChar

StartChar: two
Encoding: 50 50 60
GlifName: two
Width: 530
Flags: W
HStem: 0 170<273.644 495.2> 543 170<215.837 306.289>
VStem: 326.993 170.007<431.127 526.614>
LayerCount: 2
Fore
SplineSet
254.700195312 713 m 0
 319.313476562 713 375.850585938 690.237304688 424.310546875 644.7109375 c 0
 472.770507812 599.185546875 497 544.782226562 497 481.5 c 0
 496.770507812 412.108398438 474.77734375 356.407226562 431.022460938 314.39453125 c 2
 273.643554688 170 l 1
 495.200195312 170 l 1
 495.200195312 0 l 1
 23.2001953125 0 l 1
 23.2001953125 170 l 1
 301.909179688 426.28125 l 2
 318.631835938 443.00390625 326.993164062 461.41015625 326.993164062 481.5 c 0
 326.993164062 500.373046875 320.301757812 515.357421875 306.91796875 526.453125 c 0
 293.53515625 537.547851562 278.12890625 543.063476562 260.700195312 543 c 0
 243.521484375 542.936523438 228.361328125 537.802734375 215.219726562 527.596679688 c 0
 202.077148438 517.390625 194.75 503.42578125 193.237304688 485.702148438 c 1
 26.3603515625 518.140625 l 1
 35.3515625 574.233398438 61.453125 620.717773438 104.666992188 657.594726562 c 0
 147.879882812 694.471679688 197.890625 712.940429688 254.700195312 713 c 0
EndSplineSet
EndChar

StartChar: three
Encoding: 51 51 61
GlifName: three
Width: 523
Flags: W
HStem: -9.875 169.975<199.608 305.442> 502.371 21G<110.594 192.197> 542 170<204.572 303.111>
VStem: 320 170<173.644 254.35 452.917 528.205>
LayerCount: 2
Fore
SplineSet
256.5 712 m 0
 319.833007812 712 374.166992188 690.833007812 419.5 648.5 c 0
 464.833007812 606.166992188 487.5 555 487.5 495 c 0
 487.479492188 470.2265625 479.947265625 443.893554688 464.901367188 416 c 0
 454.225585938 396.20703125 439.766601562 375.62890625 421.525390625 354.265625 c 1
 439.052734375 334.280273438 453.21484375 314.858398438 464.012695312 296 c 0
 481.326171875 265.760742188 489.989257812 236.96875 490 209.625 c 0
 490 149.17578125 467.030273438 97.455078125 421.090820312 54.4638671875 c 0
 375.15234375 11.47265625 320.288085938 -9.9736328125 256.5 -9.875 c 0
 201.96484375 -9.791015625 152.342773438 6.2666015625 107.633789062 38.2978515625 c 0
 62.923828125 70.328125 34.865234375 110.848632812 23.45703125 159.857421875 c 1
 188.837890625 199.215820312 l 1
 192.399414062 185.92578125 200.80078125 176.083984375 214.041992188 169.690429688 c 0
 227.284179688 163.296875 242.103515625 160.099609375 258.5 160.099609375 c 0
 274.009765625 160.099609375 288.137695312 165.150390625 300.8828125 175.252929688 c 0
 313.627929688 185.35546875 320 198.146484375 320 213.625 c 0
 320 230.033203125 314.243164062 243.2890625 302.73046875 253.391601562 c 0
 291.217773438 263.494140625 275.807617188 268.545898438 256.5 268.545898438 c 2
 222.5 268.545898438 l 1
 222.5 438.545898438 l 1
 256.5 438.545898438 l 2
 274.666992188 438.545898438 289.375 443.579101562 300.625 453.646484375 c 0
 311.875 463.713867188 317.5 476.831054688 317.5 493 c 0
 317.5 508.333007812 311.333007812 520.333007812 299 529 c 0
 286.666992188 537.666992188 272.5 542 256.5 542 c 0
 235.80078125 542 219.80078125 537.826171875 208.5 529.477539062 c 0
 199.698242188 522.974609375 193.747070312 513.938476562 190.647460938 502.37109375 c 1
 25.716796875 543.576171875 l 1
 36.8837890625 592.197265625 64.626953125 632.422851562 108.9453125 664.25390625 c 0
 153.262695312 696.084960938 202.448242188 712 256.5 712 c 0
EndSplineSet
EndChar

StartChar: four
Encoding: 52 52 62
GlifName: four
Width: 611
Flags: W
HStem: 0 21G<321 491> 108 170<200.23 321 491 578> 680.439 20G<206.436 258.939>
VStem: 321 170<0 108 278 465>
LayerCount: 2
Fore
SplineSet
216.048828125 700.439453125 m 1
 370.12109375 628.59375 l 1
 200.23046875 278 l 1
 321 278 l 1
 321 465 l 1
 491 465 l 1
 491 278 l 1
 578 278 l 1
 578 108 l 1
 491 108 l 1
 491 0 l 1
 321 0 l 1
 321 108 l 1
 13 108 l 1
 13 278 l 1
 216.048828125 700.439453125 l 1
EndSplineSet
EndChar

StartChar: five
Encoding: 53 53 63
GlifName: five
Width: 547
Flags: W
HStem: -12 170<207.86 325.077> 530 170<252.816 472.816>
VStem: 344 170<176.665 269.796>
LayerCount: 2
Fore
SplineSet
82.81640625 700 m 1
 472.81640625 700 l 1
 472.81640625 530 l 1
 252.81640625 530 l 1
 252.81640625 460 l 1
 279 460 l 2
 343.666992188 460 399 436.833007812 445 390.5 c 0
 491 344.166992188 514 288.333007812 514 223 c 0
 514 158.333007812 491 103 445 57 c 0
 399 11 343.666992188 -12 279 -12 c 0
 217.240234375 -11.9423828125 164.362304688 3.828125 120.365234375 35.310546875 c 0
 76.3681640625 66.79296875 47.185546875 108.36328125 32.81640625 160.021484375 c 1
 200.233398438 189.541015625 l 1
 212.295898438 168.513671875 237.217773438 158 275 158 c 0
 295.666992188 158 312.333007812 164.166992188 325 176.5 c 0
 337.666992188 188.833007812 344 204.333007812 344 223 c 0
 344 241 337.666992188 256.666992188 325 270 c 0
 312.333007812 283.333007812 297 290 279 290 c 2
 82.81640625 290 l 1
 82.81640625 700 l 1
EndSplineSet
EndChar

StartChar: six
Encoding: 54 54 64
GlifName: six
Width: 555
Flags: W
HStem: -12 170<225.486 329.514> 692 20G<260.508 467.848>
VStem: 33 170<180.486 285.281> 352 170<180.486 284.17>
LayerCount: 2
Fore
SplineSet
277.5 306.994140625 m 0
 256.510742188 306.994140625 238.846679688 299.825195312 224.5078125 285.48828125 c 0
 210.168945312 271.151367188 203 253.489257812 203 232.5 c 0
 203 211.510742188 210.168945312 193.846679688 224.5078125 179.5078125 c 0
 238.846679688 165.168945312 256.510742188 158 277.5 158 c 0
 298.489257812 158 316.153320312 165.168945312 330.4921875 179.5078125 c 0
 344.831054688 193.846679688 352 211.510742188 352 232.5 c 0
 352 253.489257812 344.831054688 271.151367188 330.4921875 285.48828125 c 0
 316.153320312 299.825195312 298.489257812 306.994140625 277.5 306.994140625 c 0
272.017578125 712 m 1
 467.84765625 712 l 1
 324.69140625 464.4375 l 1
 333.166992188 463.205078125 341.436523438 461.564453125 349.5 459.514648438 c 0
 394.446289062 448.08984375 432.991210938 423.977539062 465.1328125 387.17578125 c 0
 503.040039062 343.771484375 521.99609375 292.212890625 522 232.5 c 0
 522 164.983398438 498.12890625 107.353515625 450.387695312 59.6123046875 c 0
 402.646484375 11.87109375 345.016601562 -12 277.5 -12 c 0
 209.983398438 -12 152.353515625 11.87109375 104.612304688 59.6123046875 c 0
 56.87109375 107.353515625 33 164.983398438 33 232.5 c 0
 33.2041015625 275.797851562 44.1396484375 316.19140625 65.8046875 353.6796875 c 2
 272.017578125 712 l 1
EndSplineSet
EndChar

StartChar: seven
Encoding: 55 55 65
GlifName: seven
Width: 579
Flags: W
HStem: 0 21G<111.283 308.184> 530 170<28 358.426>
LayerCount: 2
Fore
SplineSet
28 530 m 1
 28 700 l 1
 546 700 l 1
 546 530 l 1
 298.857421875 0 l 1
 111.283203125 0 l 1
 358.42578125 530 l 1
 28 530 l 1
EndSplineSet
EndChar

StartChar: eight
Encoding: 56 56 66
GlifName: eight
Width: 570
Flags: W
HStem: -12 164<225.79 344.21> 281.521 170<243.436 326.51> 546 166<239.008 330.964>
VStem: 33 169.873<172.027 260.758> 55.7148 169.896<463.712 534.206> 344.291 169.994<463.71 534.208> 367.127 169.873<172.027 260.758>
LayerCount: 2
Fore
SplineSet
285 281.520507812 m 0xf2
 262.823242188 281.520507812 243.590820312 275.461914062 227.303710938 263.344726562 c 0
 211.016601562 251.2265625 202.873046875 235.536132812 202.873046875 216.2734375 c 0
 202.873046875 197.06640625 210.9921875 181.552734375 227.229492188 169.731445312 c 0
 243.467773438 157.91015625 262.724609375 152 285 152 c 0
 307.275390625 152 326.532226562 157.91015625 342.770507812 169.731445312 c 0
 359.0078125 181.552734375 367.126953125 197.06640625 367.126953125 216.2734375 c 0
 367.126953125 235.536132812 358.983398438 251.2265625 342.696289062 263.344726562 c 0
 326.409179688 275.461914062 307.176757812 281.520507812 285 281.520507812 c 0xf2
285 546 m 0
 268.415039062 546 254.37109375 541.743164062 242.866210938 533.23046875 c 0
 231.362304688 524.717773438 225.610351562 513.286132812 225.610351562 498.935546875 c 0
 225.610351562 484.563476562 231.37109375 473.068359375 242.893554688 464.44921875 c 0
 254.416015625 455.830078125 268.452148438 451.520507812 285 451.520507812 c 0
 301.541015625 451.520507812 315.557617188 455.829101562 327.05078125 464.4453125 c 0
 338.543945312 473.0625 344.291015625 484.559570312 344.291015625 498.935546875 c 0xec
 344.291015625 513.291015625 338.553710938 524.723632812 327.078125 533.234375 c 0
 315.602539062 541.745117188 301.577148438 546 285 546 c 0
285 712 m 0
 351.291015625 712 406.078125 694.216796875 449.360351562 658.649414062 c 0
 492.643554688 623.08203125 514.28515625 576.8125 514.28515625 519.842773438 c 0xec
 514.28515625 462.873046875 492.643554688 416.604492188 449.360351562 381.037109375 c 0
 447.446289062 379.463867188 445.508789062 377.92578125 443.549804688 376.421875 c 1
 451.139648438 371.384765625 458.456054688 365.911132812 465.5 360 c 0
 513.166992188 320 537 268 537 204 c 0
 537 140 513.166992188 88 465.5 48 c 0
 417.833007812 8 357.666992188 -12 285 -12 c 0
 212.333007812 -12 152.166992188 8 104.5 48 c 0
 56.8330078125 88 33 140 33 204 c 0xf2
 33 268 56.8330078125 320 104.5 360 c 0
 111.543945312 365.911132812 118.860351562 371.384765625 126.450195312 376.421875 c 1
 124.491210938 377.92578125 122.553710938 379.463867188 120.639648438 381.037109375 c 0
 77.3564453125 416.604492188 55.71484375 462.873046875 55.71484375 519.842773438 c 0
 55.71484375 576.8125 77.3564453125 623.08203125 120.639648438 658.649414062 c 0
 163.921875 694.216796875 218.708984375 712 285 712 c 0
EndSplineSet
EndChar

StartChar: nine
Encoding: 57 57 67
GlifName: nine
Width: 555
Flags: W
HStem: 0 21G<77.1484 285.465> 542 170<225.536 329.456>
VStem: 32.9961 170<416.503 519.297> 351.996 170<415.186 519.297>
LayerCount: 2
Fore
SplineSet
277.49609375 393.005859375 m 0
 298.485351562 393.005859375 316.149414062 400.174804688 330.48828125 414.51171875 c 0
 344.827148438 428.848632812 351.99609375 446.510742188 351.99609375 467.5 c 0
 351.99609375 488.489257812 344.827148438 506.153320312 330.48828125 520.4921875 c 0
 316.149414062 534.831054688 298.485351562 542 277.49609375 542 c 0
 256.506835938 542 238.842773438 534.831054688 224.50390625 520.4921875 c 0
 210.165039062 506.153320312 202.99609375 488.489257812 202.99609375 467.5 c 0
 202.99609375 446.510742188 210.165039062 428.848632812 224.50390625 414.51171875 c 0
 238.842773438 400.174804688 256.506835938 393.005859375 277.49609375 393.005859375 c 0
272.978515625 0 m 1
 77.1484375 0 l 1
 230.3046875 235.5625 l 1
 221.765625 236.520507812 213.49609375 238.162109375 205.49609375 240.485351562 c 0
 160.829101562 252.162109375 122.28515625 276.274414062 89.86328125 312.82421875 c 0
 52.28515625 356.274414062 33.3291015625 407.833007812 32.99609375 467.5 c 0
 32.6630859375 535.166992188 56.533203125 592.795898438 104.608398438 640.387695312 c 0
 152.533203125 688.12890625 210.163085938 712 277.49609375 712 c 0
 344.829101562 712 402.458984375 688.12890625 450.383789062 640.387695312 c 0
 498.458984375 592.795898438 522.329101562 535.166992188 521.99609375 467.5 c 0
 521.663085938 424.5 510.727539062 384.106445312 489.19140625 346.3203125 c 2
 272.978515625 0 l 1
EndSplineSet
EndChar

StartChar: exclam
Encoding: 33 33 68
GlifName: exclam
Width: 332
Flags: W
HStem: -16 206<102.692 229.308> 680 20G<81 251>
VStem: 63 206<23.6924 150.308> 81 170<251 700>
LayerCount: 2
Fore
SplineSet
81 700 m 5xd0
 251 700 l 5
 251 251 l 5
 81 251 l 5
 81 700 l 5xd0
166 190 m 4
 194.666992188 190 219 180 239 160 c 4
 259 140 269 115.666992188 269 87 c 4
 269 58.3330078125 259 34 239 14 c 4
 219 -6 194.666992188 -16 166 -16 c 4
 137.333007812 -16 113 -6 93 14 c 4
 73 34 63 58.3330078125 63 87 c 4xe0
 63 115.666992188 73 140 93 160 c 4
 113 180 137.333007812 190 166 190 c 4
EndSplineSet
EndChar

StartChar: quotedbl
Encoding: 34 34 69
GlifName: quotedbl
Width: 554
Flags: W
HStem: 440 276<102.5 248.5 336.5 482.5>
VStem: 102.5 146<440 520.5> 336.5 146<440 520.5>
LayerCount: 2
Fore
SplineSet
312.5 716 m 1
 506.5 716 l 1
 482.5 440 l 1
 336.5 440 l 1
 312.5 716 l 1
78.5 716 m 1
 272.5 716 l 1
 248.5 440 l 1
 102.5 440 l 1
 78.5 716 l 1
EndSplineSet
EndChar

StartChar: numbersign
Encoding: 35 35 70
GlifName: numbersign
Width: 639
Flags: W
HStem: 0 21G<56.9258 233.075 291.92 468.069> 144 170<7.25 82.3174 284.916 317.312 519.909 597.266> 376 170<48.1562 123.226 325.824 358.22 560.816 618.172> 680 20G<176.829 352.979 411.823 587.971>
LayerCount: 2
Fore
SplineSet
415.349609375 700 m 1
 587.970703125 700 l 1
 560.81640625 546 l 1
 648.1484375 546 l 1
 618.171875 376 l 1
 530.840820312 376 l 1
 519.909179688 314 l 1
 627.240234375 314 l 1
 597.265625 144 l 1
 489.93359375 144 l 1
 464.54296875 0 l 1
 291.919921875 0 l 1
 317.311523438 144 l 1
 254.940429688 144 l 1
 229.548828125 0 l 1
 56.92578125 0 l 1
 82.3173828125 144 l 1
 -22.7265625 144 l 1
 7.25 314 l 1
 112.29296875 314 l 1
 123.225585938 376 l 1
 18.181640625 376 l 1
 48.15625 546 l 1
 153.201171875 546 l 1
 180.35546875 700 l 1
 352.978515625 700 l 1
 325.82421875 546 l 1
 388.1953125 546 l 1
 415.349609375 700 l 1
358.219726562 376 m 1
 295.848632812 376 l 1
 284.916015625 314 l 1
 347.287109375 314 l 1
 358.219726562 376 l 1
EndSplineSet
EndChar

StartChar: dollar
Encoding: 36 36 71
GlifName: dollar
Width: 560
Flags: W
HStem: -91 248.998<211.987 332.857> 507.826 21G<336.972 412.784> 542 249<229.596 332.397>
VStem: 189 170<-91 7.5555 690.278 791>
LayerCount: 2
Fore
SplineSet
189 791 m 1
 359 791 l 1
 359 698.71875 l 1
 380.635742188 691.330078125 401.060546875 680.859375 420.275390625 667.306640625 c 0
 462.517578125 637.51171875 489.954101562 599.040039062 502.583984375 551.890625 c 1
 338.150390625 507.826171875 l 1
 335.793945312 518.063476562 328.803710938 526.318359375 317.178710938 532.590820312 c 0
 305.553710938 538.86328125 291.827148438 542 276 542 c 0
 257.333007812 542 241.666992188 538 229 530 c 0
 216.333007812 522 210 510.666992188 210 496 c 0
 210 487.186523438 214.03125 479.381835938 222.09375 472.584960938 c 0
 234.767578125 461.899414062 257.403320312 453.704101562 290 448 c 0
 360 436 417 411 461 373 c 0
 505 335 527 283.666992188 527 219 c 0
 527 153.666992188 502.5 98.8330078125 453.5 54.5 c 0
 425.354492188 29.03515625 393.854492188 10.8837890625 359 0.0458984375 c 1
 359 -91 l 1
 189 -91 l 1
 189 1.7060546875 l 1
 165.251953125 9.6552734375 142.79296875 21.0625 121.623046875 35.9287109375 c 0
 76.1220703125 67.880859375 46.6435546875 109.00390625 33.1875 159.296875 c 1
 197.078125 203.212890625 l 1
 200.612304688 190.01953125 209.895507812 179.185546875 224.926757812 170.709960938 c 0
 239.958984375 162.235351562 256.983398438 157.998046875 276 157.998046875 c 0
 298.786132812 157.998046875 317.983398438 163.4921875 333.590820312 174.481445312 c 0
 349.198242188 185.470703125 357.001953125 200.309570312 357.001953125 219 c 0
 357.001953125 232.96484375 351.032226562 244.951171875 339.09375 254.958007812 c 0
 323.534179688 268 297.836914062 277.680664062 262 284 c 0
 197.333007812 295.333007812 144.166992188 318.5 102.5 353.5 c 0
 60.8330078125 388.5 40 436 40 496 c 0
 40 557.333007812 63 608.666992188 109 650 c 0
 133.029296875 671.590820312 159.6953125 687.54296875 189 697.85546875 c 1
 189 791 l 1
EndSplineSet
EndChar

StartChar: percent
Encoding: 37 37 72
GlifName: percent
Width: 937
Flags: W
HStem: -12 21G<299.824 342.391 682.667 735.333> 680 32G<201.667 254.333 596.996 639.563>
LayerCount: 2
Fore
SplineSet
709 368 m 4
 761.666992188 368 806.5 349.5 843.5 312.5 c 4
 880.5 275.5 899 230.666992188 899 178 c 4
 899 125.333007812 880.5 80.5 843.5 43.5 c 4
 806.5 6.5 761.666992188 -12 709 -12 c 4
 656.333007812 -12 611.5 6.5 574.5 43.5 c 4
 537.5 80.5 519 125.333007812 519 178 c 4
 519 230.666992188 537.5 275.5 574.5 312.5 c 4
 611.5 349.5 656.333007812 368 709 368 c 4
709 198 m 4
 703.666992188 198 699 196 695 192 c 4
 691 188 689 183.333007812 689 178 c 4
 689 172.666992188 691 168 695 164 c 4
 699 160 703.666992188 158 709 158 c 4
 714.333007812 158 719 160 723 164 c 4
 727 168 729 172.666992188 729 178 c 4
 729 183.333007812 727 188 723 192 c 4
 719 196 714.333007812 198 709 198 c 4
611 700 m 5
 750.255859375 602.4921875 l 5
 328.38671875 0 l 5
 189.130859375 97.5078125 l 5
 611 700 l 5
228 712 m 4
 280.666992188 712 325.5 693.5 362.5 656.5 c 4
 399.5 619.5 418 574.666992188 418 522 c 4
 418 469.333007812 399.5 424.5 362.5 387.5 c 4
 325.5 350.5 280.666992188 332 228 332 c 4
 175.333007812 332 130.5 350.5 93.5 387.5 c 4
 56.5 424.5 38 469.333007812 38 522 c 4
 38 574.666992188 56.5 619.5 93.5 656.5 c 4
 130.5 693.5 175.333007812 712 228 712 c 4
228 542 m 4
 222.666992188 542 218 540 214 536 c 4
 210 532 208 527.333007812 208 522 c 4
 208 516.666992188 210 512 214 508 c 4
 218 504 222.666992188 502 228 502 c 4
 233.333007812 502 238 504 242 508 c 4
 246 512 248 516.666992188 248 522 c 4
 248 527.333007812 246 532 242 536 c 4
 238 540 233.333007812 542 228 542 c 4
EndSplineSet
EndChar

StartChar: ampersand
Encoding: 38 38 73
GlifName: ampersand
Width: 635
Flags: W
HStem: -12 167.911<202.601 319.284> 0 21G<412 648>
VStem: 74.6875 171.512<460.726 531.645>
LayerCount: 2
Fore
SplineSet
240 -12 m 0xa0
 180.875976562 -12.01171875 131.510742188 5.9033203125 91.904296875 41.744140625 c 0
 52.2978515625 77.5849609375 32.7001953125 123.622070312 33.1103515625 179.85546875 c 0
 33.380859375 217.008789062 41.6650390625 253.985351562 57.962890625 290.786132812 c 0
 74.2607421875 327.586914062 97.1591796875 356.315429688 126.66015625 376.971679688 c 0
 155.805664062 397.379882812 194.501953125 420.500976562 242.749023438 446.3359375 c 4
 265.762695312 458.659179688 284.012695312 468.713867188 297.5 476.5 c 0
 313.166992188 485.544921875 321 496.200195312 321 508.46484375 c 0
 321 517.1796875 317.7578125 524.875976562 311.272460938 531.5546875 c 0
 304.788085938 538.233398438 295.65625 541.572265625 283.875976562 541.572265625 c 0
 271.95703125 541.572265625 262.697265625 538.36328125 256.098632812 531.946289062 c 0
 249.499023438 525.528320312 246.19921875 517.866210938 246.19921875 508.958984375 c 0
 246.19921875 494.362304688 254.465820312 477.041992188 271 457 c 2
 648 0 l 1
 428 0 l 1x60
 140 360 l 2
 95.1513671875 416.060546875 73.380859375 473.208007812 74.6875 531.442382812 c 0
 75.8662109375 583.928710938 96.47265625 627.100585938 136.5078125 660.958007812 c 0
 176.543945312 694.815429688 224.934570312 711.829101562 281.680664062 712 c 0
 340.334960938 712.176757812 389.87890625 694.860351562 430.313476562 660.05078125 c 0
 470.748046875 625.2421875 490.9765625 579.55859375 491 523 c 0
 491.014648438 488.62890625 485.28125 457.631835938 473.799804688 430.0078125 c 0
 462.318359375 402.384765625 439.53125 374.270507812 405.440429688 345.6640625 c 0
 382.471679688 326.390625 356.038085938 310.60546875 326.140625 298.307617188 c 0
 289.317382812 283.16015625 256.465820312 263.896484375 227.5859375 240.514648438 c 0
 212.411132812 228.23046875 203.712890625 216.723632812 201.489257812 205.99609375 c 0
 199.234375 195.116210938 199.774414062 185.094726562 203.110351562 175.9296875 c 0
 205.040039062 170.627929688 208.669921875 166.37890625 214 163.182617188 c 0
 221.916015625 158.435546875 233.583007812 156.01171875 249 155.911132812 c 0
 266.646484375 155.796875 286.698242188 159.826171875 309.15625 168 c 0
 345.379882812 181.184570312 379.331054688 198.783203125 411.009765625 220.797851562 c 0
 442.688476562 242.8125 465.018554688 268.212890625 478 297 c 1
 648 297 l 1
 635.118164062 213.271484375 588.716796875 139.670898438 508.795898438 76.197265625 c 0
 471.198242188 46.337890625 428.759765625 24.17578125 381.48046875 9.7109375 c 0
 334.201171875 -4.75390625 287.041015625 -11.9912109375 240 -12 c 0xa0
EndSplineSet
EndChar

StartChar: quotesingle
Encoding: 39 39 74
GlifName: quotesingle
Width: 320
Flags: W
HStem: 440 276<87 233>
VStem: 87 146<440 520.5>
LayerCount: 2
Fore
SplineSet
63 716 m 1
 257 716 l 1
 233 440 l 1
 87 440 l 1
 63 716 l 1
EndSplineSet
EndChar

StartChar: parenleft
Encoding: 40 40 75
GlifName: parenleft
Width: 370
Flags: W
VStem: 43.2754 170<202.714 495.059>
LayerCount: 2
Fore
SplineSet
210.03125 799.318359375 m 1
 337 685.184570312 l 1
 297.450195312 638.787109375 267.014648438 586.63671875 245.693359375 528.731445312 c 0
 224.373046875 470.826171875 213.567382812 411.249023438 213.275390625 350 c 0
 213.489257812 291.884765625 223.200195312 235.159179688 242.40625 179.822265625 c 0
 261.61328125 124.485351562 289.163085938 74.1435546875 325.055664062 28.796875 c 1
 209.966796875 -99.232421875 l 1
 156.225585938 -36.7314453125 115.017578125 33.158203125 86.3427734375 110.438476562 c 0
 57.6669921875 187.717773438 43.3115234375 267.571289062 43.275390625 350 c 0
 43.3095703125 432.447265625 57.6708984375 512.318359375 86.357421875 589.614257812 c 0
 115.043945312 666.91015625 156.268554688 736.811523438 210.03125 799.318359375 c 1
EndSplineSet
EndChar

StartChar: parenright
Encoding: 41 41 76
GlifName: parenright
Width: 370
Flags: W
VStem: 157 170<202.714 495.059>
LayerCount: 2
Fore
SplineSet
160.244140625 799.318359375 m 5
 214.006835938 736.811523438 255.231445312 666.91015625 283.91796875 589.614257812 c 0
 312.604492188 512.318359375 326.965820312 432.447265625 327 350 c 0
 326.963867188 267.571289062 312.608398438 187.717773438 283.932617188 110.438476562 c 0
 255.2578125 33.158203125 214.049804688 -36.7314453125 160.30859375 -99.232421875 c 1
 160.30859375 -99.232421875 160.30859375 -99.232421875 45.2197265625 28.796875 c 1
 81.1123046875 74.1435546875 108.662109375 124.485351562 127.869140625 179.822265625 c 0
 147.075195312 235.159179688 156.786132812 291.884765625 157 350 c 0
 156.708007812 411.249023438 145.90234375 470.826171875 124.58203125 528.731445312 c 0
 103.260742188 586.63671875 72.8251953125 638.787109375 33.275390625 685.184570312 c 1
 33.275390625 685.184570312 33.275390625 685.184570312 160.244140625 799.318359375 c 5
EndSplineSet
EndChar

StartChar: asterisk
Encoding: 42 42 77
GlifName: asterisk
Width: 515
Flags: W
VStem: 172.425 170<518 716>
LayerCount: 2
Fore
SplineSet
42.849609375 498.345703125 m 5
 95.3818359375 660.025390625 l 1
 283.69140625 598.83984375 l 1
 231.158203125 437.16015625 l 1
 42.849609375 498.345703125 l 5
209.809570312 307.852539062 m 1
 72.27734375 407.776367188 l 1
 188.658203125 567.961914062 l 1
 326.19140625 468.038085938 l 1
 209.809570312 307.852539062 l 1
442.572265625 407.776367188 m 1
 305.040039062 307.852539062 l 1
 188.658203125 468.038085938 l 1
 326.19140625 567.961914062 l 1
 442.572265625 407.776367188 l 1
419.467773438 660.025390625 m 1
 472 498.345703125 l 1
 283.69140625 437.16015625 l 1
 231.158203125 598.83984375 l 1
 419.467773438 660.025390625 l 1
172.424804688 716 m 1
 342.424804688 716 l 1
 342.424804688 518 l 1
 172.424804688 518 l 1
 172.424804688 716 l 1
EndSplineSet
EndChar

StartChar: plus
Encoding: 43 43 78
GlifName: plus
Width: 626
Flags: W
HStem: 214 170<88 228.5 398.5 538>
VStem: 228.5 170<73 214 384 523>
LayerCount: 2
Fore
SplineSet
228.5 523 m 1
 398.5 523 l 1
 398.5 384 l 1
 538 384 l 1
 538 214 l 1
 398.5 214 l 1
 398.5 73 l 1
 228.5 73 l 1
 228.5 214 l 1
 88 214 l 1
 88 384 l 1
 228.5 384 l 1
 228.5 523 l 1
EndSplineSet
EndChar

StartChar: comma
Encoding: 44 44 79
GlifName: comma
Width: 292
Flags: W
HStem: -113 259<87 167.522>
VStem: 87 180<17.0859 146>
LayerCount: 2
Fore
SplineSet
87 146 m 5
 267 146 l 5
 267 44 231.666992188 -42.3330078125 161 -113 c 5
 21 -113 l 5
 65 -31.2861328125 87 55.0478515625 87 146 c 5
EndSplineSet
EndChar

StartChar: hyphen
Encoding: 45 45 80
GlifName: hyphen
Width: 466
Flags: W
HStem: 213 170<53 413>
LayerCount: 2
Fore
SplineSet
53 213 m 1
 53 383 l 1
 413 383 l 1
 413 213 l 1
 53 213 l 1
EndSplineSet
EndChar

StartChar: period
Encoding: 46 46 81
GlifName: period
Width: 292
Flags: W
HStem: -15 206<82.6924 209.308>
VStem: 43 206<24.6924 151.308>
LayerCount: 2
Fore
SplineSet
249 88 m 0
 249 59.3330078125 239 35 219 15 c 0
 199 -5 174.666992188 -15 146 -15 c 0
 117.333007812 -15 93 -5 73 15 c 0
 53 35 43 59.3330078125 43 88 c 0
 43 116.666992188 53 141 73 161 c 0
 93 181 117.333007812 191 146 191 c 0
 174.666992188 191 199 181 219 161 c 0
 239 141 249 116.666992188 249 88 c 0
EndSplineSet
EndChar

StartChar: slash
Encoding: 47 47 82
GlifName: slash
Width: 455
Flags: W
LayerCount: 2
Fore
SplineSet
275.55078125 747 m 5
 437 693.76171875 l 5
 179.255859375 -87.861328125 l 5
 17.80859375 -34.62109375 l 5
 275.55078125 747 l 5
EndSplineSet
EndChar

StartChar: colon
Encoding: 58 58 83
GlifName: colon
Width: 352
Flags: W
HStem: -1 206<113.312 238.688> 294 206<113.312 238.688>
VStem: 73 206<39.3119 164.688 334.312 459.688>
LayerCount: 2
Fore
SplineSet
176 294 m 256
 148 294 123.833007812 304.166992188 103.5 324.5 c 0
 83.1669921875 344.833007812 73 369 73 397 c 256
 73 425 83.1669921875 449.166992188 103.5 469.5 c 0
 123.833007812 489.833007812 148 500 176 500 c 256
 204 500 228.166992188 489.833007812 248.5 469.5 c 0
 268.833007812 449.166992188 279 425 279 397 c 256
 279 369 268.833007812 344.833007812 248.5 324.5 c 0
 228.166992188 304.166992188 204 294 176 294 c 256
176 -1 m 256
 148 -1 123.833007812 9.1669921875 103.5 29.5 c 0
 83.1669921875 49.8330078125 73 74 73 102 c 256
 73 130 83.1669921875 154.166992188 103.5 174.5 c 0
 123.833007812 194.833007812 148 205 176 205 c 256
 204 205 228.166992188 194.833007812 248.5 174.5 c 0
 268.833007812 154.166992188 279 130 279 102 c 256
 279 74 268.833007812 49.8330078125 248.5 29.5 c 0
 228.166992188 9.1669921875 204 -1 176 -1 c 256
EndSplineSet
EndChar

StartChar: semicolon
Encoding: 59 59 84
GlifName: semicolon
Width: 359
Flags: W
HStem: 290 206<120.312 245.688>
VStem: 80 206<330.312 455.688> 97 180<17.0859 146>
LayerCount: 2
Fore
SplineSet
97 146 m 5xa0
 277 146 l 5
 277 44 241.666992188 -42.3330078125 171 -113 c 5
 31 -113 l 5
 75 -31.2861328125 97 55.0478515625 97 146 c 5xa0
183 290 m 0
 155 290 130.833007812 300.166992188 110.5 320.5 c 0
 90.1669921875 340.833007812 80 365 80 393 c 0
 80 421 90.1669921875 445.166992188 110.5 465.5 c 0
 130.833007812 485.833007812 155 496 183 496 c 0
 211 496 235.166992188 485.833007812 255.5 465.5 c 0
 275.833007812 445.166992188 286 421 286 393 c 0xc0
 286 365 275.833007812 340.833007812 255.5 320.5 c 0
 235.166992188 300.166992188 211 290 183 290 c 0
EndSplineSet
EndChar

StartChar: less
Encoding: 60 60 85
GlifName: less
Width: 646
Flags: W
LayerCount: 2
Fore
SplineSet
523 548.98828125 m 1
 523 365.8984375 l 1
 345.854492188 293.454101562 l 1
 523 221.009765625 l 1
 523 37.919921875 l 1
 122 201.908203125 l 1
 122 385 l 1
 523 548.98828125 l 1
EndSplineSet
EndChar

StartChar: equal
Encoding: 61 61 86
GlifName: equal
Width: 646
Flags: W
HStem: 112.5 170<123 543> 312.5 170<123 543>
VStem: 123 420<112.5 282.5 312.5 482.5>
LayerCount: 2
Fore
SplineSet
123 312.5 m 5
 123 482.5 l 5
 543 482.5 l 5
 543 312.5 l 5
 123 312.5 l 5
123 112.5 m 1
 123 282.5 l 1
 543 282.5 l 1
 543 112.5 l 1
 123 112.5 l 1
EndSplineSet
EndChar

StartChar: greater
Encoding: 62 62 87
GlifName: greater
Width: 646
Flags: W
LayerCount: 2
Fore
SplineSet
122 548.98828125 m 1
 122 365.8984375 l 1
 299.145507812 293.454101562 l 1
 122 221.009765625 l 1
 122 37.919921875 l 1
 523 201.908203125 l 1
 523 385 l 1
 122 548.98828125 l 1
EndSplineSet
EndChar

StartChar: question
Encoding: 63 63 88
GlifName: question
Width: 514
Flags: W
HStem: -15 206<178.692 305.308> 542 170<205.365 298.995>
VStem: 139 206<24.6924 151.308> 316 170<428.995 524.995>
LayerCount: 2
Fore
SplineSet
345 88 m 4xe0
 345 59.3330078125 335 35 315 15 c 4
 295 -5 270.666992188 -15 242 -15 c 4
 213.333007812 -15 189 -5 169 15 c 4
 149 35 139 59.3330078125 139 88 c 4
 139 116.666992188 149 141 169 161 c 4
 189 181 213.333007812 191 242 191 c 4
 270.666992188 191 295 181 315 161 c 4
 335 141 345 116.666992188 345 88 c 4xe0
251 712 m 4
 315.666992188 712 371 689 417 643 c 4
 463 597 486 541.666992188 486 477 c 4
 485.96484375 431.670898438 473.719726562 389.888671875 449.263671875 351.653320312 c 4
 424.807617188 313.418945312 391.990234375 284.344726562 350.8125 264.431640625 c 4
 339.861328125 259.135742188 331.876953125 251.659179688 326.860351562 242 c 4
 322.641601562 233.875976562 320.521484375 224.209960938 320.5 213 c 5
 150.5 213 l 5
 150.528320312 255.420898438 162.232421875 295.586914062 185.612304688 333.499023438 c 4
 208.9921875 371.41015625 239.616210938 399.521484375 277.486328125 417.833007812 c 4
 289.88671875 423.829101562 299.29296875 431.551757812 305.704101562 441 c 4
 312.521484375 451.047851562 315.954101562 463.047851562 316 477 c 4xd0
 316 496.333007812 310 512 298 524 c 4
 286 536 270.333007812 542 251 542 c 4
 233.672851562 541.930664062 219.063476562 536.508789062 207.171875 525.734375 c 4
 195.280273438 514.9609375 188.400390625 501.01171875 186.53125 483.887695312 c 5
 18.185546875 507.548828125 l 5
 25.8486328125 566.000976562 51.8291015625 614.677734375 96.1259765625 653.578125 c 4
 140.422851562 692.478515625 192.047851562 711.952148438 251 712 c 4
EndSplineSet
EndChar

StartChar: at
Encoding: 64 64 89
GlifName: at
Width: 979
Flags: W
HStem: -209.5 120<369.314 552.44> 16 139<428.433 549.647> 349 139<428.315 550.685> 593.5 120<368.955 610.047>
VStem: 28 120<131.455 372.545> 253.5 139<190.813 313.185> 586.5 139<17.0544 36.9395 190.698 313.068> 831 120<131.126 372.196>
LayerCount: 2
Fore
SplineSet
489.5 713.5 m 0
 550.698242188 713.5 609.568359375 701.790039062 666.108398438 678.370117188 c 0
 722.6484375 654.951171875 772.555664062 621.604492188 815.830078125 578.330078125 c 0
 859.106445312 535.053710938 892.454101562 485.145507812 915.875 428.60546875 c 0
 939.295898438 372.064453125 951.004882812 313.196289062 951 252 c 0
 950.995117188 190.397460938 939.229492188 131.2265625 915.702148438 74.48828125 c 0
 892.173828125 17.7490234375 858.588867188 -32.1474609375 814.947265625 -75.201171875 c 0
 789.459960938 -100.345703125 758.286132812 -112.920898438 721.42578125 -112.92578125 c 0
 684.16796875 -112.930664062 652.366210938 -99.759765625 626.01953125 -73.412109375 c 0
 599.672851562 -47.0634765625 586.5 -15.259765625 586.5 22 c 2
 586.5 36.939453125 l 1
 555.620117188 22.9853515625 523.286132812 16.0048828125 489.5 16 c 0
 424.333007812 15.9892578125 368.708007812 39.02734375 322.625 85.11328125 c 0
 276.541992188 131.19921875 253.5 186.828125 253.5 252 c 0
 253.5 317.168945312 276.541015625 372.794921875 322.623046875 418.876953125 c 0
 368.705078125 464.958984375 424.331054688 488 489.5 488 c 0
 554.668945312 488 610.294921875 464.958984375 656.376953125 418.876953125 c 0
 702.458984375 372.794921875 725.5 317.168945312 725.5 252 c 2
 725.5 22 l 2
 725.5 19.8203125 726.01171875 18.1533203125 727.036132812 17 c 0
 728.189453125 15.7001953125 729.993164062 15.05078125 732.447265625 15.052734375 c 0
 734.426757812 15.0537109375 736.088867188 15.76171875 737.431640625 17.17578125 c 0
 799.795898438 82.8583984375 830.985351562 161.133789062 831 252 c 0
 831.009765625 313.84375 815.78125 370.98828125 785.314453125 423.434570312 c 0
 769.260742188 451.069335938 750.15625 475.65234375 728 497.184570312 c 4
 708.107421875 516.516601562 685.754882812 533.388671875 660.94140625 547.801757812 c 0
 608.493164062 578.267578125 551.346679688 593.5 489.5 593.5 c 0
 427.655273438 593.5 370.509765625 578.266601562 318.064453125 547.80078125 c 0
 265.620117188 517.334960938 224.165039062 475.879882812 193.69921875 423.435546875 c 0
 163.233398438 370.990234375 148 313.844726562 148 252 c 0
 148 190.155273438 163.232421875 133.009765625 193.698242188 80.564453125 c 0
 208.96484375 54.283203125 226.9921875 30.76171875 247.778320312 10 c 0
 268.471679688 -10.6689453125 291.900390625 -28.603515625 318.065429688 -43.802734375 c 0
 370.509765625 -74.2685546875 427.655273438 -89.5009765625 489.5 -89.5 c 0
 510.678710938 -89.5 531.993164062 -87.4521484375 553.4453125 -83.357421875 c 1
 584.5234375 -199.349609375 l 1
 552.657226562 -206.106445312 520.983398438 -209.490234375 489.5 -209.5 c 0
 428.3125 -209.518554688 369.447265625 -197.815429688 312.905273438 -174.390625 c 0
 256.36328125 -150.965820312 206.452148438 -117.612304688 163.169921875 -74.330078125 c 0
 119.895507812 -31.0556640625 86.548828125 18.8515625 63.1298828125 75.3916015625 c 0
 39.7099609375 131.931640625 28 190.801757812 28 252 c 0
 28 313.198242188 39.7099609375 372.068359375 63.1298828125 428.608398438 c 0
 86.548828125 485.1484375 119.895507812 535.055664062 163.169921875 578.330078125 c 0
 206.444335938 621.604492188 256.3515625 654.951171875 312.891601562 678.370117188 c 0
 369.431640625 701.790039062 428.301757812 713.5 489.5 713.5 c 0
489.5 349 m 0
 462.713867188 349 439.8515625 339.529296875 420.911132812 320.588867188 c 0
 401.970703125 301.6484375 392.5 278.786132812 392.5 252 c 0
 392.5 225.213867188 401.970703125 202.3515625 420.911132812 183.411132812 c 0
 439.8515625 164.470703125 462.713867188 155 489.5 155 c 0
 516.286132812 155 539.1484375 164.470703125 558.088867188 183.411132812 c 0
 577.029296875 202.3515625 586.5 225.213867188 586.5 252 c 0
 586.5 278.786132812 577.029296875 301.6484375 558.088867188 320.588867188 c 0
 539.1484375 339.529296875 516.286132812 349 489.5 349 c 0
EndSplineSet
EndChar

StartChar: braceleft
Encoding: 123 123 90
GlifName: braceleft
Width: 408
Flags: W
VStem: 135 170<94.1842 248.493 451.507 607.815>
LayerCount: 2
Fore
SplineSet
355 -100 m 1
 283.666992188 -100 229.166992188 -75.8330078125 191.5 -27.5 c 0
 153.833007812 20.8330078125 135 92.6669921875 135 188 c 0
 135 218 129 238.333007812 117 249 c 0
 105 259.666992188 83.6669921875 265 53 265 c 5
 53 435 l 5
 83.6669921875 435 105 440.333007812 117 451 c 0
 129 461.666992188 135 482 135 512 c 0
 135 607.333007812 153.833007812 679.166992188 191.5 727.5 c 0
 229.166992188 775.833007812 283.666992188 800 355 800 c 1
 355 630 l 1
 334.333007812 630 320.833007812 622.833007812 314.5 608.5 c 0
 308.166992188 594.166992188 305 562.333007812 305 513 c 0
 305 451 283.333007812 404 240 372 c 0
 228.559570312 363.551757812 215.793945312 356.217773438 201.704101562 350 c 1
 215.793945312 343.782226562 228.559570312 336.448242188 240 328 c 0
 283.333007812 296 305 249 305 187 c 0
 305 139 308.166992188 107.833007812 314.5 93.5 c 0
 320.833007812 79.1669921875 334.333007812 71.3330078125 355 70 c 1
 355 -100 l 1
EndSplineSet
EndChar

StartChar: bar
Encoding: 124 124 91
GlifName: bar
Width: 296
Flags: W
VStem: 63 170<-220 790>
LayerCount: 2
Fore
SplineSet
63 790 m 1
 233 790 l 1
 233 -220 l 1
 63 -220 l 1
 63 790 l 1
EndSplineSet
EndChar

StartChar: braceright
Encoding: 125 125 92
GlifName: braceright
Width: 408
Flags: W
VStem: 103 170<94.1842 248.493 451.507 607.815>
LayerCount: 2
Fore
SplineSet
53 -100 m 1
 124.333007812 -100 178.833007812 -75.8330078125 216.5 -27.5 c 0
 254.166992188 20.8330078125 273 92.6669921875 273 188 c 0
 273 218 279 238.333007812 291 249 c 0
 303 259.666992188 324.333007812 265 355 265 c 5
 355 435 l 5
 324.333007812 435 303 440.333007812 291 451 c 0
 279 461.666992188 273 482 273 512 c 0
 273 607.333007812 254.166992188 679.166992188 216.5 727.5 c 0
 178.833007812 775.833007812 124.333007812 800 53 800 c 1
 53 630 l 1
 73.6669921875 630 87.1669921875 622.833007812 93.5 608.5 c 0
 99.8330078125 594.166992188 103 562.333007812 103 513 c 0
 103 451 124.666992188 404 168 372 c 0
 179.440429688 363.551757812 192.206054688 356.217773438 206.295898438 350 c 1
 192.206054688 343.782226562 179.440429688 336.448242188 168 328 c 0
 124.666992188 296 103 249 103 187 c 0
 103 139 99.8330078125 107.833007812 93.5 93.5 c 0
 87.1669921875 79.1669921875 73.6669921875 71.3330078125 53 70 c 1
 53 -100 l 1
EndSplineSet
EndChar

StartChar: asciitilde
Encoding: 126 126 93
GlifName: asciitilde
Width: 745
Flags: W
HStem: 145 170<483.307 551.631> 318 170<244.002 308.464>
LayerCount: 2
Fore
SplineSet
267 488 m 0
 368.333007812 488 435.5 447.5 468.5 366.5 c 0
 473.3515625 354.590820312 478.3515625 344.424804688 483.5 336 c 0
 492.055664062 322 504.555664062 315 521 315 c 0
 533.619140625 315.287109375 543.956054688 319.954101562 552.009765625 329 c 0
 562.677734375 340.982421875 569.340820312 360.649414062 572 388 c 1
 742 388 l 1
 740.666992188 322.666992188 720.333007812 266 681 218 c 0
 641.666992188 170 590.666992188 145.666992188 528 145 c 0
 437.134765625 144.254882812 370.634765625 187.421875 328.5 274.5 c 0
 318.2734375 295.634765625 309.106445312 308.421875 301 312.861328125 c 0
 294.745117188 316.287109375 287.411132812 318 279 318 c 0
 265.807617188 317.712890625 254.8359375 313.045898438 246.084960938 304 c 0
 234.494140625 292.017578125 226.798828125 272.350585938 223 245 c 1
 53 245 l 1
 54.3330078125 310.333007812 74.8330078125 367.166992188 114.5 415.5 c 0
 154.166992188 463.833007812 205 488 267 488 c 0
EndSplineSet
EndChar

StartChar: exclamdown
Encoding: 161 161 94
GlifName: exclamdown
Width: 332
Flags: W
HStem: 306 206<102.692 229.308>
VStem: 63 206<345.692 472.308>
LayerCount: 2
Fore
SplineSet
166 306 m 0
 194.666992188 306 219 316 239 336 c 0
 259 356 269 380.333007812 269 409 c 0
 269 437.666992188 259 462 239 482 c 0
 219 502 194.666992188 512 166 512 c 0
 137.333007812 512 113 502 93 482 c 0
 73 462 63 437.666992188 63 409 c 0
 63 380.333007812 73 356 93 336 c 0
 113 316 137.333007812 306 166 306 c 0
81 -204 m 1
 251 -204 l 1
 251 245 l 1
 81 245 l 1
 81 -204 l 1
EndSplineSet
EndChar

StartChar: cent
Encoding: 162 162 95
GlifName: cent
Width: 480
Flags: W
HStem: 0 21G<224.854 324.854> 680 20G<224.854 324.854>
VStem: 23 170<291.222 408.778> 224.854 100<0 94.4258 280.344 419.656 605.574 700>
LayerCount: 2
Fore
SplineSet
324.853515625 609.263671875 m 1
 380.29296875 601.426757812 428.762695312 576.759765625 470.26171875 535.26171875 c 1
 350.0546875 415.0546875 l 1
 342.33984375 422.768554688 333.939453125 428.826171875 324.853515625 433.227539062 c 1
 324.853515625 266.772460938 l 1
 333.940429688 271.173828125 342.340820312 277.231445312 350.0546875 284.9453125 c 1
 470.26171875 164.73828125 l 1
 428.763671875 123.240234375 380.293945312 98.5732421875 324.853515625 90.736328125 c 1
 324.853515625 0 l 1
 224.853515625 0 l 1
 224.853515625 94.42578125 l 1
 177.797851562 104.946289062 136.091796875 128.383789062 99.7373046875 164.73828125 c 0
 48.5791015625 215.896484375 23 277.650390625 23 350 c 0
 23 422.348632812 48.5791015625 484.102539062 99.7373046875 535.26171875 c 0
 136.091796875 571.616210938 177.797851562 595.053710938 224.853515625 605.57421875 c 1
 224.853515625 700 l 1
 324.853515625 700 l 1
 324.853515625 609.263671875 l 1
224.853515625 419.65625 m 1
 223.188476562 418.194335938 221.552734375 416.66015625 219.946289062 415.053710938 c 0
 201.982421875 397.08984375 193 375.405273438 193 350 c 0
 193 324.594726562 201.982421875 302.91015625 219.946289062 284.946289062 c 0
 221.552734375 283.33984375 223.188476562 281.805664062 224.853515625 280.34375 c 1
 224.853515625 419.65625 l 1
EndSplineSet
EndChar

StartChar: sterling
Encoding: 163 163 96
GlifName: sterling
Width: 619
Flags: W
HStem: 0 180<43 88.4043 278.879 586> 252 180<43 108 288 496> 535 180<301.793 392.207>
VStem: 108 180<199.596 252 432 520.813>
LayerCount: 2
Fore
SplineSet
586 180 m 1
 586 0 l 1
 43 0 l 1
 43 180 l 1
 61 180 76.3330078125 186.333007812 89 199 c 0
 101.666992188 211.666992188 108 227 108 245 c 2
 108 252 l 1
 43 252 l 1
 43 432 l 1
 108 432 l 1
 108 476 l 2
 108 542 131.333007812 598.333007812 178 645 c 0
 224.666992188 691.666992188 281 715 347 715 c 0
 413 715 469.333007812 691.666992188 516 645 c 0
 562.666992188 598.333007812 586 542 586 476 c 1
 406 476 l 1
 406 492 400.166992188 505.833007812 388.5 517.5 c 0
 376.833007812 529.166992188 363 535 347 535 c 0
 331 535 317.166992188 529.166992188 305.5 517.5 c 0
 293.833007812 505.833007812 288 492 288 476 c 2
 288 432 l 1
 496 432 l 1
 496 252 l 1
 288 252 l 1
 288 245 l 2
 287.887695312 222.920898438 284.84765625 201.25390625 278.87890625 180 c 1
 586 180 l 1
EndSplineSet
EndChar

StartChar: currency
Encoding: 164 164 97
GlifName: currency
Width: 651
Flags: W
HStem: 124 170<284.509 366.889> 406 170<284.509 366.889>
VStem: 99.6992 170<308.81 391.19> 381.699 170<308.81 391.19>
LayerCount: 2
Fore
SplineSet
365.296875 389.59765625 m 0
 354.362304688 400.532226562 341.163085938 406 325.69921875 406 c 0
 310.235351562 406 297.036132812 400.532226562 286.1015625 389.59765625 c 0
 275.166992188 378.663085938 269.69921875 365.463867188 269.69921875 350 c 0
 269.69921875 334.536132812 275.166992188 321.336914062 286.1015625 310.40234375 c 0
 297.036132812 299.467773438 310.235351562 294 325.69921875 294 c 0
 341.163085938 294 354.362304688 299.467773438 365.296875 310.40234375 c 0
 376.231445312 321.336914062 381.69921875 334.536132812 381.69921875 350 c 0
 381.69921875 365.463867188 376.231445312 378.663085938 365.296875 389.59765625 c 0
467.86328125 612.30078125 m 1
 588 492.1640625 l 1
 534.39453125 438.55859375 l 1
 545.930664062 411.427734375 551.69921875 381.908203125 551.69921875 350 c 0
 551.69921875 318.091796875 545.930664062 288.572265625 534.39453125 261.44140625 c 1
 588 207.8359375 l 1
 467.86328125 87.69921875 l 1
 414.2578125 141.3046875 l 1
 387.127929688 129.768554688 357.608398438 124 325.69921875 124 c 0
 293.790039062 124 264.270507812 129.768554688 237.140625 141.3046875 c 1
 183.53515625 87.69921875 l 1
 63.3984375 207.8359375 l 1
 117.00390625 261.44140625 l 1
 105.467773438 288.572265625 99.69921875 318.091796875 99.69921875 350 c 0
 99.69921875 381.908203125 105.467773438 411.427734375 117.00390625 438.55859375 c 1
 63.3984375 492.1640625 l 1
 183.53515625 612.30078125 l 1
 237.140625 558.6953125 l 1
 264.270507812 570.231445312 293.790039062 576 325.69921875 576 c 0
 357.608398438 576 387.127929688 570.231445312 414.2578125 558.6953125 c 1
 467.86328125 612.30078125 l 1
EndSplineSet
EndChar

StartChar: yen
Encoding: 165 165 98
GlifName: yen
Width: 622
Flags: W
HStem: 0 21G<226.5 396.5> 61 132<73 226.5 396.5 548> 244 132<73 176.177 445.823 548> 680 20G<13 213.105 408.895 609>
VStem: 226.5 170<0 61 193 244>
LayerCount: 2
Fore
SplineSet
73 244 m 1
 73 376 l 1
 176.176757812 376 l 1
 13 700 l 1
 203 700 l 1
 311 486.23828125 l 1
 419 700 l 1
 609 700 l 1
 445.823242188 376 l 1
 548 376 l 1
 548 244 l 1
 396.5 244 l 1
 396.5 193 l 1
 548 193 l 1
 548 61 l 1
 396.5 61 l 1
 396.5 0 l 1
 226.5 0 l 1
 226.5 61 l 1
 73 61 l 1
 73 193 l 1
 226.5 193 l 1
 226.5 244 l 1
 73 244 l 1
EndSplineSet
EndChar

StartChar: brokenbar
Encoding: 166 166 99
GlifName: brokenbar
Width: 376
Flags: W
VStem: 103 170<-220 220 350 790>
LayerCount: 2
Fore
SplineSet
103 -220 m 1
 103 220 l 1
 273 220 l 1
 273 -220 l 1
 103 -220 l 1
103 350 m 1
 103 790 l 1
 273 790 l 1
 273 350 l 1
 103 350 l 1
EndSplineSet
EndChar

StartChar: section
Encoding: 167 167 100
GlifName: section
Width: 428
Flags: W
HStem: -91 112<161.912 266.088> 139 112<164.597 263.403> 369 112<164.597 263.403> 599 112<161.912 266.088>
VStem: 33 112<38.5332 80 267.865 352.182 497.583 582.135> 283 112<37.8652 122.417 267.347 352.135 540 581.467>
LayerCount: 2
Fore
SplineSet
214 711 m 0
 266 711 309.166992188 694.5 343.5 661.5 c 0
 377.833007812 628.5 395 588 395 540 c 1
 283 540 l 1
 283 556.666992188 276.666992188 570.666992188 264 582 c 0
 251.333007812 593.333007812 234.666992188 599 214 599 c 0
 193.333007812 599 176.666992188 593.333007812 164 582 c 0
 151.333007812 570.666992188 145 556.666992188 145 540 c 0
 145 523.333007812 151.333007812 509.333007812 164 498 c 0
 176.666992188 486.666992188 193.333007812 481 214 481 c 0
 266 481 309.166992188 464.5 343.5 431.5 c 0
 377.833007812 398.5 395 358 395 310 c 0
 395 270.618164062 383.444335938 236.28515625 360.333007812 207 c 0
 357.09765625 202.901367188 353.63671875 198.901367188 349.94921875 195 c 1
 353.935546875 190.782226562 357.658203125 186.44921875 361.116210938 182 c 0
 383.705078125 152.934570312 395 118.934570312 395 80 c 0
 395 32 377.833007812 -8.5 343.5 -41.5 c 0
 309.166992188 -74.5 266 -91 214 -91 c 0
 162 -91 118.833007812 -74.5 84.5 -41.5 c 0
 50.1669921875 -8.5 33 32 33 80 c 1
 145 80 l 1
 145 63.3330078125 151.333007812 49.3330078125 164 38 c 0
 176.666992188 26.6669921875 193.333007812 21 214 21 c 0
 234.666992188 21 251.333007812 26.6669921875 264 38 c 0
 276.666992188 49.3330078125 283 63.3330078125 283 80 c 0
 283 96.6669921875 276.666992188 110.666992188 264 122 c 0
 251.333007812 133.333007812 234.666992188 139 214 139 c 0
 162 139 118.833007812 155.5 84.5 188.5 c 0
 50.1669921875 221.5 33 262 33 310 c 0
 33 348.489257812 44.0380859375 382.155273438 66.11328125 411 c 0
 69.7861328125 415.799804688 73.765625 420.466796875 78.05078125 425 c 1
 74.064453125 429.217773438 70.341796875 433.55078125 66.8837890625 438 c 0
 44.294921875 467.065429688 33 501.065429688 33 540 c 0
 33 588 50.1669921875 628.5 84.5 661.5 c 0
 118.833007812 694.5 162 711 214 711 c 0
214 369 m 0
 193.333007812 369 176.666992188 363.333007812 164 352 c 0
 151.333007812 340.666992188 145 326.666992188 145 310 c 0
 145 293.333007812 151.333007812 279.333007812 164 268 c 0
 176.666992188 256.666992188 193.333007812 251 214 251 c 0
 234.666992188 251 251.333007812 256.666992188 264 268 c 0
 276.666992188 279.333007812 283 293.333007812 283 310 c 0
 283 326.666992188 276.666992188 340.666992188 264 352 c 0
 251.333007812 363.333007812 234.666992188 369 214 369 c 0
EndSplineSet
EndChar

StartChar: dieresis
Encoding: 168 168 101
GlifName: dieresis
Width: 532
Flags: W
HStem: 569 176<73.9628 188.037 343.963 458.037>
VStem: 43 176<599.963 714.037> 313 176<599.963 714.037>
LayerCount: 2
Fore
SplineSet
131 745 m 4
 155 745 175.666992188 736.333007812 193 719 c 4
 210.333007812 701.666992188 219 681 219 657 c 4
 219 633 210.333007812 612.333007812 193 595 c 4
 175.666992188 577.666992188 155 569 131 569 c 4
 107 569 86.3330078125 577.666992188 69 595 c 4
 51.6669921875 612.333007812 43 633 43 657 c 4
 43 681 51.6669921875 701.666992188 69 719 c 4
 86.3330078125 736.333007812 107 745 131 745 c 4
401 745 m 4
 425 745 445.666992188 736.333007812 463 719 c 4
 480.333007812 701.666992188 489 681 489 657 c 4
 489 633 480.333007812 612.333007812 463 595 c 4
 445.666992188 577.666992188 425 569 401 569 c 4
 377 569 356.333007812 577.666992188 339 595 c 4
 321.666992188 612.333007812 313 633 313 657 c 4
 313 681 321.666992188 701.666992188 339 719 c 4
 356.333007812 736.333007812 377 745 401 745 c 4
EndSplineSet
EndChar

StartChar: copyright
Encoding: 169 169 102
GlifName: copyright
Width: 779
Flags: W
HStem: -11 120<289.113 489.887> 153 120<334.238 459.817> 428 120<334.238 460.435> 592 120<289.113 489.887>
VStem: 28 120<250.113 450.887> 190.554 119.869<296.75 404.25> 631 120<250.113 450.887>
LayerCount: 2
Fore
SplineSet
389.5 712 m 0
 454.967773438 712 515.458984375 695.875 570.975585938 663.625 c 0
 626.4921875 631.375 670.375 587.4921875 702.625 531.975585938 c 0
 734.875 476.458984375 751 415.967773438 751 350.5 c 0
 751 285.032226562 734.875 224.541015625 702.625 169.024414062 c 0
 670.375 113.5078125 626.4921875 69.625 570.975585938 37.375 c 0
 515.458984375 5.125 454.967773438 -11 389.5 -11 c 0
 324.032226562 -11 263.541015625 5.125 208.024414062 37.375 c 0
 152.5078125 69.625 108.625 113.5078125 76.375 169.024414062 c 0
 44.125 224.541015625 28 285.032226562 28 350.5 c 0
 28 415.967773438 44.125 476.458984375 76.375 531.975585938 c 0
 108.625 587.4921875 152.5078125 631.375 208.024414062 663.625 c 0
 263.541015625 695.875 324.032226562 712 389.5 712 c 0
389.5 592 m 0
 322.811523438 592 265.888671875 568.421875 218.733398438 521.266601562 c 0
 171.578125 474.111328125 148 417.188476562 148 350.5 c 0
 148 283.811523438 171.578125 226.888671875 218.733398438 179.733398438 c 0
 265.888671875 132.578125 322.811523438 109 389.5 109 c 0
 456.188476562 109 513.111328125 132.578125 560.266601562 179.733398438 c 0
 607.421875 226.888671875 631 283.811523438 631 350.5 c 0
 631 417.188476562 607.421875 474.111328125 560.266601562 521.266601562 c 0
 513.111328125 568.421875 456.188476562 592 389.5 592 c 0
388.053710938 548 m 0
 442.590820312 548 489.142578125 528.717773438 527.708007812 490.153320312 c 1
 442.723632812 405.30078125 l 1
 427.590820312 420.43359375 409.32421875 428 387.922851562 428 c 0
 366.521484375 428 348.254882812 420.43359375 333.122070312 405.30078125 c 0
 317.989257812 390.16796875 310.422851562 371.901367188 310.422851562 350.5 c 0
 310.422851562 329.098632812 317.989257812 310.83203125 333.122070312 295.69921875 c 0
 348.254882812 280.56640625 366.521484375 273 387.922851562 273 c 0
 409.244140625 273.188476562 427.396484375 280.870117188 442.379882812 296.04296875 c 1
 527.3515625 211.203125 l 1
 488.942382812 172.596679688 442.509765625 153.196289062 388.053710938 153 c 0
 333.515625 153 286.963867188 172.282226562 248.400390625 210.846679688 c 0
 209.8359375 249.411132812 190.553710938 295.961914062 190.553710938 350.5 c 0
 190.553710938 405.038085938 209.8359375 451.588867188 248.400390625 490.153320312 c 0
 286.963867188 528.717773438 333.515625 548 388.053710938 548 c 0
EndSplineSet
EndChar

StartChar: ordfeminine
Encoding: 170 170 103
GlifName: ordfeminine
Width: 365
Flags: W
HStem: 392.6 100.8<135.195 218.78> 606.2 100.8<135.195 219.066> 679.8 20G<246.8 335.6>
VStem: 17 103.8<508.626 590.974> 233.6 102<510.417 589.183> 246.8 88.7998<399.8 419.594 677.022 699.8>
LayerCount: 2
Fore
SplineSet
246.799804688 699.799804688 m 1xb4
 335.599609375 699.799804688 l 1xb4
 335.599609375 399.799804688 l 1
 246.799804688 399.799804688 l 1
 246.799804688 419.59375 l 1
 226.036132812 401.59765625 199.436523438 392.599609375 167 392.599609375 c 0
 124.200195312 392.599609375 88.5 407.799804688 59.8994140625 438.200195312 c 0
 31.2998046875 468.599609375 17 505.799804688 17 549.799804688 c 0
 17 593.799804688 31.2998046875 631 59.8994140625 661.399414062 c 0
 88.5 691.799804688 124.200195312 707 167 707 c 0xd4
 198.563476562 707 225.163085938 697.0078125 246.799804688 677.022460938 c 1
 246.799804688 699.799804688 l 1xb4
177.200195312 606.200195312 m 0xd8
 161.599609375 606.200195312 148.299804688 600.700195312 137.299804688 589.700195312 c 0
 126.299804688 578.700195312 120.799804688 565.400390625 120.799804688 549.799804688 c 0
 120.799804688 534.19921875 126.299804688 520.899414062 137.299804688 509.899414062 c 0
 148.299804688 498.899414062 161.599609375 493.399414062 177.200195312 493.399414062 c 0
 192.799804688 493.399414062 206.099609375 498.899414062 217.099609375 509.899414062 c 0
 228.099609375 520.899414062 233.599609375 534.19921875 233.599609375 549.799804688 c 0
 233.599609375 565.400390625 228.099609375 578.700195312 217.099609375 589.700195312 c 0
 206.099609375 600.700195312 192.799804688 606.200195312 177.200195312 606.200195312 c 0xd8
EndSplineSet
EndChar

StartChar: guillemotleft
Encoding: 171 171 104
GlifName: guillemotleft
Width: 826
Flags: W
VStem: 54.7852 240.416<177.792 418.208> 397.785 240.416<177.792 418.208>
LayerCount: 2
Fore
SplineSet
301.005859375 544.220703125 m 5
 421.21484375 424.012695312 l 5
 295.201171875 298 l 5
 421.21484375 171.987304688 l 5
 301.005859375 51.779296875 l 5
 54.78515625 298 l 5
 301.005859375 544.220703125 l 5
644.005859375 544.220703125 m 5
 764.21484375 424.012695312 l 5
 638.201171875 298 l 5
 764.21484375 171.987304688 l 5
 644.005859375 51.779296875 l 5
 397.78515625 298 l 5
 644.005859375 544.220703125 l 5
EndSplineSet
EndChar

StartChar: logicalnot
Encoding: 172 172 105
GlifName: logicalnot
Width: 646
Flags: W
HStem: 239 170<133 333>
VStem: 333 170<135 239>
LayerCount: 2
Fore
SplineSet
133 239 m 1
 133 409 l 1
 503 409 l 5
 503 135 l 5
 333 135 l 1
 333 239 l 1
 133 239 l 1
EndSplineSet
EndChar

StartChar: uni00AD
Encoding: 173 173 106
GlifName: uni00A_D_
Width: 406
Flags: W
HStem: 213 170<33 373>
LayerCount: 2
Fore
SplineSet
33 213 m 5
 33 383 l 5
 373 383 l 1
 373 213 l 1
 33 213 l 5
EndSplineSet
EndChar

StartChar: registered
Encoding: 174 174 107
GlifName: registered
Width: 614
Flags: W
HStem: 144 100<220.373 393.627> 499.081 77.9189<281.581 331.678> 612 100<220.373 393.627>
VStem: 23 100<341.373 514.627> 200 81.5811<286 373.3 451.219 499.081> 340.567 81.918<455.337 495.073> 491 100<341.373 514.627>
LayerCount: 2
Fore
SplineSet
307 712 m 0
 385.666992188 712 452.666992188 684.333007812 508 629 c 0
 563.333007812 573.666992188 591 506.666992188 591 428 c 0
 591 349.333007812 563.333007812 282.333007812 508 227 c 0
 452.666992188 171.666992188 385.666992188 144 307 144 c 0
 228.333007812 144 161.333007812 171.666992188 106 227 c 0
 50.6669921875 282.333007812 23 349.333007812 23 428 c 0
 23 506.666992188 50.6669921875 573.666992188 106 629 c 0
 161.333007812 684.333007812 228.333007812 712 307 712 c 0
307 612 m 0
 256.333007812 612 213 594 177 558 c 0
 141 522 123 478.666992188 123 428 c 0
 123 377.333007812 141 334 177 298 c 0
 213 262 256.333007812 244 307 244 c 0
 357.666992188 244 401 262 437 298 c 0
 473 334 491 377.333007812 491 428 c 0
 491 478.666992188 473 522 437 558 c 0
 401 594 357.666992188 612 307 612 c 0
200 577 m 1
 320.635742188 577 l 2
 348.760742188 577 372.766601562 567.056640625 392.654296875 547.168945312 c 0
 412.541992188 527.28125 422.485351562 503.275390625 422.485351562 475.150390625 c 0
 422.485351562 458.901367188 419.341796875 444.184570312 413.053710938 431 c 4
 406.463867188 417.181640625 396.420898438 405.046875 382.924804688 394.594726562 c 1
 422.450195312 286 l 1
 334.147460938 286 l 1
 302.372070312 373.299804688 l 1
 281.581054688 373.299804688 l 1
 281.581054688 286 l 1
 200 286 l 1
 200 577 l 1
281.581054688 499.081054688 m 1
 281.581054688 451.21875 l 1
 310.635742188 451.21875 l 2
 319.09765625 451.21875 326.202148438 453.428710938 331.948242188 457.848632812 c 0
 337.694335938 462.268554688 340.567382812 468.036132812 340.567382812 475.150390625 c 0
 340.567382812 482.264648438 337.694335938 488.03125 331.948242188 492.451171875 c 0
 326.201171875 496.87109375 319.09765625 499.081054688 310.635742188 499.081054688 c 2
 281.581054688 499.081054688 l 1
EndSplineSet
EndChar

StartChar: macron
Encoding: 175 175 108
GlifName: macron
Width: 306
Flags: W
HStem: 549 151<-17 323>
LayerCount: 2
Fore
SplineSet
-17 549 m 1
 -17 700 l 1
 323 700 l 1
 323 549 l 1
 -17 549 l 1
EndSplineSet
EndChar

StartChar: degree
Encoding: 176 176 109
GlifName: degree
Width: 393
Flags: W
HStem: 397.5 327
VStem: 33 327
LayerCount: 2
Fore
SplineSet
196.5 724.5 m 0
 241.619140625 724.5 280.149414062 708.530273438 312.08984375 676.58984375 c 0
 344.030273438 644.649414062 360 606.119140625 360 561 c 0
 360 515.880859375 344.030273438 477.350585938 312.08984375 445.41015625 c 0
 280.149414062 413.469726562 241.619140625 397.5 196.5 397.5 c 0
 151.380859375 397.5 112.850585938 413.469726562 80.91015625 445.41015625 c 0
 48.9697265625 477.350585938 33 515.880859375 33 561 c 0
 33 606.119140625 48.9697265625 644.649414062 80.91015625 676.58984375 c 0
 112.850585938 708.530273438 151.380859375 724.5 196.5 724.5 c 0
196.5 584.5 m 0
 190.014648438 584.5 184.4765625 582.205078125 179.885742188 577.614257812 c 0
 175.294921875 573.0234375 173 567.485351562 173 561 c 0
 173 554.514648438 175.294921875 548.9765625 179.885742188 544.385742188 c 0
 184.4765625 539.794921875 190.014648438 537.5 196.5 537.5 c 0
 202.985351562 537.5 208.5234375 539.794921875 213.114257812 544.385742188 c 0
 217.705078125 548.9765625 220 554.514648438 220 561 c 0
 220 567.485351562 217.705078125 573.0234375 213.114257812 577.614257812 c 0
 208.5234375 582.205078125 202.985351562 584.5 196.5 584.5 c 0
EndSplineSet
EndChar

StartChar: plusminus
Encoding: 177 177 110
GlifName: plusminus
Width: 646
Flags: W
HStem: 0 170<88 558> 308 170<103 238 408 543>
VStem: 238 170<178 308 478 608>
LayerCount: 2
Fore
SplineSet
88 0 m 1
 88 170 l 1
 558 170 l 1
 558 0 l 1
 88 0 l 1
103 308 m 1
 103 478 l 1
 238 478 l 1
 238 608 l 1
 408 608 l 1
 408 478 l 1
 543 478 l 1
 543 308 l 1
 408 308 l 1
 408 178 l 1
 238 178 l 1
 238 308 l 1
 103 308 l 1
EndSplineSet
EndChar

StartChar: uni00B2
Encoding: 178 178 111
GlifName: uni00B_2
Width: 378
Flags: W
HStem: 380.199 102<194.366 327.3> 706 102<159.682 213.953>
VStem: 226.376 102.004<630.966 698.633>
LayerCount: 2
Fore
SplineSet
183 808 m 0
 221.767578125 808 255.689453125 794.341796875 284.765625 767.026367188 c 0
 313.841796875 739.7109375 328.379882812 707.069335938 328.379882812 669.099609375 c 0
 328.2421875 627.46484375 315.045898438 594.043945312 288.79296875 568.8359375 c 2
 194.366210938 482.19921875 l 1
 327.299804688 482.19921875 l 1
 327.299804688 380.19921875 l 1
 44.099609375 380.19921875 l 1
 44.099609375 482.19921875 l 1
 211.325195312 635.96875 l 2
 221.359375 646.001953125 226.375976562 657.045898438 226.375976562 669.099609375 c 0
 226.375976562 680.422851562 222.360351562 689.4140625 214.330078125 696.071289062 c 0
 206.30078125 702.728515625 197.057617188 706.038085938 186.599609375 706 c 0
 176.29296875 705.961914062 167.197265625 702.880859375 159.311523438 696.7578125 c 0
 151.42578125 690.633789062 147.029296875 682.254882812 146.122070312 671.62109375 c 1
 45.99609375 691.083984375 l 1
 51.390625 724.739257812 67.0517578125 752.630859375 92.9794921875 774.756835938 c 0
 118.907226562 796.8828125 148.9140625 807.963867188 183 808 c 0
EndSplineSet
EndChar

StartChar: uni00B3
Encoding: 179 179 112
GlifName: uni00B_3
Width: 361
Flags: W
HStem: 373.875 101.984<141.837 217.945> 479.329 20G<57.3612 142.471> 540.928 102<161.6 208.157> 705 102<148.72 212.407>
VStem: 220.1 102<479.046 534.863 649.3 699.097>
LayerCount: 2
Fore
SplineSet
182 807 m 0
 220 807 252.599609375 794.299804688 279.799804688 768.900390625 c 0
 307 743.5 320.599609375 712.799804688 320.599609375 676.799804688 c 0
 320.586914062 661.935546875 316.067382812 646.135742188 307.040039062 629.400390625 c 0
 300.634765625 617.524414062 291.959960938 605.176757812 281.014648438 592.359375 c 1
 291.53125 580.368164062 300.028320312 568.715820312 306.506835938 557.400390625 c 0
 316.895507812 539.256835938 322.092773438 521.981445312 322.099609375 505.575195312 c 0
 322.099609375 469.305664062 308.317382812 438.2734375 280.75390625 412.478515625 c 0
 253.190429688 386.68359375 220.272460938 373.815429688 182 373.875 c 0
 149.278320312 373.924804688 119.504882812 383.559570312 92.6796875 402.778320312 c 0
 65.8544921875 421.997070312 49.0185546875 446.309570312 42.173828125 475.71484375 c 1
 141.40234375 499.329101562 l 1
 143.5390625 491.35546875 148.580078125 485.451171875 156.524414062 481.614257812 c 0
 164.469726562 477.77734375 173.361328125 475.859375 183.19921875 475.859375 c 0
 192.504882812 475.859375 200.981445312 478.890625 208.62890625 484.952148438 c 0
 216.276367188 491.013671875 220.099609375 498.6875 220.099609375 507.974609375 c 0
 220.099609375 517.819335938 216.645507812 525.7734375 209.73828125 531.834960938 c 0
 202.830078125 537.896484375 193.583984375 540.927734375 182 540.927734375 c 2
 161.599609375 540.927734375 l 1
 161.599609375 642.927734375 l 1
 182 642.927734375 l 2
 192.899414062 642.927734375 201.724609375 645.948242188 208.474609375 651.98828125 c 0
 215.224609375 658.028320312 218.599609375 665.8984375 218.599609375 675.599609375 c 0
 218.599609375 684.799804688 214.899414062 692 207.5 697.200195312 c 0
 200.099609375 702.400390625 191.599609375 705 182 705 c 0
 169.580078125 705 159.979492188 702.495117188 153.19921875 697.486328125 c 0
 147.91796875 693.584960938 144.34765625 688.163085938 142.48828125 681.22265625 c 1
 43.529296875 705.9453125 l 1
 50.2294921875 735.118164062 66.8759765625 759.25390625 93.466796875 778.352539062 c 0
 120.057617188 797.451171875 149.568359375 807 182 807 c 0
EndSplineSet
EndChar

StartChar: acute
Encoding: 180 180 113
GlifName: acute
Width: 308
Flags: W
HStem: 553.5 147<107 177>
VStem: 1 302
LayerCount: 2
Fore
SplineSet
1 553.5 m 5
 107 700.5 l 5
 303 700.5 l 5
 177 553.5 l 5
 1 553.5 l 5
EndSplineSet
EndChar

StartChar: mu
Encoding: 181 181 114
GlifName: mu
Width: 584
Flags: W
HStem: -200 21G<43 191> -12 170<237.746 341.18> 0 21G<388 536> 480 20G<43 213 366 536>
VStem: 43 170<182.753 500> 43 148<-200 31.4482> 366 170<182.753 500>
LayerCount: 2
Fore
SplineSet
536 500 m 5xda
 536 0 l 1
 388 0 l 1xba
 388 35.115234375 l 1
 371.0234375 3.705078125 338.189453125 -12 289.5 -12 c 0
 245.095703125 -12 212.262695312 2.482421875 191 31.4482421875 c 1
 191 -200 l 1
 43 -200 l 1xd6
 43 500 l 1
 213 500 l 1
 213 244 l 2
 213 218.666992188 220.5 198 235.5 182 c 0
 250.5 166 268.5 158 289.5 158 c 0
 310.5 158 328.5 166 343.5 182 c 0
 358.5 198 366 218.666992188 366 244 c 2
 366 500 l 5
 536 500 l 5xda
EndSplineSet
EndChar

StartChar: paragraph
Encoding: 182 182 115
GlifName: paragraph
Width: 667
Flags: W
HStem: 680 20G<219.333 604>
VStem: 8 414<353.204 529.481> 285 137<-84 210> 467 137<-84 530>
LayerCount: 2
Fore
SplineSet
253 700 m 2xd0
 285 700 l 1
 604 700 l 1
 604 -84 l 1
 467 -84 l 1
 467 530 l 1
 422 530 l 1
 422 -84 l 1
 285 -84 l 1
 285 210 l 1xb0
 253 210 l 2
 185.666992188 210 128 234 80 282 c 0
 32 330 8 387.666992188 8 455 c 0
 8 522.333007812 32 580 80 628 c 0
 128 676 185.666992188 700 253 700 c 2xd0
EndSplineSet
EndChar

StartChar: periodcentered
Encoding: 183 183 116
GlifName: periodcentered
Width: 272
Flags: W
HStem: 246 206<72.6924 199.308>
VStem: 33 206<285.692 412.308>
LayerCount: 2
Fore
SplineSet
239 349 m 0
 239 320.333007812 229 296 209 276 c 0
 189 256 164.666992188 246 136 246 c 0
 107.333007812 246 83 256 63 276 c 0
 43 296 33 320.333007812 33 349 c 0
 33 377.666992188 43 402 63 422 c 0
 83 442 107.333007812 452 136 452 c 0
 164.666992188 452 189 442 209 422 c 0
 229 402 239 377.666992188 239 349 c 0
EndSplineSet
EndChar

StartChar: cedilla
Encoding: 184 184 117
GlifName: cedilla
Width: 260
Flags: W
HStem: -210 120<64.7453 144.124>
VStem: 154 120<-80.1243 15.6779>
LayerCount: 2
Fore
SplineSet
213.53125 82.66015625 m 1
 253.842773438 49.6533203125 273.999023438 7.099609375 274 -45 c 0
 274 -90.3330078125 257.833007812 -129.166992188 225.5 -161.5 c 0
 193.166992188 -193.833007812 154.333007812 -210 109 -210 c 0
 71.2626953125 -209.854492188 37.54296875 -198.141601562 7.841796875 -174.859375 c 1
 53.8291015625 -109.1796875 76.8212890625 -76.3427734375 76.818359375 -76.349609375 c 4
 85.6279296875 -85.4208984375 96.3544921875 -89.9716796875 109 -90 c 0
 121.666992188 -90 132.333007812 -85.6669921875 141 -77 c 0
 149.666992188 -68.3330078125 154 -57.6669921875 154 -45 c 0
 153.989257812 -33.6064453125 150.202148438 -23.6689453125 142.638671875 -15.189453125 c 0
 135.075195312 -6.7099609375 125.715820312 -1.775390625 114.55859375 -0.38671875 c 1
 213.53125 82.66015625 l 1
EndSplineSet
EndChar

StartChar: uni00B9
Encoding: 185 185 118
GlifName: uni00B_9
Width: 285
Flags: W
VStem: 126 102<380 666.849>
LayerCount: 2
Fore
SplineSet
126 800 m 1
 228 800 l 1
 228 380 l 1
 126 380 l 1
 126 666.848632812 l 1
 72.0615234375 621.588867188 l 1
 6.49609375 699.724609375 l 1
 126 800 l 1
EndSplineSet
EndChar

StartChar: ordmasculine
Encoding: 186 186 119
GlifName: ordmasculine
Width: 348
Flags: W
HStem: 392.6 102<133.281 214.319> 605 102<133.281 214.319>
VStem: 16.5996 102<509.281 590.319> 229 102<509.281 590.319>
LayerCount: 2
Fore
SplineSet
173.799804688 707 m 4
 217.208984375 707 254.26171875 691.65234375 284.95703125 660.95703125 c 4
 315.65234375 630.26171875 331 593.208984375 331 549.799804688 c 4
 331 506.390625 315.65234375 469.337890625 284.95703125 438.642578125 c 4
 254.26171875 407.947265625 217.208984375 392.599609375 173.799804688 392.599609375 c 4
 130.390625 392.599609375 93.337890625 407.947265625 62.642578125 438.642578125 c 4
 31.947265625 469.337890625 16.599609375 506.390625 16.599609375 549.799804688 c 4
 16.599609375 593.208984375 31.947265625 630.26171875 62.642578125 660.95703125 c 4
 93.337890625 691.65234375 130.390625 707 173.799804688 707 c 4
173.799804688 605 m 4
 158.556640625 605 145.545898438 599.610351562 134.767578125 588.83203125 c 4
 123.989257812 578.053710938 118.599609375 565.04296875 118.599609375 549.799804688 c 4
 118.599609375 534.556640625 123.989257812 521.545898438 134.767578125 510.767578125 c 4
 145.545898438 499.989257812 158.556640625 494.599609375 173.799804688 494.599609375 c 4
 189.04296875 494.599609375 202.053710938 499.989257812 212.83203125 510.767578125 c 4
 223.610351562 521.545898438 229 534.556640625 229 549.799804688 c 4
 229 565.04296875 223.610351562 578.053710938 212.83203125 588.83203125 c 4
 202.053710938 599.610351562 189.04296875 605 173.799804688 605 c 4
EndSplineSet
EndChar

StartChar: guillemotright
Encoding: 187 187 120
GlifName: guillemotright
Width: 826
Flags: W
VStem: 180.799 240.416<177.792 418.208> 520.799 240.416<177.792 418.208>
LayerCount: 2
Fore
SplineSet
174.994140625 544.220703125 m 5
 54.78515625 424.012695312 l 5
 180.798828125 298 l 5
 54.78515625 171.987304688 l 5
 174.994140625 51.779296875 l 5
 421.21484375 298 l 5
 174.994140625 544.220703125 l 5
514.994140625 544.220703125 m 5
 394.78515625 424.012695312 l 5
 520.798828125 298 l 5
 394.78515625 171.987304688 l 5
 514.994140625 51.779296875 l 5
 761.21484375 298 l 5
 514.994140625 544.220703125 l 5
EndSplineSet
EndChar

StartChar: onequarter
Encoding: 188 188 121
GlifName: onequarter
Width: 854
Flags: W
HStem: 0 21G<659.4 761.4> 64.7998 102<586.938 659.4 761.4 813.601> 680 20G<102.165 228>
VStem: 126 102<280 566.849> 659.4 102<0 64.7998 166.8 279>
LayerCount: 2
Fore
SplineSet
596.4296875 420.263671875 m 1
 688.873046875 377.15625 l 1
 586.938476562 166.799804688 l 1
 659.400390625 166.799804688 l 1
 659.400390625 279 l 1
 761.400390625 279 l 1
 761.400390625 166.799804688 l 1
 813.600585938 166.799804688 l 1
 813.600585938 64.7998046875 l 1
 761.400390625 64.7998046875 l 1
 761.400390625 0 l 1
 659.400390625 0 l 1
 659.400390625 64.7998046875 l 1
 474.600585938 64.7998046875 l 1
 474.600585938 166.799804688 l 1
 596.4296875 420.263671875 l 1
578 697 m 5
 671.642578125 633.099609375 l 5
 228 12 l 5
 136.130859375 74.6484375 l 5
 578 697 l 5
126 700 m 1
 228 700 l 1
 228 280 l 1
 126 280 l 1
 126 566.848632812 l 1
 72.0615234375 521.588867188 l 1
 6.49609375 599.724609375 l 1
 126 700 l 1
EndSplineSet
EndChar

StartChar: onehalf
Encoding: 189 189 122
GlifName: onehalf
Width: 883
Flags: W
HStem: 0.199219 102<699.366 832.3> 326 102<664.682 718.953> 680 20G<102.165 228>
VStem: 126 102<280 566.849> 731.376 102.004<250.966 318.633>
LayerCount: 2
Fore
SplineSet
688 428 m 0
 726.767578125 428 760.689453125 414.341796875 789.765625 387.026367188 c 0
 818.841796875 359.7109375 833.379882812 327.069335938 833.379882812 289.099609375 c 0
 833.2421875 247.46484375 820.045898438 214.043945312 793.79296875 188.8359375 c 2
 699.366210938 102.19921875 l 1
 832.299804688 102.19921875 l 1
 832.299804688 0.19921875 l 1
 549.099609375 0.19921875 l 1
 549.099609375 102.19921875 l 1
 716.325195312 255.96875 l 2
 726.359375 266.001953125 731.375976562 277.045898438 731.375976562 289.099609375 c 0
 731.375976562 300.422851562 727.360351562 309.4140625 719.330078125 316.071289062 c 0
 711.30078125 322.728515625 702.057617188 326.038085938 691.599609375 326 c 0
 681.29296875 325.961914062 672.197265625 322.880859375 664.311523438 316.7578125 c 0
 656.42578125 310.633789062 652.029296875 302.254882812 651.122070312 291.62109375 c 1
 550.99609375 311.083984375 l 1
 556.390625 344.739257812 572.051757812 372.630859375 597.979492188 394.756835938 c 0
 623.907226562 416.8828125 653.9140625 427.963867188 688 428 c 0
578 697 m 5
 671.642578125 633.099609375 l 5
 228 12 l 5
 136.130859375 74.6484375 l 5
 578 697 l 5
126 700 m 1
 228 700 l 1
 228 280 l 1
 126 280 l 1
 126 566.848632812 l 1
 72.0615234375 521.588867188 l 1
 6.49609375 599.724609375 l 1
 126 700 l 1
EndSplineSet
EndChar

StartChar: threequarters
Encoding: 190 190 123
GlifName: threequarters
Width: 930
Flags: W
HStem: 0 21G<735.4 837.4> 64.7998 102<662.938 735.4 837.4 889.601> 273.875 101.984<141.837 217.945> 440.928 102<161.6 208.157> 605 102<148.72 212.407>
VStem: 220.1 102<379.046 434.863 549.3 599.097> 735.4 102<0 64.7998 166.8 279>
LayerCount: 2
Fore
SplineSet
672.4296875 420.263671875 m 1
 764.873046875 377.15625 l 1
 662.938476562 166.799804688 l 1
 735.400390625 166.799804688 l 1
 735.400390625 279 l 1
 837.400390625 279 l 1
 837.400390625 166.799804688 l 1
 889.600585938 166.799804688 l 1
 889.600585938 64.7998046875 l 1
 837.400390625 64.7998046875 l 1
 837.400390625 0 l 1
 735.400390625 0 l 1
 735.400390625 64.7998046875 l 1
 550.600585938 64.7998046875 l 1
 550.600585938 166.799804688 l 1
 672.4296875 420.263671875 l 1
654 697 m 5
 747.642578125 633.099609375 l 5
 304 12 l 5
 212.130859375 74.6484375 l 5
 654 697 l 5
182 707 m 0
 220 707 252.599609375 694.299804688 279.799804688 668.900390625 c 0
 307 643.5 320.599609375 612.799804688 320.599609375 576.799804688 c 0
 320.586914062 561.935546875 316.067382812 546.135742188 307.040039062 529.400390625 c 0
 300.634765625 517.524414062 291.959960938 505.176757812 281.014648438 492.359375 c 1
 291.53125 480.368164062 300.028320312 468.715820312 306.506835938 457.400390625 c 0
 316.895507812 439.256835938 322.092773438 421.981445312 322.099609375 405.575195312 c 0
 322.099609375 369.305664062 308.317382812 338.2734375 280.75390625 312.478515625 c 0
 253.190429688 286.68359375 220.272460938 273.815429688 182 273.875 c 0
 149.278320312 273.924804688 119.504882812 283.559570312 92.6796875 302.778320312 c 0
 65.8544921875 321.997070312 49.0185546875 346.309570312 42.173828125 375.71484375 c 1
 141.40234375 399.329101562 l 1
 143.5390625 391.35546875 148.580078125 385.451171875 156.524414062 381.614257812 c 0
 164.469726562 377.77734375 173.361328125 375.859375 183.19921875 375.859375 c 0
 192.504882812 375.859375 200.981445312 378.890625 208.62890625 384.952148438 c 0
 216.276367188 391.013671875 220.099609375 398.6875 220.099609375 407.974609375 c 0
 220.099609375 417.819335938 216.645507812 425.7734375 209.73828125 431.834960938 c 0
 202.830078125 437.896484375 193.583984375 440.927734375 182 440.927734375 c 2
 161.599609375 440.927734375 l 1
 161.599609375 542.927734375 l 1
 182 542.927734375 l 2
 192.899414062 542.927734375 201.724609375 545.948242188 208.474609375 551.98828125 c 0
 215.224609375 558.028320312 218.599609375 565.8984375 218.599609375 575.599609375 c 0
 218.599609375 584.799804688 214.899414062 592 207.5 597.200195312 c 0
 200.099609375 602.400390625 191.599609375 605 182 605 c 0
 169.580078125 605 159.979492188 602.495117188 153.19921875 597.486328125 c 0
 147.91796875 593.584960938 144.34765625 588.163085938 142.48828125 581.22265625 c 1
 43.529296875 605.9453125 l 1
 50.2294921875 635.118164062 66.8759765625 659.25390625 93.466796875 678.352539062 c 0
 120.057617188 697.451171875 149.568359375 707 182 707 c 0
EndSplineSet
EndChar

StartChar: questiondown
Encoding: 191 191 124
GlifName: questiondown
Width: 469
Flags: W
HStem: -215 170<190.19 283.821> 306 206<183.878 310.493>
VStem: 3.18555 170<-27.9953 68.0055> 144.186 206<345.692 472.308>
LayerCount: 2
Fore
SplineSet
144.185546875 409 m 4xd0
 144.185546875 437.666992188 154.185546875 462 174.185546875 482 c 4
 194.185546875 502 218.518554688 512 247.185546875 512 c 4
 275.852539062 512 300.185546875 502 320.185546875 482 c 4
 340.185546875 462 350.185546875 437.666992188 350.185546875 409 c 4
 350.185546875 380.333007812 340.185546875 356 320.185546875 336 c 4
 300.185546875 316 275.852539062 306 247.185546875 306 c 4
 218.518554688 306 194.185546875 316 174.185546875 336 c 4
 154.185546875 356 144.185546875 380.333007812 144.185546875 409 c 4xd0
238.185546875 -215 m 4
 173.518554688 -215 118.185546875 -192 72.185546875 -146 c 4
 26.185546875 -100 3.185546875 -44.6669921875 3.185546875 20 c 4
 3.220703125 65.3291015625 15.4658203125 107.111328125 39.921875 145.346679688 c 4
 64.3779296875 183.581054688 97.1953125 212.655273438 138.373046875 232.568359375 c 4
 149.32421875 237.864257812 157.30859375 245.340820312 162.325195312 255 c 4
 166.543945312 263.124023438 168.6640625 272.790039062 168.685546875 284 c 5
 338.685546875 284 l 5
 338.657226562 241.579101562 326.953125 201.413085938 303.573242188 163.500976562 c 4
 280.193359375 125.58984375 249.569335938 97.478515625 211.69921875 79.1669921875 c 4
 199.298828125 73.1708984375 189.892578125 65.4482421875 183.481445312 56 c 4
 176.6640625 45.9521484375 173.231445312 33.9521484375 173.185546875 20 c 4xe0
 173.185546875 0.6669921875 179.185546875 -15 191.185546875 -27 c 4
 203.185546875 -39 218.852539062 -45 238.185546875 -45 c 4
 255.512695312 -44.9306640625 270.122070312 -39.5087890625 282.013671875 -28.734375 c 4
 293.905273438 -17.9609375 300.78515625 -4.01171875 302.654296875 13.1123046875 c 5
 471 -10.548828125 l 5
 463.336914062 -69.0009765625 437.356445312 -117.677734375 393.059570312 -156.578125 c 4
 348.762695312 -195.478515625 297.137695312 -214.952148438 238.185546875 -215 c 4
EndSplineSet
EndChar

StartChar: Agrave
Encoding: 192 192 125
GlifName: A_grave
Width: 695
Flags: W
HStem: 0 21G<10 196.829 497.714 685> 93 170<279.796 409.192> 680 20G<243.143 436.314> 754 147<245 315>
LayerCount: 2
Fore
SplineSet
245 754 m 5
 119 901 l 5
 315 901 l 5
 421 754 l 5
 245 754 l 5
279.795898438 263 m 1
 409.192382812 263 l 1
 342.3984375 446.356445312 l 1
 279.795898438 263 l 1
221.752929688 93 m 1
 190 0 l 1
 10 0 l 1
 250 700 l 1
 429 700 l 1
 685 0 l 1
 505 0 l 1
 471.12109375 93 l 1
 221.752929688 93 l 1
EndSplineSet
EndChar

StartChar: Aacute
Encoding: 193 193 126
GlifName: A_acute
Width: 695
Flags: W
HStem: 95 170<277.796 407.192> 682 20G<241.143 434.314> 743.5 147<356 426>
LayerCount: 2
Fore
SplineSet
277.795898438 265 m 1
 407.192382812 265 l 1
 340.3984375 448.356445312 l 1
 277.795898438 265 l 1
219.752929688 95 m 1
 188 2 l 1
 8 2 l 1
 248 702 l 1
 427 702 l 1
 683 2 l 1
 503 2 l 1
 469.12109375 95 l 1
 219.752929688 95 l 1
250 743.5 m 5
 356 890.5 l 5
 552 890.5 l 5
 426 743.5 l 5
 250 743.5 l 5
EndSplineSet
EndChar

StartChar: Acircumflex
Encoding: 194 194 127
GlifName: A_circumflex
Width: 695
Flags: W
HStem: 0 21G<10 196.829 497.714 685> 93 170<279.796 409.192> 680 20G<243.143 436.314> 754 146<258.554 293.002 390.998 425.446>
LayerCount: 2
Fore
SplineSet
128.24609375 754 m 1
 258.553710938 900 l 1
 425.446289062 900 l 1
 555.75390625 754 l 1
 390.998046875 754 l 1
 342 806.009765625 l 1
 293.001953125 754 l 1
 128.24609375 754 l 1
279.795898438 263 m 1
 409.192382812 263 l 1
 342.3984375 446.356445312 l 1
 279.795898438 263 l 1
221.752929688 93 m 1
 190 0 l 1
 10 0 l 1
 250 700 l 1
 429 700 l 1
 685 0 l 1
 505 0 l 1
 471.12109375 93 l 1
 221.752929688 93 l 1
EndSplineSet
EndChar

StartChar: Atilde
Encoding: 195 195 128
GlifName: A_tilde
Width: 695
Flags: W
HStem: 0 21G<10 196.829 497.714 685> 93 170<279.796 409.192> 680 20G<243.143 436.314> 734 106<381.044 435.96> 806 106<252.052 313.202>
LayerCount: 2
Fore
SplineSet
415 734 m 0xf0
 373.666992188 734 343.666992188 746 325 770 c 0
 317.666992188 779.333007812 310.666992188 787.666992188 304 795 c 0
 297.333007812 802.333007812 288.333007812 806 277 806 c 0
 262.333007812 806 252 793 246 767 c 1
 129 767 l 1
 131.666992188 809 147 843.666992188 175 871 c 0
 203 898.333007812 235 912 271 912 c 0xe8
 315.666992188 912 348.333007812 900 369 876 c 0
 377 866.666992188 384 858.333007812 390 851 c 0
 396 843.666992188 404 840 414 840 c 0
 428 840 436.666992188 853 440 879 c 1
 557 879 l 5
 552.333007812 836.333007812 536.833007812 801.5 510.5 774.5 c 0
 484.166992188 747.5 452.333007812 734 415 734 c 0xf0
279.795898438 263 m 1
 409.192382812 263 l 1
 342.3984375 446.356445312 l 1
 279.795898438 263 l 1
221.752929688 93 m 1
 190 0 l 1
 10 0 l 1
 250 700 l 1
 429 700 l 1
 685 0 l 1
 505 0 l 1
 471.12109375 93 l 1
 221.752929688 93 l 1
EndSplineSet
EndChar

StartChar: Adieresis
Encoding: 196 196 129
GlifName: A_dieresis
Width: 695
Flags: W
HStem: 0 21G<10 196.829 497.714 685> 93 170<279.796 409.192> 680 20G<243.143 436.314> 769 176<145.963 260.037 415.963 530.037>
VStem: 115 176<799.963 914.037> 385 176<799.963 914.037>
LayerCount: 2
Fore
SplineSet
203 945 m 4
 227 945 247.666992188 936.333007812 265 919 c 4
 282.333007812 901.666992188 291 881 291 857 c 4
 291 833 282.333007812 812.333007812 265 795 c 4
 247.666992188 777.666992188 227 769 203 769 c 4
 179 769 158.333007812 777.666992188 141 795 c 4
 123.666992188 812.333007812 115 833 115 857 c 4
 115 881 123.666992188 901.666992188 141 919 c 4
 158.333007812 936.333007812 179 945 203 945 c 4
473 945 m 4
 497 945 517.666992188 936.333007812 535 919 c 4
 552.333007812 901.666992188 561 881 561 857 c 4
 561 833 552.333007812 812.333007812 535 795 c 4
 517.666992188 777.666992188 497 769 473 769 c 4
 449 769 428.333007812 777.666992188 411 795 c 4
 393.666992188 812.333007812 385 833 385 857 c 4
 385 881 393.666992188 901.666992188 411 919 c 4
 428.333007812 936.333007812 449 945 473 945 c 4
279.795898438 263 m 1
 409.192382812 263 l 1
 342.3984375 446.356445312 l 1
 279.795898438 263 l 1
221.752929688 93 m 1
 190 0 l 1
 10 0 l 1
 250 700 l 1
 429 700 l 1
 685 0 l 1
 505 0 l 1
 471.12109375 93 l 1
 221.752929688 93 l 1
EndSplineSet
EndChar

StartChar: Aring
Encoding: 197 197 130
GlifName: A_ring
Width: 695
Flags: W
HStem: 0 21G<10 196.829 497.714 685> 93 170<279.796 409.192> 680 20G<243.143 436.314> 720 97.1309<312.483 365.517> 881.869 97.1309<312.483 365.517>
VStem: 209.5 97.1309<822.983 876.017> 371.369 97.1309<822.983 876.017>
LayerCount: 2
Fore
SplineSet
339 979 m 0
 374.736328125 979 405.25390625 966.350585938 430.552734375 941.052734375 c 0
 455.850585938 915.75390625 468.5 885.236328125 468.5 849.5 c 0
 468.5 813.763671875 455.850585938 783.24609375 430.552734375 757.947265625 c 0
 405.25390625 732.649414062 374.736328125 720 339 720 c 0
 303.263671875 720 272.74609375 732.649414062 247.447265625 757.947265625 c 0
 222.149414062 783.24609375 209.5 813.763671875 209.5 849.5 c 0
 209.5 885.236328125 222.149414062 915.75390625 247.447265625 941.052734375 c 0
 272.74609375 966.350585938 303.263671875 979 339 979 c 0
339 881.869140625 m 0
 330.067382812 881.869140625 322.439453125 878.70703125 316.116210938 872.383789062 c 0
 309.79296875 866.060546875 306.630859375 858.432617188 306.630859375 849.5 c 0
 306.630859375 840.567382812 309.79296875 832.939453125 316.116210938 826.616210938 c 0
 322.439453125 820.29296875 330.067382812 817.130859375 339 817.130859375 c 0
 347.932617188 817.130859375 355.560546875 820.29296875 361.883789062 826.616210938 c 0
 368.20703125 832.939453125 371.369140625 840.567382812 371.369140625 849.5 c 0
 371.369140625 858.432617188 368.20703125 866.060546875 361.883789062 872.383789062 c 0
 355.560546875 878.70703125 347.932617188 881.869140625 339 881.869140625 c 0
279.795898438 263 m 1
 409.192382812 263 l 1
 342.3984375 446.356445312 l 1
 279.795898438 263 l 1
221.752929688 93 m 1
 190 0 l 1
 10 0 l 1
 250 700 l 1
 429 700 l 1
 685 0 l 1
 505 0 l 1
 471.12109375 93 l 1
 221.752929688 93 l 1
EndSplineSet
EndChar

StartChar: AE
Encoding: 198 198 131
GlifName: A_E_
Width: 1039
Flags: W
HStem: 0 170<671 977> 99 166<409.297 501> 266 169<671 906> 530 170<671 976>
LayerCount: 2
Fore
SplineSet
501 700 m 1xb0
 976 700 l 1
 976 530 l 1
 671 530 l 1
 671 435 l 1
 906 435 l 1
 906 266 l 1
 671 266 l 1
 671 170 l 1
 977 170 l 1
 977 0 l 1
 501 0 l 1xb0
 501 99 l 1
 295.749023438 99 l 1x70
 228 0 l 1
 22 0 l 1
 501 700 l 1xb0
501 398.950195312 m 1
 409.296875 265 l 1
 501.50390625 265 l 1x70
 501 398.950195312 l 1
EndSplineSet
EndChar

StartChar: Ccedilla
Encoding: 199 199 132
GlifName: C_cedilla
Width: 664
Flags: W
HStem: -210 120<287.909 367.288> -12.5 21G<338.37 414.248> 541.5 170<301.059 478.597>
VStem: 27.7832 170<260.449 438.644> 377.164 120<-80.1243 -13.4839>
LayerCount: 2
Fore
SplineSet
436.6953125 82.66015625 m 1
 477.006835938 49.6533203125 497.163085938 7.099609375 497.1640625 -45 c 0
 497.1640625 -90.3330078125 480.997070312 -129.166992188 448.6640625 -161.5 c 0
 416.331054688 -193.833007812 377.497070312 -210 332.1640625 -210 c 0
 294.426757812 -209.854492188 260.70703125 -198.141601562 231.005859375 -174.859375 c 1
 276.993164062 -109.1796875 299.985351562 -76.3427734375 299.982421875 -76.349609375 c 4
 308.791992188 -85.4208984375 319.518554688 -89.9716796875 332.1640625 -90 c 0
 344.831054688 -90 355.497070312 -85.6669921875 364.1640625 -77 c 0
 372.831054688 -68.3330078125 377.1640625 -57.6669921875 377.1640625 -45 c 0
 377.153320312 -33.6064453125 373.366210938 -23.6689453125 365.802734375 -15.189453125 c 0
 358.239257812 -6.7099609375 348.879882812 -1.775390625 337.72265625 -0.38671875 c 1
 436.6953125 82.66015625 l 1
389.783203125 711.5 m 0
 438.921875 711.5 485.556640625 702.155273438 529.6875 683.465820312 c 0
 573.818359375 664.77734375 612.588867188 638.694335938 646 605.216796875 c 1
 525.71875 484.935546875 l 1
 488.235351562 522.600585938 442.923828125 541.456054688 389.783203125 541.5 c 0
 336.799804688 541.5 291.553710938 522.74609375 254.044921875 485.23828125 c 0
 216.537109375 447.729492188 197.783203125 402.483398438 197.783203125 349.5 c 0
 197.783203125 296.516601562 216.537109375 251.270507812 254.044921875 213.76171875 c 0
 291.553710938 176.25390625 336.799804688 157.5 389.783203125 157.5 c 0
 442.659179688 157.514648438 487.821289062 176.185546875 525.271484375 213.51171875 c 1
 644.853515625 93.9296875 l 1
 611.590820312 60.5615234375 572.99609375 34.525390625 529.068359375 15.8212890625 c 0
 485.139648438 -2.8828125 438.711914062 -12.3232421875 389.783203125 -12.5 c 0
 286.956054688 -12.5 200.122070312 24.13671875 129.283203125 97.4111328125 c 0
 61.6162109375 167.404296875 27.783203125 251.43359375 27.783203125 349.5 c 0
 27.783203125 447.793945312 61.7490234375 531.9609375 129.681640625 602 c 0
 200.485351562 675 287.186523438 711.5 389.783203125 711.5 c 0
EndSplineSet
EndChar

StartChar: Egrave
Encoding: 200 200 133
GlifName: E_grave
Width: 592
Flags: W
HStem: 0 170<233 539> 266 169<233 468> 530 170<233 538> 754 147<230 300>
VStem: 63 170<170 266 435 530>
LayerCount: 2
Fore
SplineSet
230 754 m 5
 104 901 l 5
 300 901 l 5
 406 754 l 5
 230 754 l 5
63 0 m 1
 63 700 l 1
 538 700 l 1
 538 530 l 1
 233 530 l 1
 233 435 l 1
 468 435 l 1
 468 266 l 1
 233 266 l 1
 233 170 l 1
 539 170 l 1
 539 0 l 1
 63 0 l 1
EndSplineSet
EndChar

StartChar: Eacute
Encoding: 201 201 134
GlifName: E_acute
Width: 592
Flags: W
HStem: 0 170<233 539> 266 169<233 468> 530 170<233 538> 750.5 147<314 384>
VStem: 63 170<170 266 435 530>
LayerCount: 2
Fore
SplineSet
63 0 m 1
 63 700 l 1
 538 700 l 1
 538 530 l 1
 233 530 l 1
 233 435 l 1
 468 435 l 1
 468 266 l 1
 233 266 l 1
 233 170 l 1
 539 170 l 1
 539 0 l 1
 63 0 l 1
208 750.5 m 5
 314 897.5 l 5
 510 897.5 l 5
 384 750.5 l 5
 208 750.5 l 5
EndSplineSet
EndChar

StartChar: Ecircumflex
Encoding: 202 202 135
GlifName: E_circumflex
Width: 592
Flags: W
HStem: 0 170<233 539> 266 169<233 468> 530 170<233 538> 754 146<210.554 245.002 342.998 377.446>
VStem: 63 170<170 266 435 530>
LayerCount: 2
Fore
SplineSet
80.24609375 754 m 1
 210.553710938 900 l 1
 377.446289062 900 l 1
 507.75390625 754 l 1
 342.998046875 754 l 1
 294 806.009765625 l 1
 245.001953125 754 l 1
 80.24609375 754 l 1
63 0 m 1
 63 700 l 1
 538 700 l 1
 538 530 l 1
 233 530 l 1
 233 435 l 1
 468 435 l 1
 468 266 l 1
 233 266 l 1
 233 170 l 1
 539 170 l 1
 539 0 l 1
 63 0 l 1
EndSplineSet
EndChar

StartChar: Edieresis
Encoding: 203 203 136
GlifName: E_dieresis
Width: 592
Flags: W
HStem: 0 170<233 539> 266 169<233 468> 530 170<233 538> 769 176<104.963 219.037 374.963 489.037>
VStem: 63 170<170 266 435 530> 74 176<799.963 914.037> 344 176<799.963 914.037>
LayerCount: 2
Fore
SplineSet
162 945 m 4xf6
 186 945 206.666992188 936.333007812 224 919 c 4
 241.333007812 901.666992188 250 881 250 857 c 4
 250 833 241.333007812 812.333007812 224 795 c 4
 206.666992188 777.666992188 186 769 162 769 c 4
 138 769 117.333007812 777.666992188 100 795 c 4
 82.6669921875 812.333007812 74 833 74 857 c 4
 74 881 82.6669921875 901.666992188 100 919 c 4
 117.333007812 936.333007812 138 945 162 945 c 4xf6
432 945 m 4
 456 945 476.666992188 936.333007812 494 919 c 4
 511.333007812 901.666992188 520 881 520 857 c 4
 520 833 511.333007812 812.333007812 494 795 c 4
 476.666992188 777.666992188 456 769 432 769 c 4
 408 769 387.333007812 777.666992188 370 795 c 4
 352.666992188 812.333007812 344 833 344 857 c 4
 344 881 352.666992188 901.666992188 370 919 c 4
 387.333007812 936.333007812 408 945 432 945 c 4
63 0 m 1xfa
 63 700 l 1
 538 700 l 1
 538 530 l 1
 233 530 l 1
 233 435 l 1
 468 435 l 1
 468 266 l 1
 233 266 l 1
 233 170 l 1
 539 170 l 1
 539 0 l 1
 63 0 l 1xfa
EndSplineSet
EndChar

StartChar: Igrave
Encoding: 204 204 137
GlifName: I_grave
Width: 296
Flags: W
HStem: 0 21G<63 233> 680 20G<63 233> 754 147<58.5 128.5>
VStem: 63 170<0 700>
LayerCount: 2
Fore
SplineSet
58.5 754 m 5
 -67.5 901 l 5
 128.5 901 l 5
 234.5 754 l 5
 58.5 754 l 5
63 0 m 1
 63 700 l 1
 233 700 l 1
 233 0 l 1
 63 0 l 1
EndSplineSet
EndChar

StartChar: Iacute
Encoding: 205 205 138
GlifName: I_acute
Width: 296
Flags: W
HStem: 0 21G<63 233> 680 20G<63 233> 750.5 147<166 236>
VStem: 63 170<0 700>
LayerCount: 2
Fore
SplineSet
63 0 m 1
 63 700 l 1
 233 700 l 1
 233 0 l 1
 63 0 l 1
60 750.5 m 5
 166 897.5 l 5
 362 897.5 l 5
 236 750.5 l 5
 60 750.5 l 5
EndSplineSet
EndChar

StartChar: Icircumflex
Encoding: 206 206 139
GlifName: I_circumflex
Width: 296
Flags: W
HStem: 0 21G<63 233> 680 20G<63 233> 754 146<71.0537 105.502 203.498 237.946>
VStem: 63 170<0 700>
LayerCount: 2
Fore
SplineSet
-59.25390625 754 m 1
 71.0537109375 900 l 1
 237.946289062 900 l 1
 368.25390625 754 l 1
 203.498046875 754 l 1
 154.5 806.009765625 l 1
 105.501953125 754 l 1
 -59.25390625 754 l 1
63 0 m 1
 63 700 l 1
 233 700 l 1
 233 0 l 1
 63 0 l 1
EndSplineSet
EndChar

StartChar: Idieresis
Encoding: 207 207 140
GlifName: I_dieresis
Width: 296
Flags: W
HStem: 0 21G<63 233> 680 20G<63 233> 799 176<-28.5372 85.5372 211.463 325.537>
VStem: -59.5 176<829.963 944.037> 63 170<0 700> 180.5 176<829.963 944.037>
LayerCount: 2
Fore
SplineSet
63 0 m 1xe8
 63 700 l 1
 233 700 l 1
 233 0 l 1
 63 0 l 1xe8
28.5 975 m 0
 52.5 975 73.1669921875 966.333007812 90.5 949 c 0
 107.833007812 931.666992188 116.5 911 116.5 887 c 0
 116.5 863 107.833007812 842.333007812 90.5 825 c 0
 73.1669921875 807.666992188 52.5 799 28.5 799 c 0
 4.5 799 -16.1669921875 807.666992188 -33.5 825 c 0
 -50.8330078125 842.333007812 -59.5 863 -59.5 887 c 0xf0
 -59.5 911 -50.8330078125 931.666992188 -33.5 949 c 0
 -16.1669921875 966.333007812 4.5 975 28.5 975 c 0
268.5 975 m 0
 292.5 975 313.166992188 966.333007812 330.5 949 c 0
 347.833007812 931.666992188 356.5 911 356.5 887 c 0
 356.5 863 347.833007812 842.333007812 330.5 825 c 0
 313.166992188 807.666992188 292.5 799 268.5 799 c 0
 244.5 799 223.833007812 807.666992188 206.5 825 c 0
 189.166992188 842.333007812 180.5 863 180.5 887 c 0xe4
 180.5 911 189.166992188 931.666992188 206.5 949 c 0
 223.833007812 966.333007812 244.5 975 268.5 975 c 0
EndSplineSet
EndChar

StartChar: Eth
Encoding: 208 208 141
GlifName: E_th
Width: 713
Flags: W
HStem: 0 170<233 421.475> 266 169<23 361> 530 170<233 421.475>
VStem: 63 170<170 530> 515 170<263.333 436.667>
LayerCount: 2
Fore
SplineSet
335 530 m 2
 233 530 l 1
 233 170 l 1
 335 170 l 2
 385 170 427.5 187.5 462.5 222.5 c 0
 497.5 257.5 515 300 515 350 c 0
 515 400 497.5 442.5 462.5 477.5 c 0
 427.5 512.5 385 530 335 530 c 2
335 700 m 2
 431.666992188 700 514.166992188 665.833007812 582.5 597.5 c 0
 650.833007812 529.166992188 685 446.666992188 685 350 c 0
 685 253.333007812 650.833007812 170.833007812 582.5 102.5 c 0
 514.166992188 34.1669921875 431.666992188 0 335 0 c 2
 63 0 l 1
 63 700 l 1
 335 700 l 2
23 266 m 1
 23 435 l 1
 361 435 l 1
 361 266 l 1
 23 266 l 1
EndSplineSet
EndChar

StartChar: Ntilde
Encoding: 209 209 142
GlifName: N_tilde
Width: 719
Flags: W
HStem: 0 21G<63 233 472.992 656> 680 20G<63 246.008 486 656> 714 106<396.544 451.46> 786 106<267.552 328.702>
VStem: 63 170<0 389> 486 170<311 700>
LayerCount: 2
Fore
SplineSet
430.5 714 m 0xec
 389.166992188 714 359.166992188 726 340.5 750 c 0
 333.166992188 759.333007812 326.166992188 767.666992188 319.5 775 c 0
 312.833007812 782.333007812 303.833007812 786 292.5 786 c 0
 277.833007812 786 267.5 773 261.5 747 c 1
 144.5 747 l 1
 147.166992188 789 162.5 823.666992188 190.5 851 c 0
 218.5 878.333007812 250.5 892 286.5 892 c 0xdc
 331.166992188 892 363.833007812 880 384.5 856 c 0
 392.5 846.666992188 399.5 838.333007812 405.5 831 c 0
 411.5 823.666992188 419.5 820 429.5 820 c 0
 443.5 820 452.166992188 833 455.5 859 c 1
 572.5 859 l 5
 567.833007812 816.333007812 552.333007812 781.5 526 754.5 c 0
 499.666992188 727.5 467.833007812 714 430.5 714 c 0xec
63 700 m 1
 233 700 l 1
 486 311 l 1
 486 700 l 1
 656 700 l 1
 656 0 l 1
 486 0 l 1
 233 389 l 1
 233 0 l 1
 63 0 l 1
 63 700 l 1
EndSplineSet
EndChar

StartChar: Ograve
Encoding: 210 210 143
GlifName: O_grave
Width: 780
Flags: W
HStem: -12.5 170<301.634 478.917> 541.5 170<301.713 479.519> 754 147<321.5 391.5>
VStem: 28 170<259.981 439.101> 582 170<260.557 437.866>
LayerCount: 2
Fore
SplineSet
321.5 754 m 5
 195.5 901 l 5
 391.5 901 l 5
 497.5 754 l 5
 321.5 754 l 5
390 541.5 m 0
 337.016601562 541.5 291.770507812 522.74609375 254.26171875 485.23828125 c 0
 216.75390625 447.729492188 198 402.483398438 198 349.5 c 0
 198 296.516601562 216.75390625 251.270507812 254.26171875 213.76171875 c 0
 291.770507812 176.25390625 337.016601562 157.5 390 157.5 c 0
 442.983398438 157.5 488.229492188 176.25390625 525.73828125 213.76171875 c 0
 563.24609375 251.270507812 582 296.516601562 582 349.5 c 0
 582 402.483398438 563.24609375 447.729492188 525.73828125 485.23828125 c 0
 488.229492188 522.74609375 442.983398438 541.5 390 541.5 c 0
390 711.5 m 0
 489.208007812 711.5 573.920898438 677 644.140625 608 c 0
 716.046875 537.342773438 752 451.17578125 752 349.5 c 0
 752 246.342773438 715.166992188 159.3203125 641.5 88.4326171875 c 0
 571.575195312 21.14453125 487.741210938 -12.5 390 -12.5 c 0
 288.32421875 -12.5 202.157226562 23.453125 131.5 95.359375 c 0
 62.5 165.579101562 28 250.291992188 28 349.5 c 0
 28 448.909179688 62.6181640625 533.743164062 131.853515625 604 c 0
 202.477539062 675.666992188 288.526367188 711.5 390 711.5 c 0
EndSplineSet
EndChar

StartChar: Oacute
Encoding: 211 211 144
GlifName: O_acute
Width: 780
Flags: W
HStem: -12.5 170<301.634 478.917> 541.5 170<301.713 479.519> 750.5 147<402 472>
VStem: 28 170<259.981 439.101> 582 170<260.557 437.866>
LayerCount: 2
Fore
SplineSet
390 541.5 m 0
 337.016601562 541.5 291.770507812 522.74609375 254.26171875 485.23828125 c 0
 216.75390625 447.729492188 198 402.483398438 198 349.5 c 0
 198 296.516601562 216.75390625 251.270507812 254.26171875 213.76171875 c 0
 291.770507812 176.25390625 337.016601562 157.5 390 157.5 c 0
 442.983398438 157.5 488.229492188 176.25390625 525.73828125 213.76171875 c 0
 563.24609375 251.270507812 582 296.516601562 582 349.5 c 0
 582 402.483398438 563.24609375 447.729492188 525.73828125 485.23828125 c 0
 488.229492188 522.74609375 442.983398438 541.5 390 541.5 c 0
390 711.5 m 0
 489.208007812 711.5 573.920898438 677 644.140625 608 c 0
 716.046875 537.342773438 752 451.17578125 752 349.5 c 0
 752 246.342773438 715.166992188 159.3203125 641.5 88.4326171875 c 0
 571.575195312 21.14453125 487.741210938 -12.5 390 -12.5 c 0
 288.32421875 -12.5 202.157226562 23.453125 131.5 95.359375 c 0
 62.5 165.579101562 28 250.291992188 28 349.5 c 0
 28 448.909179688 62.6181640625 533.743164062 131.853515625 604 c 0
 202.477539062 675.666992188 288.526367188 711.5 390 711.5 c 0
296 750.5 m 5
 402 897.5 l 5
 598 897.5 l 5
 472 750.5 l 5
 296 750.5 l 5
EndSplineSet
EndChar

StartChar: Ocircumflex
Encoding: 212 212 145
GlifName: O_circumflex
Width: 780
Flags: W
HStem: -12.5 170<301.634 478.917> 541.5 170<301.713 479.519> 754 146<303.054 337.502 435.498 469.946>
VStem: 28 170<259.981 439.101> 582 170<260.557 437.866>
LayerCount: 2
Fore
SplineSet
172.74609375 754 m 1
 303.053710938 900 l 1
 469.946289062 900 l 1
 600.25390625 754 l 1
 435.498046875 754 l 1
 386.5 806.009765625 l 1
 337.501953125 754 l 1
 172.74609375 754 l 1
390 541.5 m 0
 337.016601562 541.5 291.770507812 522.74609375 254.26171875 485.23828125 c 0
 216.75390625 447.729492188 198 402.483398438 198 349.5 c 0
 198 296.516601562 216.75390625 251.270507812 254.26171875 213.76171875 c 0
 291.770507812 176.25390625 337.016601562 157.5 390 157.5 c 0
 442.983398438 157.5 488.229492188 176.25390625 525.73828125 213.76171875 c 0
 563.24609375 251.270507812 582 296.516601562 582 349.5 c 0
 582 402.483398438 563.24609375 447.729492188 525.73828125 485.23828125 c 0
 488.229492188 522.74609375 442.983398438 541.5 390 541.5 c 0
390 711.5 m 0
 489.208007812 711.5 573.920898438 677 644.140625 608 c 0
 716.046875 537.342773438 752 451.17578125 752 349.5 c 0
 752 246.342773438 715.166992188 159.3203125 641.5 88.4326171875 c 0
 571.575195312 21.14453125 487.741210938 -12.5 390 -12.5 c 0
 288.32421875 -12.5 202.157226562 23.453125 131.5 95.359375 c 0
 62.5 165.579101562 28 250.291992188 28 349.5 c 0
 28 448.909179688 62.6181640625 533.743164062 131.853515625 604 c 0
 202.477539062 675.666992188 288.526367188 711.5 390 711.5 c 0
EndSplineSet
EndChar

StartChar: Otilde
Encoding: 213 213 146
GlifName: O_tilde
Width: 780
Flags: W
HStem: -12.5 170<301.634 478.917> 541.5 170<301.713 479.519> 734 106<449.544 504.46> 806 106<320.552 381.702>
VStem: 28 170<259.981 439.101> 582 170<260.557 437.866>
LayerCount: 2
Fore
SplineSet
483.5 734 m 0xec
 442.166992188 734 412.166992188 746 393.5 770 c 0
 386.166992188 779.333007812 379.166992188 787.666992188 372.5 795 c 0
 365.833007812 802.333007812 356.833007812 806 345.5 806 c 0
 330.833007812 806 320.5 793 314.5 767 c 1
 197.5 767 l 1
 200.166992188 809 215.5 843.666992188 243.5 871 c 0
 271.5 898.333007812 303.5 912 339.5 912 c 0xdc
 384.166992188 912 416.833007812 900 437.5 876 c 0
 445.5 866.666992188 452.5 858.333007812 458.5 851 c 0
 464.5 843.666992188 472.5 840 482.5 840 c 0
 496.5 840 505.166992188 853 508.5 879 c 1
 625.5 879 l 5
 620.833007812 836.333007812 605.333007812 801.5 579 774.5 c 0
 552.666992188 747.5 520.833007812 734 483.5 734 c 0xec
390 541.5 m 0
 337.016601562 541.5 291.770507812 522.74609375 254.26171875 485.23828125 c 0
 216.75390625 447.729492188 198 402.483398438 198 349.5 c 0
 198 296.516601562 216.75390625 251.270507812 254.26171875 213.76171875 c 0
 291.770507812 176.25390625 337.016601562 157.5 390 157.5 c 0
 442.983398438 157.5 488.229492188 176.25390625 525.73828125 213.76171875 c 0
 563.24609375 251.270507812 582 296.516601562 582 349.5 c 0
 582 402.483398438 563.24609375 447.729492188 525.73828125 485.23828125 c 0
 488.229492188 522.74609375 442.983398438 541.5 390 541.5 c 0
390 711.5 m 0
 489.208007812 711.5 573.920898438 677 644.140625 608 c 0
 716.046875 537.342773438 752 451.17578125 752 349.5 c 0
 752 246.342773438 715.166992188 159.3203125 641.5 88.4326171875 c 0
 571.575195312 21.14453125 487.741210938 -12.5 390 -12.5 c 0
 288.32421875 -12.5 202.157226562 23.453125 131.5 95.359375 c 0
 62.5 165.579101562 28 250.291992188 28 349.5 c 0
 28 448.909179688 62.6181640625 533.743164062 131.853515625 604 c 0
 202.477539062 675.666992188 288.526367188 711.5 390 711.5 c 0
EndSplineSet
EndChar

StartChar: Odieresis
Encoding: 214 214 147
GlifName: O_dieresis
Width: 780
Flags: W
HStem: -12.5 170<301.634 478.917> 541.5 170<301.713 479.519> 769 176<208.463 322.537 478.463 592.537>
VStem: 28 170<259.981 439.101> 177.5 176<799.963 914.037> 447.5 176<799.963 914.037> 582 170<260.557 437.866>
LayerCount: 2
Fore
SplineSet
265.5 945 m 4xe8
 289.5 945 310.166992188 936.333007812 327.5 919 c 4
 344.833007812 901.666992188 353.5 881 353.5 857 c 4
 353.5 833 344.833007812 812.333007812 327.5 795 c 4
 310.166992188 777.666992188 289.5 769 265.5 769 c 4
 241.5 769 220.833007812 777.666992188 203.5 795 c 4
 186.166992188 812.333007812 177.5 833 177.5 857 c 4
 177.5 881 186.166992188 901.666992188 203.5 919 c 4
 220.833007812 936.333007812 241.5 945 265.5 945 c 4xe8
535.5 945 m 4
 559.5 945 580.166992188 936.333007812 597.5 919 c 4
 614.833007812 901.666992188 623.5 881 623.5 857 c 4
 623.5 833 614.833007812 812.333007812 597.5 795 c 4
 580.166992188 777.666992188 559.5 769 535.5 769 c 4
 511.5 769 490.833007812 777.666992188 473.5 795 c 4
 456.166992188 812.333007812 447.5 833 447.5 857 c 4xe4
 447.5 881 456.166992188 901.666992188 473.5 919 c 4
 490.833007812 936.333007812 511.5 945 535.5 945 c 4
390 541.5 m 0
 337.016601562 541.5 291.770507812 522.74609375 254.26171875 485.23828125 c 0
 216.75390625 447.729492188 198 402.483398438 198 349.5 c 0
 198 296.516601562 216.75390625 251.270507812 254.26171875 213.76171875 c 0
 291.770507812 176.25390625 337.016601562 157.5 390 157.5 c 0
 442.983398438 157.5 488.229492188 176.25390625 525.73828125 213.76171875 c 0
 563.24609375 251.270507812 582 296.516601562 582 349.5 c 0xf2
 582 402.483398438 563.24609375 447.729492188 525.73828125 485.23828125 c 0
 488.229492188 522.74609375 442.983398438 541.5 390 541.5 c 0
390 711.5 m 0
 489.208007812 711.5 573.920898438 677 644.140625 608 c 0
 716.046875 537.342773438 752 451.17578125 752 349.5 c 0
 752 246.342773438 715.166992188 159.3203125 641.5 88.4326171875 c 0
 571.575195312 21.14453125 487.741210938 -12.5 390 -12.5 c 0
 288.32421875 -12.5 202.157226562 23.453125 131.5 95.359375 c 0
 62.5 165.579101562 28 250.291992188 28 349.5 c 0
 28 448.909179688 62.6181640625 533.743164062 131.853515625 604 c 0
 202.477539062 675.666992188 288.526367188 711.5 390 711.5 c 0
EndSplineSet
EndChar

StartChar: multiply
Encoding: 215 215 148
GlifName: multiply
Width: 646
Flags: W
LayerCount: 2
Fore
SplineSet
212.604492188 67.3955078125 m 1
 92.3955078125 187.604492188 l 1
 202.791015625 298 l 1
 92.3955078125 408.395507812 l 1
 212.604492188 528.604492188 l 1
 323 418.208984375 l 1
 433.395507812 528.604492188 l 1
 553.604492188 408.395507812 l 1
 443.208984375 298 l 1
 553.604492188 187.604492188 l 1
 433.395507812 67.3955078125 l 1
 323 177.791015625 l 1
 212.604492188 67.3955078125 l 1
EndSplineSet
EndChar

StartChar: Oslash
Encoding: 216 216 149
GlifName: O_slash
Width: 779
Flags: W
HStem: -12.5 170<344.166 478.917> 541.5 170<301.713 435.292>
VStem: 28 170<241.395 439.101> 582 170<260.557 456.91>
LayerCount: 2
Fore
SplineSet
390 541.5 m 0
 337.016601562 541.5 291.770507812 522.74609375 254.26171875 485.23828125 c 0
 216.75390625 447.729492188 198 402.483398438 198 349.5 c 0
 198 296.516601562 216.75390625 251.270507812 254.26171875 213.76171875 c 0
 291.770507812 176.25390625 337.016601562 157.5 390 157.5 c 0
 442.983398438 157.5 488.229492188 176.25390625 525.73828125 213.76171875 c 0
 563.24609375 251.270507812 582 296.516601562 582 349.5 c 0
 582 402.483398438 563.24609375 447.729492188 525.73828125 485.23828125 c 0
 488.229492188 522.74609375 442.983398438 541.5 390 541.5 c 0
390 711.5 m 0
 489.208007812 711.5 573.920898438 677 644.140625 608 c 0
 716.046875 537.342773438 752 451.17578125 752 349.5 c 0
 752 246.342773438 715.166992188 159.3203125 641.5 88.4326171875 c 0
 571.575195312 21.14453125 487.741210938 -12.5 390 -12.5 c 0
 288.32421875 -12.5 202.157226562 23.453125 131.5 95.359375 c 0
 62.5 165.579101562 28 250.291992188 28 349.5 c 0
 28 448.909179688 62.6181640625 533.743164062 131.853515625 604 c 0
 202.477539062 675.666992188 288.526367188 711.5 390 711.5 c 0
243.162109375 -7.6826171875 m 1
 103.907226562 89.826171875 l 1
 535.842773438 706.690429688 l 1
 675.098632812 609.182617188 l 1
 243.162109375 -7.6826171875 l 1
EndSplineSet
EndChar

StartChar: Ugrave
Encoding: 217 217 150
GlifName: U_grave
Width: 706
Flags: W
HStem: -12 170<284.759 421.241> 680 20G<53 223 483 653> 754 147<276 346>
VStem: 53 170<225.026 700> 483 170<225.026 700>
LayerCount: 2
Fore
SplineSet
276 754 m 5
 150 901 l 5
 346 901 l 5
 452 754 l 5
 276 754 l 5
53 700 m 1
 223 700 l 1
 223 318 l 2
 223 269.333007812 235.5 230.5 260.5 201.5 c 0
 285.5 172.5 316.333007812 158 353 158 c 0
 389.666992188 158 420.5 172.5 445.5 201.5 c 0
 470.5 230.5 483 269.333007812 483 318 c 2
 483 700 l 1
 653 700 l 1
 653 318 l 2
 653 222 624 143 566 81 c 0
 508 19 437 -12 353 -12 c 0
 269 -12 198 19 140 81 c 0
 82 143 53 222 53 318 c 2
 53 700 l 1
EndSplineSet
EndChar

StartChar: Uacute
Encoding: 218 218 151
GlifName: U_acute
Width: 706
Flags: W
HStem: -12 170<284.759 421.241> 680 20G<53 223 483 653> 723.5 147<372 442>
VStem: 53 170<225.026 700> 483 170<225.026 700>
LayerCount: 2
Fore
SplineSet
266 723.5 m 5
 372 870.5 l 5
 568 870.5 l 5
 442 723.5 l 5
 266 723.5 l 5
53 700 m 1
 223 700 l 1
 223 318 l 2
 223 269.333007812 235.5 230.5 260.5 201.5 c 0
 285.5 172.5 316.333007812 158 353 158 c 0
 389.666992188 158 420.5 172.5 445.5 201.5 c 0
 470.5 230.5 483 269.333007812 483 318 c 2
 483 700 l 1
 653 700 l 1
 653 318 l 2
 653 222 624 143 566 81 c 0
 508 19 437 -12 353 -12 c 0
 269 -12 198 19 140 81 c 0
 82 143 53 222 53 318 c 2
 53 700 l 1
EndSplineSet
EndChar

StartChar: Ucircumflex
Encoding: 219 219 152
GlifName: U_circumflex
Width: 706
Flags: W
HStem: -12 170<284.759 421.241> 680 20G<53 223 483 653> 754 146<253.554 288.002 385.998 420.446>
VStem: 53 170<225.026 700> 483 170<225.026 700>
LayerCount: 2
Fore
SplineSet
123.24609375 754 m 1
 253.553710938 900 l 1
 420.446289062 900 l 1
 550.75390625 754 l 1
 385.998046875 754 l 1
 337 806.009765625 l 1
 288.001953125 754 l 1
 123.24609375 754 l 1
53 700 m 1
 223 700 l 1
 223 318 l 2
 223 269.333007812 235.5 230.5 260.5 201.5 c 0
 285.5 172.5 316.333007812 158 353 158 c 0
 389.666992188 158 420.5 172.5 445.5 201.5 c 0
 470.5 230.5 483 269.333007812 483 318 c 2
 483 700 l 1
 653 700 l 1
 653 318 l 2
 653 222 624 143 566 81 c 0
 508 19 437 -12 353 -12 c 0
 269 -12 198 19 140 81 c 0
 82 143 53 222 53 318 c 2
 53 700 l 1
EndSplineSet
EndChar

StartChar: Udieresis
Encoding: 220 220 153
GlifName: U_dieresis
Width: 706
Flags: W
HStem: -12 170<284.759 421.241> 680 20G<53 223 483 653> 769 176<160.963 275.037 430.963 545.037>
VStem: 53 170<225.026 700> 130 176<799.963 914.037> 400 176<799.963 914.037> 483 170<225.026 700>
LayerCount: 2
Fore
SplineSet
218 945 m 4xe8
 242 945 262.666992188 936.333007812 280 919 c 4
 297.333007812 901.666992188 306 881 306 857 c 4
 306 833 297.333007812 812.333007812 280 795 c 4
 262.666992188 777.666992188 242 769 218 769 c 4
 194 769 173.333007812 777.666992188 156 795 c 4
 138.666992188 812.333007812 130 833 130 857 c 4
 130 881 138.666992188 901.666992188 156 919 c 4
 173.333007812 936.333007812 194 945 218 945 c 4xe8
488 945 m 4
 512 945 532.666992188 936.333007812 550 919 c 4
 567.333007812 901.666992188 576 881 576 857 c 4
 576 833 567.333007812 812.333007812 550 795 c 4
 532.666992188 777.666992188 512 769 488 769 c 4
 464 769 443.333007812 777.666992188 426 795 c 4
 408.666992188 812.333007812 400 833 400 857 c 4xe4
 400 881 408.666992188 901.666992188 426 919 c 4
 443.333007812 936.333007812 464 945 488 945 c 4
53 700 m 1xf2
 223 700 l 1
 223 318 l 2
 223 269.333007812 235.5 230.5 260.5 201.5 c 0
 285.5 172.5 316.333007812 158 353 158 c 0
 389.666992188 158 420.5 172.5 445.5 201.5 c 0
 470.5 230.5 483 269.333007812 483 318 c 2
 483 700 l 1
 653 700 l 1
 653 318 l 2
 653 222 624 143 566 81 c 0
 508 19 437 -12 353 -12 c 0
 269 -12 198 19 140 81 c 0
 82 143 53 222 53 318 c 2
 53 700 l 1xf2
EndSplineSet
EndChar

StartChar: Yacute
Encoding: 221 221 154
GlifName: Y_acute
Width: 641
Flags: W
HStem: 0 21G<235.5 405.492> 680 20G<9 219.465 421.535 632> 723.5 147<326 396>
VStem: 235.5 169.992<0 308.268>
LayerCount: 2
Fore
SplineSet
220 723.5 m 5
 326 870.5 l 5
 522 870.5 l 5
 396 723.5 l 5
 220 723.5 l 5
9 700 m 1
 208 700 l 1
 320.5 503.758789062 l 1
 433 700 l 1
 632 700 l 1
 405.4921875 308.267578125 l 5
 405.4921875 0 l 1
 235.5 0 l 1
 235.5 308.28125 l 1
 9 700 l 1
EndSplineSet
EndChar

StartChar: Thorn
Encoding: 222 222 155
GlifName: T_horn
Width: 614
Flags: W
HStem: 1 21G<73 243> 111 170<243 408.315> 431 170<243 408.315> 681 20G<73 243>
VStem: 73 170<1 111 281 431 601 701> 431.5 170<304.082 407.918>
LayerCount: 2
Fore
SplineSet
73 701 m 1
 243 701 l 1
 243 601 l 1
 356.5 601 l 2
 424.154296875 601 481.901367188 577.080078125 529.741210938 529.241210938 c 0
 577.580078125 481.401367188 601.5 423.654296875 601.5 356 c 0
 601.5 288.345703125 577.580078125 230.598632812 529.741210938 182.758789062 c 0
 481.901367188 134.919921875 424.154296875 111 356.5 111 c 2
 243 111 l 1
 243 1 l 1
 73 1 l 1
 73 701 l 1
243 431 m 1
 243 281 l 1
 356.5 281 l 2
 376.79296875 281 394.365234375 288.426757812 409.219726562 303.280273438 c 0
 424.073242188 318.134765625 431.5 335.70703125 431.5 356 c 0
 431.5 376.29296875 424.073242188 393.865234375 409.219726562 408.719726562 c 0
 394.365234375 423.573242188 376.79296875 431 356.5 431 c 2
 243 431 l 1
EndSplineSet
EndChar

StartChar: germandbls
Encoding: 223 223 156
GlifName: germandbls
Width: 566
Flags: W
HStem: 0 21G<48 218 277 334.333> 542 170<235.847 335.839>
VStem: 48 170<0 523.436> 352 170<450.599 526.885> 368 170<185.115 256.774>
LayerCount: 2
Fore
SplineSet
285 712 m 0xf0
 351.666992188 712 407.833007812 690.5 453.5 647.5 c 0
 499.166992188 604.5 522 552.333007812 522 491 c 0xf0
 522 468.328125 518.826171875 446.661132812 512.478515625 426 c 0
 505.846679688 404.413085938 495.75 383.923828125 482.189453125 364.53125 c 1
 498.40234375 346.64453125 511.083007812 327.467773438 520.231445312 307 c 4
 532.077148438 280.497070312 538 251.830078125 538 221 c 0
 538 159.666992188 515.166992188 107.5 469.5 64.5 c 0
 423.833007812 21.5 367.666992188 0 301 0 c 2
 277 0 l 1
 277 170 l 1
 301 170 l 2
 320.333007812 170 336.333007812 175 349 185 c 0
 361.666992188 195 368 207 368 221 c 0xe8
 368 235 361.666992188 246.833007812 349 256.5 c 0
 336.333007812 266.166992188 320.333007812 271 301 271 c 2
 277 271 l 1
 277 441 l 1
 301 441 l 2
 314.333007812 441 326.166992188 446 336.5 456 c 0
 346.833007812 466 352 477.666992188 352 491 c 0
 352 505 345.833007812 517 333.5 527 c 0
 321.166992188 537 305 542 285 542 c 0
 265.666992188 542 249.666992188 536 237 524 c 0
 224.333007812 512 218 498.333007812 218 483 c 2
 218 0 l 1
 48 0 l 1
 48 483 l 2
 48 545.666992188 70.8330078125 599.5 116.5 644.5 c 0
 162.166992188 689.5 218.333007812 712 285 712 c 0xf0
EndSplineSet
EndChar

StartChar: agrave
Encoding: 224 224 157
GlifName: agrave
Width: 602
Flags: W
HStem: -12 168<230.325 349.803> 0 21G<406 554> 344 168<230.325 349.731> 480 20G<406 554> 554 147<198 268>
VStem: 23 173<190.234 309.766> 384 170<189.653 310.347> 406 148<0 32.9893 462.037 500>
LayerCount: 2
Fore
SplineSet
198 554 m 5x0c
 72 701 l 5
 268 701 l 5
 374 554 l 5
 198 554 l 5x0c
406 500 m 1x1d
 554 500 l 1
 554 0 l 1
 406 0 l 1x5d
 406 32.9892578125 l 1
 402.436523438 29.900390625 398.76953125 26.9716796875 395 24.201171875 c 4
 362.161132812 0.0673828125 321.494140625 -12 273 -12 c 0
 201.666992188 -12 142.166992188 13.3330078125 94.5 64 c 0
 46.8330078125 114.666992188 23 176.666992188 23 250 c 0
 23 323.333007812 46.8330078125 385.333007812 94.5 436 c 0
 142.166992188 486.666992188 201.666992188 512 273 512 c 0xad
 320.841796875 512 361.841796875 498.225585938 396 470.676757812 c 0
 399.401367188 467.93359375 402.734375 465.053710938 406 462.037109375 c 1
 406 500 l 1x1d
290 344 m 0xae
 264 344 241.833007812 334.833007812 223.5 316.5 c 0
 205.166992188 298.166992188 196 276 196 250 c 0
 196 224 205.166992188 201.833007812 223.5 183.5 c 0
 241.833007812 165.166992188 264 156 290 156 c 0
 316 156 338.166992188 165.166992188 356.5 183.5 c 0
 374.833007812 201.833007812 384 224 384 250 c 0
 384 276 374.833007812 298.166992188 356.5 316.5 c 0
 338.166992188 334.833007812 316 344 290 344 c 0xae
EndSplineSet
EndChar

StartChar: aacute
Encoding: 225 225 158
GlifName: aacute
Width: 602
Flags: W
HStem: -12 168<230.325 349.803> 0 21G<406 554> 344 168<230.325 349.731> 480 20G<406 554> 553.5 147<286 356>
VStem: 23 173<190.234 309.766> 384 170<189.653 310.347> 406 148<0 32.9893 462.037 500>
LayerCount: 2
Fore
SplineSet
180 553.5 m 5x0c
 286 700.5 l 5
 482 700.5 l 5
 356 553.5 l 5
 180 553.5 l 5x0c
406 500 m 1x1d
 554 500 l 1
 554 0 l 1
 406 0 l 1x5d
 406 32.9892578125 l 1
 402.436523438 29.900390625 398.76953125 26.9716796875 395 24.201171875 c 4
 362.161132812 0.0673828125 321.494140625 -12 273 -12 c 0
 201.666992188 -12 142.166992188 13.3330078125 94.5 64 c 0
 46.8330078125 114.666992188 23 176.666992188 23 250 c 0
 23 323.333007812 46.8330078125 385.333007812 94.5 436 c 0
 142.166992188 486.666992188 201.666992188 512 273 512 c 0xad
 320.841796875 512 361.841796875 498.225585938 396 470.676757812 c 0
 399.401367188 467.93359375 402.734375 465.053710938 406 462.037109375 c 1
 406 500 l 1x1d
290 344 m 0xae
 264 344 241.833007812 334.833007812 223.5 316.5 c 0
 205.166992188 298.166992188 196 276 196 250 c 0
 196 224 205.166992188 201.833007812 223.5 183.5 c 0
 241.833007812 165.166992188 264 156 290 156 c 0
 316 156 338.166992188 165.166992188 356.5 183.5 c 0
 374.833007812 201.833007812 384 224 384 250 c 0
 384 276 374.833007812 298.166992188 356.5 316.5 c 0
 338.166992188 334.833007812 316 344 290 344 c 0xae
EndSplineSet
EndChar

StartChar: acircumflex
Encoding: 226 226 159
GlifName: acircumflex
Width: 602
Flags: W
HStem: -12 168<230.325 349.803> 0 21G<406 554> 344 168<230.325 349.731> 480 20G<406 554> 554 146<208.554 243.002 340.998 375.446>
VStem: 23 173<190.234 309.766> 384 170<189.653 310.347> 406 148<0 32.9893 462.037 500>
LayerCount: 2
Fore
SplineSet
78.24609375 554 m 1x0c
 208.553710938 700 l 1
 375.446289062 700 l 1
 505.75390625 554 l 1
 340.998046875 554 l 1
 292 606.009765625 l 1
 243.001953125 554 l 1
 78.24609375 554 l 1x0c
406 500 m 1x1d
 554 500 l 1
 554 0 l 1
 406 0 l 1x5d
 406 32.9892578125 l 1
 402.436523438 29.900390625 398.76953125 26.9716796875 395 24.201171875 c 4
 362.161132812 0.0673828125 321.494140625 -12 273 -12 c 0
 201.666992188 -12 142.166992188 13.3330078125 94.5 64 c 0
 46.8330078125 114.666992188 23 176.666992188 23 250 c 0
 23 323.333007812 46.8330078125 385.333007812 94.5 436 c 0
 142.166992188 486.666992188 201.666992188 512 273 512 c 0xad
 320.841796875 512 361.841796875 498.225585938 396 470.676757812 c 0
 399.401367188 467.93359375 402.734375 465.053710938 406 462.037109375 c 1
 406 500 l 1x1d
290 344 m 0xae
 264 344 241.833007812 334.833007812 223.5 316.5 c 0
 205.166992188 298.166992188 196 276 196 250 c 0
 196 224 205.166992188 201.833007812 223.5 183.5 c 0
 241.833007812 165.166992188 264 156 290 156 c 0
 316 156 338.166992188 165.166992188 356.5 183.5 c 0
 374.833007812 201.833007812 384 224 384 250 c 0
 384 276 374.833007812 298.166992188 356.5 316.5 c 0
 338.166992188 334.833007812 316 344 290 344 c 0xae
EndSplineSet
EndChar

StartChar: atilde
Encoding: 227 227 160
GlifName: atilde
Width: 602
Flags: W
HStem: -12 168<230.325 349.803> 0 21G<406 554> 344 168<230.325 349.731> 480 20G<406 554> 534 106<342.044 396.96> 606 106<213.052 274.202>
VStem: 23 173<190.234 309.766> 384 170<189.653 310.347> 406 148<0 32.9893 462.037 500>
LayerCount: 2
Fore
SplineSet
376 534 m 0x0a
 334.666992188 534 304.666992188 546 286 570 c 0
 278.666992188 579.333007812 271.666992188 587.666992188 265 595 c 0
 258.333007812 602.333007812 249.333007812 606 238 606 c 0
 223.333007812 606 213 593 207 567 c 1
 90 567 l 1
 92.6669921875 609 108 643.666992188 136 671 c 0
 164 698.333007812 196 712 232 712 c 0x06
 276.666992188 712 309.333007812 700 330 676 c 0
 338 666.666992188 345 658.333007812 351 651 c 0
 357 643.666992188 365 640 375 640 c 0
 389 640 397.666992188 653 401 679 c 1
 518 679 l 5
 513.333007812 636.333007812 497.833007812 601.5 471.5 574.5 c 0
 445.166992188 547.5 413.333007812 534 376 534 c 0x0a
406 500 m 1x1280
 554 500 l 1
 554 0 l 1
 406 0 l 1x5280
 406 32.9892578125 l 1
 402.436523438 29.900390625 398.76953125 26.9716796875 395 24.201171875 c 4
 362.161132812 0.0673828125 321.494140625 -12 273 -12 c 0
 201.666992188 -12 142.166992188 13.3330078125 94.5 64 c 0
 46.8330078125 114.666992188 23 176.666992188 23 250 c 0
 23 323.333007812 46.8330078125 385.333007812 94.5 436 c 0
 142.166992188 486.666992188 201.666992188 512 273 512 c 0xa280
 320.841796875 512 361.841796875 498.225585938 396 470.676757812 c 0
 399.401367188 467.93359375 402.734375 465.053710938 406 462.037109375 c 1
 406 500 l 1x1280
290 344 m 0xa3
 264 344 241.833007812 334.833007812 223.5 316.5 c 0
 205.166992188 298.166992188 196 276 196 250 c 0
 196 224 205.166992188 201.833007812 223.5 183.5 c 0
 241.833007812 165.166992188 264 156 290 156 c 0
 316 156 338.166992188 165.166992188 356.5 183.5 c 0
 374.833007812 201.833007812 384 224 384 250 c 0
 384 276 374.833007812 298.166992188 356.5 316.5 c 0
 338.166992188 334.833007812 316 344 290 344 c 0xa3
EndSplineSet
EndChar

StartChar: adieresis
Encoding: 228 228 161
GlifName: adieresis
Width: 602
Flags: W
HStem: -12 168<230.325 349.803> 0 21G<406 554> 344 168<230.325 349.731> 480 20G<406 554> 569 176<97.9628 212.037 367.963 482.037>
VStem: 23 173<190.234 309.766> 67 176<599.963 714.037> 337 176<599.963 714.037> 384 170<189.653 310.347> 406 148<0 32.9893 462.037 500>
LayerCount: 2
Fore
SplineSet
155 745 m 4x0a
 179 745 199.666992188 736.333007812 217 719 c 4
 234.333007812 701.666992188 243 681 243 657 c 4
 243 633 234.333007812 612.333007812 217 595 c 4
 199.666992188 577.666992188 179 569 155 569 c 4
 131 569 110.333007812 577.666992188 93 595 c 4
 75.6669921875 612.333007812 67 633 67 657 c 4
 67 681 75.6669921875 701.666992188 93 719 c 4
 110.333007812 736.333007812 131 745 155 745 c 4x0a
425 745 m 4
 449 745 469.666992188 736.333007812 487 719 c 4
 504.333007812 701.666992188 513 681 513 657 c 4
 513 633 504.333007812 612.333007812 487 595 c 4
 469.666992188 577.666992188 449 569 425 569 c 4
 401 569 380.333007812 577.666992188 363 595 c 4
 345.666992188 612.333007812 337 633 337 657 c 4x09
 337 681 345.666992188 701.666992188 363 719 c 4
 380.333007812 736.333007812 401 745 425 745 c 4
406 500 m 1x1c40
 554 500 l 1
 554 0 l 1
 406 0 l 1x5c40
 406 32.9892578125 l 1
 402.436523438 29.900390625 398.76953125 26.9716796875 395 24.201171875 c 4
 362.161132812 0.0673828125 321.494140625 -12 273 -12 c 0
 201.666992188 -12 142.166992188 13.3330078125 94.5 64 c 0
 46.8330078125 114.666992188 23 176.666992188 23 250 c 0
 23 323.333007812 46.8330078125 385.333007812 94.5 436 c 0
 142.166992188 486.666992188 201.666992188 512 273 512 c 0xac40
 320.841796875 512 361.841796875 498.225585938 396 470.676757812 c 0
 399.401367188 467.93359375 402.734375 465.053710938 406 462.037109375 c 1
 406 500 l 1x1c40
290 344 m 0xac80
 264 344 241.833007812 334.833007812 223.5 316.5 c 0
 205.166992188 298.166992188 196 276 196 250 c 0
 196 224 205.166992188 201.833007812 223.5 183.5 c 0
 241.833007812 165.166992188 264 156 290 156 c 0
 316 156 338.166992188 165.166992188 356.5 183.5 c 0
 374.833007812 201.833007812 384 224 384 250 c 0
 384 276 374.833007812 298.166992188 356.5 316.5 c 0
 338.166992188 334.833007812 316 344 290 344 c 0xac80
EndSplineSet
EndChar

StartChar: aring
Encoding: 229 229 162
GlifName: aring
Width: 602
Flags: W
HStem: -12 168<230.325 349.803> 0 21G<406 554> 344 168<230.325 349.731> 480 20G<406 554> 520 97.1309<257.483 310.517> 681.869 97.1309<257.483 310.517>
VStem: 23 173<190.234 309.766> 154.5 97.1309<622.983 676.017> 316.369 97.1309<622.983 676.017> 384 170<189.653 310.347> 406 148<0 32.9893 462.037 500>
LayerCount: 2
Fore
SplineSet
284 779 m 0x0d80
 319.736328125 779 350.25390625 766.350585938 375.552734375 741.052734375 c 0
 400.850585938 715.75390625 413.5 685.236328125 413.5 649.5 c 0
 413.5 613.763671875 400.850585938 583.24609375 375.552734375 557.947265625 c 0
 350.25390625 532.649414062 319.736328125 520 284 520 c 0
 248.263671875 520 217.74609375 532.649414062 192.447265625 557.947265625 c 0
 167.149414062 583.24609375 154.5 613.763671875 154.5 649.5 c 0
 154.5 685.236328125 167.149414062 715.75390625 192.447265625 741.052734375 c 0
 217.74609375 766.350585938 248.263671875 779 284 779 c 0x0d80
284 681.869140625 m 0
 275.067382812 681.869140625 267.439453125 678.70703125 261.116210938 672.383789062 c 0
 254.79296875 666.060546875 251.630859375 658.432617188 251.630859375 649.5 c 0
 251.630859375 640.567382812 254.79296875 632.939453125 261.116210938 626.616210938 c 0
 267.439453125 620.29296875 275.067382812 617.130859375 284 617.130859375 c 0
 292.932617188 617.130859375 300.560546875 620.29296875 306.883789062 626.616210938 c 0
 313.20703125 632.939453125 316.369140625 640.567382812 316.369140625 649.5 c 0
 316.369140625 658.432617188 313.20703125 666.060546875 306.883789062 672.383789062 c 0
 300.560546875 678.70703125 292.932617188 681.869140625 284 681.869140625 c 0
406 500 m 1x1e20
 554 500 l 1
 554 0 l 1
 406 0 l 1x5e20
 406 32.9892578125 l 1
 402.436523438 29.900390625 398.76953125 26.9716796875 395 24.201171875 c 4
 362.161132812 0.0673828125 321.494140625 -12 273 -12 c 0
 201.666992188 -12 142.166992188 13.3330078125 94.5 64 c 0
 46.8330078125 114.666992188 23 176.666992188 23 250 c 0
 23 323.333007812 46.8330078125 385.333007812 94.5 436 c 0
 142.166992188 486.666992188 201.666992188 512 273 512 c 0xae20
 320.841796875 512 361.841796875 498.225585938 396 470.676757812 c 0
 399.401367188 467.93359375 402.734375 465.053710938 406 462.037109375 c 1
 406 500 l 1x1e20
290 344 m 0xae40
 264 344 241.833007812 334.833007812 223.5 316.5 c 0
 205.166992188 298.166992188 196 276 196 250 c 0
 196 224 205.166992188 201.833007812 223.5 183.5 c 0
 241.833007812 165.166992188 264 156 290 156 c 0
 316 156 338.166992188 165.166992188 356.5 183.5 c 0
 374.833007812 201.833007812 384 224 384 250 c 0
 384 276 374.833007812 298.166992188 356.5 316.5 c 0
 338.166992188 334.833007812 316 344 290 344 c 0xae40
EndSplineSet
EndChar

StartChar: ae
Encoding: 230 230 163
GlifName: ae
Width: 1122
Flags: W
HStem: -12 168<230.325 349.803> -12 136<791.419 937.257> 0 21G<406 554> 180.354 119.646<763.732 913.918> 344 168<230.325 349.731> 356 156<780.619 892.894> 480 20G<406 554>
VStem: 23 173<190.234 309.766> 384 170<189.653 310.347> 406 148<0 32.9893 462.037 500> 571.4 514<182.463 298.688>
LayerCount: 2
Fore
SplineSet
1085.40039062 180.353515625 m 5x5520
 763.732421875 180.353515625 l 5
 770.4140625 166.025390625 780.881835938 153.05078125 795.13671875 141.430664062 c 4
 809.391601562 129.810546875 826.8125 124 847.400390625 124 c 4
 890.549804688 124 908.09375 132.180664062 941.921875 147.955078125 c 5
 1027.1953125 43.728515625 l 5
 966.338867188 1.1171875 915.336914062 -12 847.400390625 -12 c 4
 772.06640625 -12 707.233398438 13.6669921875 652.900390625 65 c 4
 598.56640625 116.333007812 571.400390625 178 571.400390625 250 c 4
 571.400390625 322.666992188 596.900390625 384.5 647.900390625 435.5 c 4
 698.900390625 486.5 760.733398438 512 833.400390625 512 c 4
 902.733398438 512 962.06640625 486.333007812 1011.40039062 435 c 4
 1060.73339844 383.666992188 1085.40039062 320 1085.40039062 244 c 6
 1085.40039062 180.353515625 l 5x5520
837.400390625 356 m 4
 818.827148438 356 803.16015625 351.604492188 790.400390625 342.8125 c 4
 776.865234375 333.487304688 766.6015625 319.216796875 759.607421875 300 c 5
 913.91796875 300 l 5
 906.73828125 319.724609375 896.232421875 334.239257812 882.400390625 343.541992188 c 4
 870.051757812 351.84765625 855.051757812 356 837.400390625 356 c 4
406 500 m 1x1360
 554 500 l 1
 554 0 l 1
 406 0 l 1x3360
 406 32.9892578125 l 1
 402.436523438 29.900390625 398.76953125 26.9716796875 395 24.201171875 c 0
 362.161132812 0.0673828125 321.494140625 -12 273 -12 c 0
 201.666992188 -12 142.166992188 13.3330078125 94.5 64 c 0
 46.8330078125 114.666992188 23 176.666992188 23 250 c 0
 23 323.333007812 46.8330078125 385.333007812 94.5 436 c 0
 142.166992188 486.666992188 201.666992188 512 273 512 c 0x9960
 320.841796875 512 361.841796875 498.225585938 396 470.676757812 c 0
 399.401367188 467.93359375 402.734375 465.053710938 406 462.037109375 c 1
 406 500 l 1x1360
290 344 m 0x99a0
 264 344 241.833007812 334.833007812 223.5 316.5 c 0
 205.166992188 298.166992188 196 276 196 250 c 0
 196 224 205.166992188 201.833007812 223.5 183.5 c 0
 241.833007812 165.166992188 264 156 290 156 c 0
 316 156 338.166992188 165.166992188 356.5 183.5 c 0
 374.833007812 201.833007812 384 224 384 250 c 0
 384 276 374.833007812 298.166992188 356.5 316.5 c 0
 338.166992188 334.833007812 316 344 290 344 c 0x99a0
EndSplineSet
EndChar

StartChar: ccedilla
Encoding: 231 231 164
GlifName: ccedilla
Width: 482
Flags: W
HStem: -211 120<206.221 285.6> -12 21G<248.405 320.913> 342 170<225.886 367.419>
VStem: 22.7383 170<191.148 308.852> 295.476 120<-81.1243 -10.5617>
LayerCount: 2
Fore
SplineSet
355.006835938 81.66015625 m 1
 395.318359375 48.6533203125 415.474609375 6.099609375 415.475585938 -46 c 0
 415.475585938 -91.3330078125 399.30859375 -130.166992188 366.975585938 -162.5 c 0
 334.642578125 -194.833007812 295.80859375 -211 250.475585938 -211 c 0
 212.73828125 -210.854492188 179.018554688 -199.141601562 149.317382812 -175.859375 c 1
 195.3046875 -110.1796875 218.296875 -77.3427734375 218.293945312 -77.349609375 c 4
 227.103515625 -86.4208984375 237.830078125 -90.9716796875 250.475585938 -91 c 0
 263.142578125 -91 273.80859375 -86.6669921875 282.475585938 -78 c 0
 291.142578125 -69.3330078125 295.475585938 -58.6669921875 295.475585938 -46 c 0
 295.46484375 -34.6064453125 291.677734375 -24.6689453125 284.114257812 -16.189453125 c 0
 276.55078125 -7.7099609375 267.19140625 -2.775390625 256.034179688 -1.38671875 c 1
 355.006835938 81.66015625 l 1
284.73828125 512 m 0
 357.086914062 512 418.840820312 486.420898438 470 435.26171875 c 1
 349.79296875 315.0546875 l 1
 331.829101562 333.018554688 310.14453125 342 284.73828125 342 c 0
 259.405273438 342 237.73828125 333 219.73828125 315 c 0
 201.73828125 297 192.73828125 275.333007812 192.73828125 250 c 0
 192.73828125 224.666992188 201.73828125 203 219.73828125 185 c 0
 237.73828125 167 259.405273438 158 284.73828125 158 c 0
 310.14453125 158 331.829101562 166.981445312 349.79296875 184.9453125 c 1
 470 64.73828125 l 1
 418.840820312 13.5791015625 357.086914062 -12 284.73828125 -12 c 0
 212.071289062 -12 150.23828125 13.5 99.23828125 64.5 c 0
 48.23828125 115.5 22.73828125 177.333007812 22.73828125 250 c 0
 22.73828125 322.666992188 48.23828125 384.5 99.23828125 435.5 c 0
 150.23828125 486.5 212.071289062 512 284.73828125 512 c 0
EndSplineSet
EndChar

StartChar: egrave
Encoding: 232 232 165
GlifName: egrave
Width: 550
Flags: W
HStem: -12 136<244.419 390.257> 180.354 119.646<216.732 366.918> 356 156<233.619 345.894> 554 147<213 283>
VStem: 24.4004 514<182.463 298.688>
LayerCount: 2
Fore
SplineSet
538.400390625 180.353515625 m 5
 216.732421875 180.353515625 l 5
 223.4140625 166.025390625 233.881835938 153.05078125 248.13671875 141.430664062 c 4
 262.391601562 129.810546875 279.8125 124 300.400390625 124 c 4
 343.549804688 124 361.09375 132.180664062 394.921875 147.955078125 c 5
 480.1953125 43.728515625 l 5
 419.338867188 1.1171875 368.336914062 -12 300.400390625 -12 c 4
 225.06640625 -12 160.233398438 13.6669921875 105.900390625 65 c 4
 51.56640625 116.333007812 24.400390625 178 24.400390625 250 c 4
 24.400390625 322.666992188 49.900390625 384.5 100.900390625 435.5 c 4
 151.900390625 486.5 213.733398438 512 286.400390625 512 c 4
 355.733398438 512 415.06640625 486.333007812 464.400390625 435 c 4
 513.733398438 383.666992188 538.400390625 320 538.400390625 244 c 6
 538.400390625 180.353515625 l 5
290.400390625 356 m 4
 271.827148438 356 256.16015625 351.604492188 243.400390625 342.8125 c 4
 229.865234375 333.487304688 219.6015625 319.216796875 212.607421875 300 c 5
 366.91796875 300 l 5
 359.73828125 319.724609375 349.232421875 334.239257812 335.400390625 343.541992188 c 4
 323.051757812 351.84765625 308.051757812 356 290.400390625 356 c 4
213 554 m 1
 87 701 l 1
 283 701 l 1
 389 554 l 1
 213 554 l 1
EndSplineSet
EndChar

StartChar: eacute
Encoding: 233 233 166
GlifName: eacute
Width: 550
Flags: W
HStem: -12 136<244.419 390.257> 180.354 119.646<216.732 366.918> 356 156<233.619 345.894> 553.5 147<302 372>
VStem: 24.4004 514<182.463 298.688>
LayerCount: 2
Fore
SplineSet
538.400390625 180.353515625 m 5
 216.732421875 180.353515625 l 5
 223.4140625 166.025390625 233.881835938 153.05078125 248.13671875 141.430664062 c 4
 262.391601562 129.810546875 279.8125 124 300.400390625 124 c 4
 343.549804688 124 361.09375 132.180664062 394.921875 147.955078125 c 5
 480.1953125 43.728515625 l 5
 419.338867188 1.1171875 368.336914062 -12 300.400390625 -12 c 4
 225.06640625 -12 160.233398438 13.6669921875 105.900390625 65 c 4
 51.56640625 116.333007812 24.400390625 178 24.400390625 250 c 4
 24.400390625 322.666992188 49.900390625 384.5 100.900390625 435.5 c 4
 151.900390625 486.5 213.733398438 512 286.400390625 512 c 4
 355.733398438 512 415.06640625 486.333007812 464.400390625 435 c 4
 513.733398438 383.666992188 538.400390625 320 538.400390625 244 c 6
 538.400390625 180.353515625 l 5
290.400390625 356 m 4
 271.827148438 356 256.16015625 351.604492188 243.400390625 342.8125 c 4
 229.865234375 333.487304688 219.6015625 319.216796875 212.607421875 300 c 5
 366.91796875 300 l 5
 359.73828125 319.724609375 349.232421875 334.239257812 335.400390625 343.541992188 c 4
 323.051757812 351.84765625 308.051757812 356 290.400390625 356 c 4
196 553.5 m 1
 302 700.5 l 1
 498 700.5 l 1
 372 553.5 l 1
 196 553.5 l 1
EndSplineSet
EndChar

StartChar: ecircumflex
Encoding: 234 234 167
GlifName: ecircumflex
Width: 550
Flags: W
HStem: -12 136<244.419 390.257> 180.354 119.646<216.732 366.918> 356 156<233.619 345.894> 554 146<198.554 233.002 330.998 365.446>
VStem: 24.4004 514<182.463 298.688>
LayerCount: 2
Fore
SplineSet
538.400390625 180.353515625 m 5
 216.732421875 180.353515625 l 5
 223.4140625 166.025390625 233.881835938 153.05078125 248.13671875 141.430664062 c 4
 262.391601562 129.810546875 279.8125 124 300.400390625 124 c 4
 343.549804688 124 361.09375 132.180664062 394.921875 147.955078125 c 5
 480.1953125 43.728515625 l 5
 419.338867188 1.1171875 368.336914062 -12 300.400390625 -12 c 4
 225.06640625 -12 160.233398438 13.6669921875 105.900390625 65 c 4
 51.56640625 116.333007812 24.400390625 178 24.400390625 250 c 4
 24.400390625 322.666992188 49.900390625 384.5 100.900390625 435.5 c 4
 151.900390625 486.5 213.733398438 512 286.400390625 512 c 4
 355.733398438 512 415.06640625 486.333007812 464.400390625 435 c 4
 513.733398438 383.666992188 538.400390625 320 538.400390625 244 c 6
 538.400390625 180.353515625 l 5
290.400390625 356 m 4
 271.827148438 356 256.16015625 351.604492188 243.400390625 342.8125 c 4
 229.865234375 333.487304688 219.6015625 319.216796875 212.607421875 300 c 5
 366.91796875 300 l 5
 359.73828125 319.724609375 349.232421875 334.239257812 335.400390625 343.541992188 c 4
 323.051757812 351.84765625 308.051757812 356 290.400390625 356 c 4
68.24609375 554 m 1
 198.553710938 700 l 1
 365.446289062 700 l 1
 495.75390625 554 l 1
 330.998046875 554 l 1
 282 606.009765625 l 1
 233.001953125 554 l 1
 68.24609375 554 l 1
EndSplineSet
EndChar

StartChar: edieresis
Encoding: 235 235 168
GlifName: edieresis
Width: 550
Flags: W
HStem: -12 136<244.419 390.257> 180.354 119.646<216.732 366.918> 356 156<233.619 345.894> 569 176<91.9628 206.037 361.963 476.037>
VStem: 24.4004 514<182.463 298.688> 61 176<599.963 714.037> 331 176<599.963 714.037>
LayerCount: 2
Fore
SplineSet
538.400390625 180.353515625 m 5xf8
 216.732421875 180.353515625 l 5
 223.4140625 166.025390625 233.881835938 153.05078125 248.13671875 141.430664062 c 4
 262.391601562 129.810546875 279.8125 124 300.400390625 124 c 4
 343.549804688 124 361.09375 132.180664062 394.921875 147.955078125 c 5
 480.1953125 43.728515625 l 5
 419.338867188 1.1171875 368.336914062 -12 300.400390625 -12 c 4
 225.06640625 -12 160.233398438 13.6669921875 105.900390625 65 c 4
 51.56640625 116.333007812 24.400390625 178 24.400390625 250 c 4
 24.400390625 322.666992188 49.900390625 384.5 100.900390625 435.5 c 4
 151.900390625 486.5 213.733398438 512 286.400390625 512 c 4
 355.733398438 512 415.06640625 486.333007812 464.400390625 435 c 4
 513.733398438 383.666992188 538.400390625 320 538.400390625 244 c 6
 538.400390625 180.353515625 l 5xf8
290.400390625 356 m 4
 271.827148438 356 256.16015625 351.604492188 243.400390625 342.8125 c 4
 229.865234375 333.487304688 219.6015625 319.216796875 212.607421875 300 c 5
 366.91796875 300 l 5
 359.73828125 319.724609375 349.232421875 334.239257812 335.400390625 343.541992188 c 4
 323.051757812 351.84765625 308.051757812 356 290.400390625 356 c 4
149 745 m 0
 173 745 193.666992188 736.333007812 211 719 c 0
 228.333007812 701.666992188 237 681 237 657 c 0
 237 633 228.333007812 612.333007812 211 595 c 0
 193.666992188 577.666992188 173 569 149 569 c 0
 125 569 104.333007812 577.666992188 87 595 c 0
 69.6669921875 612.333007812 61 633 61 657 c 0xf4
 61 681 69.6669921875 701.666992188 87 719 c 0
 104.333007812 736.333007812 125 745 149 745 c 0
419 745 m 0
 443 745 463.666992188 736.333007812 481 719 c 0
 498.333007812 701.666992188 507 681 507 657 c 0
 507 633 498.333007812 612.333007812 481 595 c 0
 463.666992188 577.666992188 443 569 419 569 c 0
 395 569 374.333007812 577.666992188 357 595 c 0
 339.666992188 612.333007812 331 633 331 657 c 0xf2
 331 681 339.666992188 701.666992188 357 719 c 0
 374.333007812 736.333007812 395 745 419 745 c 0
EndSplineSet
EndChar

StartChar: igrave
Encoding: 236 236 169
GlifName: igrave
Width: 296
Flags: W
HStem: 0 21G<63 233> 480 20G<63 233> 554 147<62 132>
VStem: 63 170<0 500>
LayerCount: 2
Fore
SplineSet
62 554 m 5
 -64 701 l 5
 132 701 l 5
 238 554 l 5
 62 554 l 5
63 0 m 1
 63 500 l 1
 233 500 l 1
 233 0 l 1
 63 0 l 1
EndSplineSet
EndChar

StartChar: iacute
Encoding: 237 237 170
GlifName: iacute
Width: 296
Flags: W
HStem: 0 21G<63 233> 480 20G<63 233> 553.5 147<165 235>
VStem: 63 170<0 500>
LayerCount: 2
Fore
SplineSet
59 553.5 m 5
 165 700.5 l 5
 361 700.5 l 5
 235 553.5 l 5
 59 553.5 l 5
63 0 m 1
 63 500 l 1
 233 500 l 1
 233 0 l 1
 63 0 l 1
EndSplineSet
EndChar

StartChar: icircumflex
Encoding: 238 238 171
GlifName: icircumflex
Width: 296
Flags: W
HStem: 0 21G<63 233> 480 20G<63 233> 554 146<68.5537 103.002 200.998 235.446>
VStem: 63 170<0 500>
LayerCount: 2
Fore
SplineSet
-61.75390625 554 m 1
 68.5537109375 700 l 1
 235.446289062 700 l 1
 365.75390625 554 l 1
 200.998046875 554 l 1
 152 606.009765625 l 1
 103.001953125 554 l 1
 -61.75390625 554 l 1
63 0 m 1
 63 500 l 1
 233 500 l 1
 233 0 l 1
 63 0 l 1
EndSplineSet
EndChar

StartChar: idieresis
Encoding: 239 239 172
GlifName: idieresis
Width: 296
Flags: W
HStem: 0 21G<63 233> 480 20G<63 233> 569 176<-29.0372 85.0372 210.963 325.037>
VStem: -60 176<599.963 714.037> 63 170<0 500> 180 176<599.963 714.037>
LayerCount: 2
Fore
SplineSet
63 0 m 1xe8
 63 500 l 1
 233 500 l 1
 233 0 l 1
 63 0 l 1xe8
28 745 m 4
 52 745 72.6669921875 736.333007812 90 719 c 4
 107.333007812 701.666992188 116 681 116 657 c 4
 116 633 107.333007812 612.333007812 90 595 c 4
 72.6669921875 577.666992188 52 569 28 569 c 4
 4 569 -16.6669921875 577.666992188 -34 595 c 4
 -51.3330078125 612.333007812 -60 633 -60 657 c 4xf0
 -60 681 -51.3330078125 701.666992188 -34 719 c 4
 -16.6669921875 736.333007812 4 745 28 745 c 4
268 745 m 4
 292 745 312.666992188 736.333007812 330 719 c 4
 347.333007812 701.666992188 356 681 356 657 c 4
 356 633 347.333007812 612.333007812 330 595 c 4
 312.666992188 577.666992188 292 569 268 569 c 4
 244 569 223.333007812 577.666992188 206 595 c 4
 188.666992188 612.333007812 180 633 180 657 c 4xe4
 180 681 188.666992188 701.666992188 206 719 c 4
 223.333007812 736.333007812 244 745 268 745 c 4
EndSplineSet
EndChar

StartChar: eth
Encoding: 240 240 173
GlifName: eth
Width: 565
Flags: W
HStem: -12 170<223.357 332.643> 692 20G<165.914 183.606 344.69 390.878>
VStem: 26 170<185.357 294.643> 360 170<185.357 301.752>
LayerCount: 2
Fore
SplineSet
278 492 m 0
 348 492 407.5 467.5 456.5 418.5 c 0
 505.5 369.5 530 310 530 240 c 0
 530 170 505.5 110.5 456.5 61.5 c 0
 407.5 12.5 348 -12 278 -12 c 0
 208 -12 148.5 12.5 99.5 61.5 c 0
 50.5 110.5 26 170 26 240 c 0
 26 310 50.5 369.5 99.5 418.5 c 0
 148.5 467.5 208 492 278 492 c 0
278 322 m 0
 255.333007812 322 236 314 220 298 c 0
 204 282 196 262.666992188 196 240 c 0
 196 217.333007812 204 198 220 182 c 0
 236 166 255.333007812 158 278 158 c 0
 300.666992188 158 320 166 336 182 c 0
 352 198 360 217.333007812 360 240 c 0
 360 262.666992188 352 282 336 298 c 0
 320 314 300.666992188 322 278 322 c 0
103.39453125 557.927734375 m 1
 175.240234375 712 l 1
 191.97265625 711.439453125 215.239257812 707.024414062 245.040039062 698.752929688 c 4
 269.60546875 691.935546875 293.05859375 682.919921875 315.400390625 671.70703125 c 0
 337.7421875 660.495117188 362.555664062 642.926757812 389.83984375 619.00390625 c 0
 417.124023438 595.081054688 440.578125 567.248046875 460.200195312 535.505859375 c 0
 479.822265625 503.763671875 496.361328125 462.258789062 509.817382812 410.989257812 c 0
 523.272460938 359.720703125 530 302.724609375 530 240 c 1
 360 240 l 1
 360 301.751953125 351.234375 354.751953125 333.703125 399 c 0
 321.623046875 429.48828125 305.381835938 455.821289062 284.978515625 478 c 0
 264.564453125 500.190429688 239.984375 518.220703125 211.237304688 532.091796875 c 0
 173.63671875 550.231445312 137.689453125 558.842773438 103.39453125 557.927734375 c 1
136.982421875 566.280273438 m 1
 379.331054688 706.200195312 l 1
 429.331054688 619.59765625 l 1
 186.982421875 479.677734375 l 1
 136.982421875 566.280273438 l 1
EndSplineSet
EndChar

StartChar: ntilde
Encoding: 241 241 174
GlifName: ntilde
Width: 584
Flags: W
HStem: 0 21G<48 218 371 541> 342 170<240.592 348.529> 480 20G<48 206> 534 106<336.044 390.96> 606 106<207.052 268.202>
VStem: 48 170<0 319.654> 371 170<0 319.436>
LayerCount: 2
Fore
SplineSet
370 534 m 0x96
 328.666992188 534 298.666992188 546 280 570 c 0
 272.666992188 579.333007812 265.666992188 587.666992188 259 595 c 0
 252.333007812 602.333007812 243.333007812 606 232 606 c 0
 217.333007812 606 207 593 201 567 c 1
 84 567 l 1
 86.6669921875 609 102 643.666992188 130 671 c 0
 158 698.333007812 190 712 226 712 c 0x8e
 270.666992188 712 303.333007812 700 324 676 c 0
 332 666.666992188 339 658.333007812 345 651 c 0
 351 643.666992188 359 640 369 640 c 0
 383 640 391.666992188 653 395 679 c 1
 512 679 l 5
 507.333007812 636.333007812 491.833007812 601.5 465.5 574.5 c 0
 439.166992188 547.5 407.333007812 534 370 534 c 0x96
541 0 m 1
 371 0 l 1
 371 263.7109375 l 2
 371 287.016601562 363.659179688 305.890625 348.978515625 320.333984375 c 0
 334.296875 334.778320312 316.137695312 342 294.5 342 c 0xc6
 272.862304688 342 254.703125 334.778320312 240.021484375 320.333984375 c 0
 225.340820312 305.890625 218 287.016601562 218 263.7109375 c 2
 218 0 l 1
 48 0 l 1
 48 500 l 1
 206 500 l 1xa6
 206 463.278320312 l 1
 211.594726562 469.3515625 217.594726562 474.857421875 224 479.795898438 c 4
 251.846679688 501.265625 287.346679688 512 330.5 512 c 0xc6
 396.833007812 512 448.5 488.166992188 485.5 440.5 c 0
 522.5 392.833007812 541 331.333007812 541 256 c 2
 541 0 l 1
EndSplineSet
EndChar

StartChar: ograve
Encoding: 242 242 175
GlifName: ograve
Width: 570
Flags: W
HStem: -12 170<226.222 343.778> 342 170<226.222 343.778> 554 147<207.5 277.5>
VStem: 23 170<191.222 308.778> 377 170<191.222 308.778>
LayerCount: 2
Fore
SplineSet
207.5 554 m 5
 81.5 701 l 5
 277.5 701 l 5
 383.5 554 l 5
 207.5 554 l 5
285 342 m 0
 259.594726562 342 237.91015625 333.017578125 219.946289062 315.053710938 c 0
 201.982421875 297.08984375 193 275.405273438 193 250 c 0
 193 224.594726562 201.982421875 202.91015625 219.946289062 184.946289062 c 0
 237.91015625 166.982421875 259.594726562 158 285 158 c 0
 310.405273438 158 332.08984375 166.982421875 350.053710938 184.946289062 c 0
 368.017578125 202.91015625 377 224.594726562 377 250 c 0
 377 275.405273438 368.017578125 297.08984375 350.053710938 315.053710938 c 0
 332.08984375 333.017578125 310.405273438 342 285 342 c 0
285 512 m 0
 357.348632812 512 419.102539062 486.420898438 470.26171875 435.26171875 c 0
 521.420898438 384.102539062 547 322.348632812 547 250 c 0
 547 177.651367188 521.420898438 115.897460938 470.26171875 64.73828125 c 0
 419.102539062 13.5791015625 357.348632812 -12 285 -12 c 0
 212.651367188 -12 150.897460938 13.5791015625 99.73828125 64.73828125 c 0
 48.5791015625 115.897460938 23 177.651367188 23 250 c 0
 23 322.348632812 48.5791015625 384.102539062 99.73828125 435.26171875 c 0
 150.897460938 486.420898438 212.651367188 512 285 512 c 0
EndSplineSet
EndChar

StartChar: oacute
Encoding: 243 243 176
GlifName: oacute
Width: 570
Flags: W
HStem: -12 170<226.222 343.778> 342 170<226.222 343.778> 553.5 147<298.5 368.5>
VStem: 23 170<191.222 308.778> 377 170<191.222 308.778>
LayerCount: 2
Fore
SplineSet
192.5 553.5 m 5
 298.5 700.5 l 5
 494.5 700.5 l 5
 368.5 553.5 l 5
 192.5 553.5 l 5
285 342 m 0
 259.594726562 342 237.91015625 333.017578125 219.946289062 315.053710938 c 0
 201.982421875 297.08984375 193 275.405273438 193 250 c 0
 193 224.594726562 201.982421875 202.91015625 219.946289062 184.946289062 c 0
 237.91015625 166.982421875 259.594726562 158 285 158 c 0
 310.405273438 158 332.08984375 166.982421875 350.053710938 184.946289062 c 0
 368.017578125 202.91015625 377 224.594726562 377 250 c 0
 377 275.405273438 368.017578125 297.08984375 350.053710938 315.053710938 c 0
 332.08984375 333.017578125 310.405273438 342 285 342 c 0
285 512 m 0
 357.348632812 512 419.102539062 486.420898438 470.26171875 435.26171875 c 0
 521.420898438 384.102539062 547 322.348632812 547 250 c 0
 547 177.651367188 521.420898438 115.897460938 470.26171875 64.73828125 c 0
 419.102539062 13.5791015625 357.348632812 -12 285 -12 c 0
 212.651367188 -12 150.897460938 13.5791015625 99.73828125 64.73828125 c 0
 48.5791015625 115.897460938 23 177.651367188 23 250 c 0
 23 322.348632812 48.5791015625 384.102539062 99.73828125 435.26171875 c 0
 150.897460938 486.420898438 212.651367188 512 285 512 c 0
EndSplineSet
EndChar

StartChar: ocircumflex
Encoding: 244 244 177
GlifName: ocircumflex
Width: 570
Flags: W
HStem: -12 170<226.222 343.778> 342 170<226.222 343.778> 554 146<201.054 235.502 333.498 367.946>
VStem: 23 170<191.222 308.778> 377 170<191.222 308.778>
LayerCount: 2
Fore
SplineSet
70.74609375 554 m 1
 201.053710938 700 l 1
 367.946289062 700 l 1
 498.25390625 554 l 1
 333.498046875 554 l 1
 284.5 606.009765625 l 1
 235.501953125 554 l 1
 70.74609375 554 l 1
285 342 m 0
 259.594726562 342 237.91015625 333.017578125 219.946289062 315.053710938 c 0
 201.982421875 297.08984375 193 275.405273438 193 250 c 0
 193 224.594726562 201.982421875 202.91015625 219.946289062 184.946289062 c 0
 237.91015625 166.982421875 259.594726562 158 285 158 c 0
 310.405273438 158 332.08984375 166.982421875 350.053710938 184.946289062 c 0
 368.017578125 202.91015625 377 224.594726562 377 250 c 0
 377 275.405273438 368.017578125 297.08984375 350.053710938 315.053710938 c 0
 332.08984375 333.017578125 310.405273438 342 285 342 c 0
285 512 m 0
 357.348632812 512 419.102539062 486.420898438 470.26171875 435.26171875 c 0
 521.420898438 384.102539062 547 322.348632812 547 250 c 0
 547 177.651367188 521.420898438 115.897460938 470.26171875 64.73828125 c 0
 419.102539062 13.5791015625 357.348632812 -12 285 -12 c 0
 212.651367188 -12 150.897460938 13.5791015625 99.73828125 64.73828125 c 0
 48.5791015625 115.897460938 23 177.651367188 23 250 c 0
 23 322.348632812 48.5791015625 384.102539062 99.73828125 435.26171875 c 0
 150.897460938 486.420898438 212.651367188 512 285 512 c 0
EndSplineSet
EndChar

StartChar: otilde
Encoding: 245 245 178
GlifName: otilde
Width: 570
Flags: W
HStem: -12 170<226.222 343.778> 342 170<226.222 343.778> 534 106<329.544 384.46> 606 106<200.552 261.702>
VStem: 23 170<191.222 308.778> 377 170<191.222 308.778>
LayerCount: 2
Fore
SplineSet
363.5 534 m 0xec
 322.166992188 534 292.166992188 546 273.5 570 c 0
 266.166992188 579.333007812 259.166992188 587.666992188 252.5 595 c 0
 245.833007812 602.333007812 236.833007812 606 225.5 606 c 0
 210.833007812 606 200.5 593 194.5 567 c 1
 77.5 567 l 1
 80.1669921875 609 95.5 643.666992188 123.5 671 c 0
 151.5 698.333007812 183.5 712 219.5 712 c 0xdc
 264.166992188 712 296.833007812 700 317.5 676 c 0
 325.5 666.666992188 332.5 658.333007812 338.5 651 c 0
 344.5 643.666992188 352.5 640 362.5 640 c 0
 376.5 640 385.166992188 653 388.5 679 c 1
 505.5 679 l 5
 500.833007812 636.333007812 485.333007812 601.5 459 574.5 c 0
 432.666992188 547.5 400.833007812 534 363.5 534 c 0xec
285 342 m 0
 259.594726562 342 237.91015625 333.017578125 219.946289062 315.053710938 c 0
 201.982421875 297.08984375 193 275.405273438 193 250 c 0
 193 224.594726562 201.982421875 202.91015625 219.946289062 184.946289062 c 0
 237.91015625 166.982421875 259.594726562 158 285 158 c 0
 310.405273438 158 332.08984375 166.982421875 350.053710938 184.946289062 c 0
 368.017578125 202.91015625 377 224.594726562 377 250 c 0
 377 275.405273438 368.017578125 297.08984375 350.053710938 315.053710938 c 0
 332.08984375 333.017578125 310.405273438 342 285 342 c 0
285 512 m 0
 357.348632812 512 419.102539062 486.420898438 470.26171875 435.26171875 c 0
 521.420898438 384.102539062 547 322.348632812 547 250 c 0
 547 177.651367188 521.420898438 115.897460938 470.26171875 64.73828125 c 0
 419.102539062 13.5791015625 357.348632812 -12 285 -12 c 0
 212.651367188 -12 150.897460938 13.5791015625 99.73828125 64.73828125 c 0
 48.5791015625 115.897460938 23 177.651367188 23 250 c 0
 23 322.348632812 48.5791015625 384.102539062 99.73828125 435.26171875 c 0
 150.897460938 486.420898438 212.651367188 512 285 512 c 0
EndSplineSet
EndChar

StartChar: odieresis
Encoding: 246 246 179
GlifName: odieresis
Width: 570
Flags: W
HStem: -12 170<226.222 343.778> 342 170<226.222 343.778> 569 176<94.4628 208.537 364.463 478.537>
VStem: 23 170<191.222 308.778> 63.5 176<599.963 714.037> 333.5 176<599.963 714.037> 377 170<191.222 308.778>
LayerCount: 2
Fore
SplineSet
151.5 745 m 4xe8
 175.5 745 196.166992188 736.333007812 213.5 719 c 4
 230.833007812 701.666992188 239.5 681 239.5 657 c 4
 239.5 633 230.833007812 612.333007812 213.5 595 c 4
 196.166992188 577.666992188 175.5 569 151.5 569 c 4
 127.5 569 106.833007812 577.666992188 89.5 595 c 4
 72.1669921875 612.333007812 63.5 633 63.5 657 c 4
 63.5 681 72.1669921875 701.666992188 89.5 719 c 4
 106.833007812 736.333007812 127.5 745 151.5 745 c 4xe8
421.5 745 m 4
 445.5 745 466.166992188 736.333007812 483.5 719 c 4
 500.833007812 701.666992188 509.5 681 509.5 657 c 4
 509.5 633 500.833007812 612.333007812 483.5 595 c 4
 466.166992188 577.666992188 445.5 569 421.5 569 c 4
 397.5 569 376.833007812 577.666992188 359.5 595 c 4
 342.166992188 612.333007812 333.5 633 333.5 657 c 4xe4
 333.5 681 342.166992188 701.666992188 359.5 719 c 4
 376.833007812 736.333007812 397.5 745 421.5 745 c 4
285 342 m 0
 259.594726562 342 237.91015625 333.017578125 219.946289062 315.053710938 c 0
 201.982421875 297.08984375 193 275.405273438 193 250 c 0
 193 224.594726562 201.982421875 202.91015625 219.946289062 184.946289062 c 0
 237.91015625 166.982421875 259.594726562 158 285 158 c 0
 310.405273438 158 332.08984375 166.982421875 350.053710938 184.946289062 c 0
 368.017578125 202.91015625 377 224.594726562 377 250 c 0xf2
 377 275.405273438 368.017578125 297.08984375 350.053710938 315.053710938 c 0
 332.08984375 333.017578125 310.405273438 342 285 342 c 0
285 512 m 0
 357.348632812 512 419.102539062 486.420898438 470.26171875 435.26171875 c 0
 521.420898438 384.102539062 547 322.348632812 547 250 c 0
 547 177.651367188 521.420898438 115.897460938 470.26171875 64.73828125 c 0
 419.102539062 13.5791015625 357.348632812 -12 285 -12 c 0
 212.651367188 -12 150.897460938 13.5791015625 99.73828125 64.73828125 c 0
 48.5791015625 115.897460938 23 177.651367188 23 250 c 0
 23 322.348632812 48.5791015625 384.102539062 99.73828125 435.26171875 c 0
 150.897460938 486.420898438 212.651367188 512 285 512 c 0
EndSplineSet
EndChar

StartChar: divide
Encoding: 247 247 180
GlifName: divide
Width: 646
Flags: W
HStem: 50 145<272.411 373.589> 213 170<108 538> 400 145<272.411 373.589>
VStem: 250.5 145<71.9112 173.089 421.911 523.089>
LayerCount: 2
Fore
SplineSet
323 545 m 0
 343.006835938 545 360.091796875 537.91796875 374.254882812 523.754882812 c 0
 388.41796875 509.591796875 395.5 492.506835938 395.5 472.5 c 0
 395.5 452.493164062 388.41796875 435.408203125 374.254882812 421.245117188 c 0
 360.091796875 407.08203125 343.006835938 400 323 400 c 0
 302.993164062 400 285.908203125 407.08203125 271.745117188 421.245117188 c 0
 257.58203125 435.408203125 250.5 452.493164062 250.5 472.5 c 0
 250.5 492.506835938 257.58203125 509.591796875 271.745117188 523.754882812 c 0
 285.908203125 537.91796875 302.993164062 545 323 545 c 0
108 383 m 1
 538 383 l 1
 538 213 l 1
 108 213 l 1
 108 383 l 1
323 195 m 0
 343.006835938 195 360.091796875 187.91796875 374.254882812 173.754882812 c 0
 388.41796875 159.591796875 395.5 142.506835938 395.5 122.5 c 0
 395.5 102.493164062 388.41796875 85.408203125 374.254882812 71.2451171875 c 0
 360.091796875 57.08203125 343.006835938 50 323 50 c 0
 302.993164062 50 285.908203125 57.08203125 271.745117188 71.2451171875 c 0
 257.58203125 85.408203125 250.5 102.493164062 250.5 122.5 c 0
 250.5 142.506835938 257.58203125 159.591796875 271.745117188 173.754882812 c 0
 285.908203125 187.91796875 302.993164062 195 323 195 c 0
EndSplineSet
EndChar

StartChar: oslash
Encoding: 248 248 181
GlifName: oslash
Width: 570
Flags: W
HStem: -12 21G<123.958 164.575 248.826 321.174> 342 170<226.222 302.56>
VStem: 23 170<206.49 308.778> 377 170<191.222 286.853>
LayerCount: 2
Fore
SplineSet
285 342 m 0
 259.594726562 342 237.91015625 333.017578125 219.946289062 315.053710938 c 0
 201.982421875 297.08984375 193 275.405273438 193 250 c 0
 193 224.594726562 201.982421875 202.91015625 219.946289062 184.946289062 c 0
 237.91015625 166.982421875 259.594726562 158 285 158 c 0
 310.405273438 158 332.08984375 166.982421875 350.053710938 184.946289062 c 0
 368.017578125 202.91015625 377 224.594726562 377 250 c 0
 377 275.405273438 368.017578125 297.08984375 350.053710938 315.053710938 c 0
 332.08984375 333.017578125 310.405273438 342 285 342 c 0
285 512 m 0
 357.348632812 512 419.102539062 486.420898438 470.26171875 435.26171875 c 0
 521.420898438 384.102539062 547 322.348632812 547 250 c 0
 547 177.651367188 521.420898438 115.897460938 470.26171875 64.73828125 c 0
 419.102539062 13.5791015625 357.348632812 -12 285 -12 c 0
 212.651367188 -12 150.897460938 13.5791015625 99.73828125 64.73828125 c 0
 48.5791015625 115.897460938 23 177.651367188 23 250 c 0
 23 322.348632812 48.5791015625 384.102539062 99.73828125 435.26171875 c 0
 150.897460938 486.420898438 212.651367188 512 285 512 c 0
428.201171875 511.982421875 m 1
 521.658203125 433.5625 l 1
 147.79296875 -11.990234375 l 1
 54.3359375 66.4296875 l 1
 428.201171875 511.982421875 l 1
EndSplineSet
EndChar

StartChar: ugrave
Encoding: 249 249 182
GlifName: ugrave
Width: 579
Flags: W
HStem: -12 170<236.456 342.544> 480 20G<43 213 366 536> 554 147<207 277>
VStem: 43 170<180.346 500> 366 170<180.346 500>
LayerCount: 2
Fore
SplineSet
207 554 m 5
 81 701 l 5
 277 701 l 5
 383 554 l 5
 207 554 l 5
43 500 m 1
 213 500 l 1
 213 236.2890625 l 2
 213 212.983398438 220.340820312 194.109375 235.021484375 179.666015625 c 0
 249.703125 165.221679688 267.862304688 158 289.5 158 c 0
 311.137695312 158 329.296875 165.221679688 343.978515625 179.666015625 c 0
 358.659179688 194.109375 366 212.983398438 366 236.2890625 c 2
 366 500 l 1
 536 500 l 1
 536 244 l 2
 536 172 512 111.333007812 464 62 c 0
 416 12.6669921875 357.833007812 -12 289.5 -12 c 0
 221.166992188 -12 163 12.6669921875 115 62 c 0
 67 111.333007812 43 172 43 244 c 2
 43 500 l 1
EndSplineSet
EndChar

StartChar: uacute
Encoding: 250 250 183
GlifName: uacute
Width: 579
Flags: W
HStem: -12 170<236.456 342.544> 480 20G<43 213 366 536> 553.5 147<310 380>
VStem: 43 170<180.346 500> 366 170<180.346 500>
LayerCount: 2
Fore
SplineSet
204 553.5 m 5
 310 700.5 l 5
 506 700.5 l 5
 380 553.5 l 5
 204 553.5 l 5
43 500 m 1
 213 500 l 1
 213 236.2890625 l 2
 213 212.983398438 220.340820312 194.109375 235.021484375 179.666015625 c 0
 249.703125 165.221679688 267.862304688 158 289.5 158 c 0
 311.137695312 158 329.296875 165.221679688 343.978515625 179.666015625 c 0
 358.659179688 194.109375 366 212.983398438 366 236.2890625 c 2
 366 500 l 1
 536 500 l 1
 536 244 l 2
 536 172 512 111.333007812 464 62 c 0
 416 12.6669921875 357.833007812 -12 289.5 -12 c 0
 221.166992188 -12 163 12.6669921875 115 62 c 0
 67 111.333007812 43 172 43 244 c 2
 43 500 l 1
EndSplineSet
EndChar

StartChar: ucircumflex
Encoding: 251 251 184
GlifName: ucircumflex
Width: 579
Flags: W
HStem: -12 170<236.456 342.544> 480 20G<43 213 366 536> 554 146<202.554 237.002 334.998 369.446>
VStem: 43 170<180.346 500> 366 170<180.346 500>
LayerCount: 2
Fore
SplineSet
72.24609375 554 m 1
 202.553710938 700 l 1
 369.446289062 700 l 1
 499.75390625 554 l 1
 334.998046875 554 l 1
 286 606.009765625 l 1
 237.001953125 554 l 1
 72.24609375 554 l 1
43 500 m 1
 213 500 l 1
 213 236.2890625 l 2
 213 212.983398438 220.340820312 194.109375 235.021484375 179.666015625 c 0
 249.703125 165.221679688 267.862304688 158 289.5 158 c 0
 311.137695312 158 329.296875 165.221679688 343.978515625 179.666015625 c 0
 358.659179688 194.109375 366 212.983398438 366 236.2890625 c 2
 366 500 l 1
 536 500 l 1
 536 244 l 2
 536 172 512 111.333007812 464 62 c 0
 416 12.6669921875 357.833007812 -12 289.5 -12 c 0
 221.166992188 -12 163 12.6669921875 115 62 c 0
 67 111.333007812 43 172 43 244 c 2
 43 500 l 1
EndSplineSet
EndChar

